{"glyphs":{"0":{"ha":441,"x_min":11,"x_max":426,"o":"m 239 570 q 359 537 317 581 q 414 419 402 493 q 411 258 426 346 q 362 94 396 170 q 276 -33 328 19 q 161 -85 224 -85 q 66 -37 100 -83 q 21 80 31 9 q 22 232 11 150 q 63 387 33 315 q 137 511 93 459 q 239 570 181 563 m 235 528 q 152 484 189 528 q 90 374 115 441 q 54 231 65 307 q 50 89 43 156 q 86 -21 57 22 q 169 -65 115 -65 q 251 -21 213 -65 q 314 89 289 22 q 351 231 339 156 q 356 374 363 307 q 319 484 348 441 q 235 528 291 528 z "},"1":{"ha":463,"x_min":-15,"x_max":472,"o":"m 6 81 q -9 119 -15 117 q 17 122 -4 122 q 96 130 46 122 q 244 137 146 137 q 269 136 257 137 q 289 135 280 135 q 316 302 300 224 q 361 459 331 380 q 300 369 333 415 q 235 280 267 322 q 220 279 230 274 q 203 293 211 283 q 191 312 194 302 q 194 328 187 322 q 277 421 230 356 q 378 567 324 487 q 405 577 387 580 q 438 563 422 574 q 463 538 454 552 q 465 515 472 524 q 428 445 446 489 q 391 349 409 402 q 356 238 372 296 q 330 126 341 180 q 361 109 350 119 q 377 91 372 100 q 382 74 381 81 q 385 61 383 67 q 384 8 389 35 q 369 -41 380 -19 q 341 -75 357 -63 q 306 -83 324 -87 q 277 -21 280 -78 q 285 111 274 35 l 263 111 q 118 96 187 111 q 6 81 48 81 m 324 102 q 313 29 315 61 q 309 -28 311 -4 q 319 -67 309 -65 q 331 -59 328 -69 q 348 -18 341 -43 q 357 31 356 7 q 352 75 359 56 q 324 102 344 94 z "},"2":{"ha":383,"x_min":4,"x_max":381,"o":"m 291 -48 q 221 -76 265 -69 q 134 -82 178 -83 q 55 -74 91 -81 q 11 -56 19 -67 q 6 -39 7 -52 q 11 -15 4 -26 q 58 51 24 6 q 134 155 93 96 q 219 277 176 213 q 295 394 263 341 q 343 486 328 448 q 343 533 357 524 q 299 532 330 541 q 233 504 269 524 q 164 453 198 483 q 109 387 130 422 q 94 381 106 380 q 71 389 83 383 q 51 402 59 394 q 44 415 43 409 q 75 459 50 435 q 133 506 100 483 q 204 545 167 528 q 272 572 241 563 q 329 574 304 581 q 365 548 354 567 q 372 481 381 524 q 339 385 363 439 q 279 272 315 331 q 206 156 243 213 q 134 48 169 98 q 78 -35 100 -2 q 113 -44 85 -39 q 175 -48 141 -48 q 244 -42 209 -48 q 298 -17 278 -35 q 326 5 319 2 q 331 -1 333 7 q 317 -23 328 -9 q 291 -48 306 -37 z "},"3":{"ha":426,"x_min":24,"x_max":426,"o":"m 98 456 q 123 490 104 470 q 169 527 143 509 q 222 557 194 544 q 274 574 250 570 q 365 563 324 581 q 419 483 406 544 q 413 403 426 441 q 378 333 400 365 q 326 279 356 302 q 270 244 296 256 l 270 243 q 362 214 331 239 q 399 155 393 189 q 391 80 406 120 q 345 5 376 39 q 270 -54 315 -30 q 176 -81 226 -78 q 94 -71 133 -85 q 35 -30 56 -57 q 31 -16 24 -13 q 57 -28 37 -19 q 108 -46 78 -37 q 174 -54 139 -56 q 244 -32 211 -52 q 299 16 276 -13 q 333 77 322 44 q 340 137 344 109 q 313 183 335 165 q 248 202 291 202 q 196 194 220 202 q 175 190 185 191 q 143 180 165 189 q 139 188 141 180 q 137 207 137 196 q 140 228 137 219 q 150 237 143 237 l 198 239 l 233 250 q 304 292 272 263 q 355 355 335 320 q 381 425 374 389 q 378 488 387 461 q 344 527 369 515 q 274 528 319 539 q 233 507 254 522 q 194 472 213 493 q 158 431 174 452 q 133 393 143 409 q 111 413 119 404 q 98 456 91 433 z "},"4":{"ha":350,"x_min":-4,"x_max":343,"o":"m 224 -83 q 208 -35 209 -76 q 213 63 207 6 q 124 58 169 59 q 50 63 80 57 q 13 74 24 67 q 0 91 4 78 q -4 119 -4 104 q -1 147 -4 133 q 4 167 2 161 q 65 361 28 250 q 137 570 102 472 q 153 580 143 583 q 174 565 163 576 q 192 540 185 554 q 196 519 198 526 q 160 436 181 485 q 117 335 139 387 q 75 235 94 283 q 44 154 56 187 q 34 113 35 122 q 65 102 33 104 q 132 95 91 98 q 215 89 174 93 q 228 185 220 135 q 244 281 235 235 q 259 361 252 326 q 270 415 267 396 q 285 424 272 426 q 311 415 298 422 q 333 397 324 407 q 341 381 343 387 q 326 337 335 369 q 306 265 317 306 q 282 177 294 224 q 259 85 270 130 q 274 83 267 83 q 287 83 281 83 q 331 77 331 80 q 296 70 330 74 q 276 68 287 69 q 254 67 265 67 q 232 -29 241 13 q 224 -83 224 -70 z "},"5":{"ha":378,"x_min":-13,"x_max":383,"o":"m 346 507 q 321 510 343 509 q 273 511 300 511 q 220 510 246 511 q 185 504 194 509 q 143 449 165 494 q 109 353 120 404 q 106 261 98 302 q 157 220 115 220 q 212 225 180 220 q 275 231 244 230 q 328 225 306 231 q 352 198 350 219 q 344 127 354 174 q 309 32 335 80 q 239 -50 283 -15 q 124 -85 194 -85 q 60 -69 98 -85 q 4 -24 22 -52 q -7 -4 -13 -2 q 15 -15 -2 -6 q 119 -54 72 -52 q 198 -31 165 -56 q 253 41 231 -6 q 283 146 274 87 q 290 181 287 169 q 290 200 293 194 q 278 206 287 206 q 250 204 269 206 q 212 198 230 200 q 167 196 194 196 q 90 219 119 196 q 65 287 61 241 q 91 427 65 357 q 143 537 117 496 q 180 565 154 556 q 238 577 206 574 q 306 579 270 580 q 374 578 343 578 q 381 567 383 578 q 373 542 380 556 q 358 517 367 528 q 346 507 350 506 z "},"6":{"ha":426,"x_min":-2,"x_max":426,"o":"m 409 578 q 422 569 419 578 q 426 548 426 559 q 423 528 426 537 q 419 519 420 519 q 285 472 352 513 q 164 370 219 431 q 74 237 109 309 q 37 96 39 165 q 67 -14 35 28 q 163 -56 98 -56 q 247 -26 213 -56 q 297 45 281 4 q 310 133 313 87 q 287 213 307 180 q 229 260 267 246 q 133 250 191 274 q 140 263 131 252 q 180 278 148 274 q 269 259 233 283 q 323 194 306 235 q 338 106 341 154 q 314 15 335 57 q 251 -56 293 -28 q 148 -85 209 -85 q 42 -40 81 -85 q 0 83 2 6 q 31 252 -2 167 q 119 407 63 337 q 251 524 176 478 q 409 578 326 570 z "},"7":{"ha":283,"x_min":7,"x_max":313,"o":"m 17 246 q 85 281 48 269 q 161 296 122 293 l 165 296 q 182 398 174 350 q 198 483 191 446 q 203 520 204 509 q 169 526 202 531 q 121 519 144 524 q 80 510 98 515 q 48 501 61 506 q 33 496 35 496 q 25 504 30 494 q 19 525 20 513 q 18 548 17 537 q 28 561 19 559 q 121 577 74 574 q 213 578 169 580 q 261 569 246 576 q 278 548 276 561 q 275 518 280 535 q 265 481 270 500 q 244 399 256 446 q 219 298 231 352 l 243 298 q 280 297 267 298 q 298 294 293 296 q 306 290 304 293 q 307 285 307 287 q 311 266 309 274 q 309 252 313 257 q 209 263 263 259 q 168 81 187 169 q 139 -52 148 -6 q 124 -86 131 -83 q 119 -63 117 -89 q 124 -6 120 -41 q 133 71 128 28 q 145 164 139 115 q 159 263 152 213 q 88 256 124 261 q 20 239 52 250 q 8 234 9 233 q 17 246 7 235 z "},"8":{"ha":431,"x_min":7,"x_max":420,"o":"m 289 578 q 388 540 356 578 q 420 456 420 502 q 390 362 420 407 q 302 300 359 317 l 302 298 l 307 298 q 309 300 309 300 q 388 231 361 280 q 415 130 415 183 q 398 52 415 91 q 351 -18 381 13 q 278 -67 320 -48 q 185 -81 235 -85 q 107 -65 141 -80 q 52 -26 74 -50 q 19 27 30 -2 q 7 87 7 56 q 19 154 7 120 q 54 218 31 187 q 108 272 76 248 q 181 311 141 296 q 134 368 150 337 q 119 428 119 398 q 131 484 119 457 q 167 532 144 511 q 220 566 189 554 q 289 578 252 578 m 185 -54 q 266 -44 230 -59 q 327 1 302 -28 q 366 67 352 30 q 380 141 380 104 q 347 238 380 194 q 254 291 315 281 q 187 277 222 293 q 124 232 152 261 q 79 163 96 204 q 63 76 61 122 q 99 -14 67 20 q 185 -54 131 -48 m 391 417 q 391 453 394 433 q 377 489 387 472 q 352 518 367 506 q 317 531 337 530 q 210 500 248 539 q 176 406 172 461 q 206 331 180 356 q 269 307 233 307 q 341 335 306 307 q 391 417 376 363 z "},"9":{"ha":348,"x_min":-6,"x_max":352,"o":"m 280 272 q 180 196 231 217 q 86 188 128 176 q 19 244 44 200 q 2 357 -6 287 q 21 438 4 398 q 67 510 39 478 q 131 561 94 543 q 211 578 169 580 q 320 519 289 572 q 348 388 352 465 q 314 223 344 311 q 239 64 283 135 q 144 -51 194 -7 q 52 -83 94 -94 q 32 -74 35 -80 q 54 -65 30 -69 q 130 -23 93 -59 q 196 62 167 13 q 245 164 226 111 q 270 257 265 217 l 280 272 m 280 307 q 293 431 302 383 q 256 500 283 478 q 193 520 230 522 q 120 498 156 519 q 59 439 85 478 q 30 348 33 400 q 50 240 24 272 q 116 207 76 207 q 201 235 156 207 q 280 307 246 263 z "},"B":{"ha":487,"x_min":-72,"x_max":469,"o":"m 163 570 q 188 583 169 583 q 224 574 207 583 q 310 579 267 580 q 388 567 354 578 q 444 531 422 556 q 469 465 467 506 q 452 395 469 428 q 407 336 435 363 q 345 287 380 309 q 280 252 311 265 q 359 224 328 244 q 407 176 391 204 q 428 116 424 148 q 424 54 431 83 q 356 -56 407 -11 q 236 -120 304 -100 q 97 -135 169 -141 q -26 -93 26 -130 q -52 -69 -41 -81 q -68 -49 -63 -57 q -67 -41 -72 -41 q -44 -54 -61 -41 q 82 -106 15 -98 q 210 -97 150 -115 q 315 -39 270 -80 q 372 57 359 2 q 374 116 378 83 q 355 175 370 148 q 309 218 339 202 q 233 228 280 233 q 213 224 228 228 q 181 216 198 220 q 144 206 163 211 q 109 196 124 202 q 75 65 85 119 q 65 -4 65 11 q 52 -27 65 -24 q 37 -7 39 -30 q 44 96 37 41 q 57 185 50 152 l 39 180 q 33 185 35 180 q 31 199 31 191 q 33 215 31 207 q 43 222 35 222 l 67 226 q 105 372 83 296 q 143 502 126 448 q 94 487 115 494 q 59 474 72 480 q 58 482 59 474 q 58 502 57 491 q 63 524 59 513 q 74 539 67 535 q 112 551 89 544 q 161 563 135 557 q 163 570 161 569 m 187 250 q 234 265 194 250 q 319 307 274 280 q 396 373 363 335 q 424 454 430 411 q 403 495 420 480 q 359 518 385 511 q 300 524 333 524 q 231 519 267 524 q 211 471 224 502 q 183 403 198 441 q 153 321 169 365 q 122 235 137 278 l 187 250 z "},"C":{"ha":387,"x_min":-13,"x_max":437,"o":"m 406 481 q 378 523 404 513 q 333 531 352 533 q 222 481 274 526 q 132 372 170 437 q 72 232 94 307 q 52 93 50 157 q 81 -16 54 28 q 167 -61 107 -59 q 245 -45 211 -63 q 306 2 280 -28 q 353 69 333 31 q 389 141 372 106 q 406 154 398 161 q 409 131 415 146 q 386 81 404 119 q 337 4 369 43 q 259 -63 306 -35 q 152 -83 213 -91 q 32 -24 70 -76 q -9 102 -6 28 q 12 259 -13 176 q 82 413 37 343 q 190 531 128 483 q 322 578 252 578 q 381 570 357 578 q 430 544 406 563 q 434 525 437 539 q 425 498 431 511 q 412 479 419 485 q 406 481 406 472 z "},"D":{"ha":700,"x_min":7,"x_max":696,"o":"m 281 539 q 331 555 302 546 q 391 569 359 563 q 393 570 393 569 q 416 582 398 581 q 448 576 433 583 q 521 575 485 578 q 588 560 557 572 q 642 525 619 548 q 676 465 665 502 q 681 305 696 398 q 619 124 667 211 q 490 -24 570 37 q 298 -87 409 -85 q 167 -68 233 -87 q 46 -6 100 -48 q 22 19 31 6 q 10 42 13 33 q 12 50 7 50 q 31 35 17 50 q 78 -2 50 15 q 138 -31 106 -19 q 206 -50 170 -43 q 276 -57 243 -57 q 412 -26 354 -57 q 512 55 470 6 q 580 163 554 104 q 618 279 606 222 q 629 383 630 335 q 617 457 628 431 q 555 512 596 498 q 463 522 513 526 q 432 452 452 500 q 392 345 413 404 q 349 225 370 287 q 316 112 328 163 q 302 28 304 61 q 317 -6 300 -6 q 333 -19 335 -6 q 311 -28 331 -33 q 275 3 281 -19 q 272 74 269 24 q 283 169 272 113 q 310 287 294 226 q 344 407 326 348 q 374 509 361 467 q 311 491 339 500 q 267 474 283 481 q 266 482 267 474 q 266 502 265 491 q 270 524 267 513 q 281 539 274 535 z "},"E":{"ha":511,"x_min":0,"x_max":700,"o":"m 198 274 q 315 320 246 307 q 345 430 330 376 q 376 535 361 483 q 194 507 270 543 q 76 414 117 472 q 36 284 35 356 q 91 150 37 213 q 105 133 98 141 q 112 123 111 126 q 106 125 113 120 q 81 146 100 130 q 6 282 11 207 q 40 423 0 357 q 158 533 80 489 q 335 578 237 578 q 462 574 407 578 q 558 569 517 570 q 631 572 600 567 q 683 594 661 578 q 693 592 689 600 q 698 570 696 583 q 699 544 700 557 q 694 526 698 531 q 642 516 676 517 q 570 518 607 515 q 502 525 533 520 q 459 533 470 530 q 421 447 443 502 q 380 326 400 393 l 424 326 q 461 325 448 326 q 480 322 474 324 q 487 318 485 320 q 489 313 489 315 q 493 294 491 302 q 491 280 494 285 q 369 291 431 291 q 337 167 352 230 q 313 44 322 104 q 325 -44 307 -22 q 365 -61 343 -65 q 407 -35 387 -56 q 446 11 428 -15 q 481 68 465 37 q 509 126 496 98 q 531 145 522 154 q 531 117 541 137 q 451 -24 493 33 q 354 -81 409 -81 q 289 -51 306 -81 q 269 50 272 -20 q 282 173 272 115 q 307 287 293 231 q 254 280 280 283 q 202 267 228 276 q 190 262 191 261 q 198 274 189 263 z "},"F":{"ha":513,"x_min":-11,"x_max":896,"o":"m 239 259 q 306 292 267 280 q 381 307 344 304 q 412 432 396 372 q 443 535 428 493 l 443 539 q 390 544 419 541 q 324 546 361 546 q 220 543 274 546 q 122 526 167 539 q 48 488 78 513 q 17 420 19 463 q 44 348 13 376 q 115 320 74 320 q 163 330 137 320 q 212 356 189 339 q 254 400 235 374 q 283 461 272 426 q 295 469 285 469 q 316 468 306 470 q 335 459 326 465 q 344 450 344 454 q 317 394 339 420 q 264 346 294 367 q 196 314 233 326 q 124 302 159 302 q 74 308 98 302 q 31 328 50 315 q 0 362 11 341 q -9 415 -11 383 q 21 497 -6 465 q 90 548 48 530 q 182 574 131 567 q 284 582 233 581 q 381 581 335 583 q 457 576 426 578 q 564 567 504 572 q 683 561 624 561 q 794 568 743 561 q 872 594 844 574 q 885 594 880 600 q 894 577 891 587 q 896 555 896 567 q 894 535 896 543 q 863 516 889 522 q 799 507 837 509 q 718 506 761 506 q 634 510 674 507 q 564 517 594 513 q 522 524 533 520 q 496 455 519 515 q 446 311 474 394 l 476 311 q 512 310 500 311 q 530 307 524 309 q 537 303 535 306 q 539 298 539 300 q 543 265 544 274 q 435 276 491 272 q 398 155 415 215 q 371 45 381 94 q 362 -34 361 -4 q 380 -65 363 -65 q 411 -50 393 -65 q 447 -11 430 -35 q 482 41 465 13 q 515 96 500 69 q 529 97 530 107 q 515 59 528 87 q 487 9 504 35 q 452 -38 470 -17 q 413 -72 433 -59 q 372 -83 393 -85 q 329 -56 341 -81 q 324 7 317 -30 q 342 126 328 56 q 374 274 356 196 q 306 267 341 272 q 243 252 272 261 q 223 247 224 246 q 239 259 222 248 z "},"G":{"ha":502,"x_min":22,"x_max":498,"o":"m 176 200 q 250 234 207 222 q 331 250 293 246 q 375 252 350 252 q 413 252 400 252 q 450 251 437 252 q 469 248 463 250 q 475 244 474 246 q 478 239 476 241 q 481 219 480 228 q 480 206 481 211 l 439 211 q 443 172 454 200 q 423 116 433 150 q 403 44 413 81 q 383 -31 393 6 q 370 -91 374 -67 q 373 -135 363 -131 q 396 -131 383 -139 q 419 -113 409 -122 q 420 -119 428 -104 q 394 -146 407 -139 q 368 -151 380 -154 q 346 -135 356 -148 q 335 -104 337 -122 q 340 -14 331 -63 q 363 89 348 35 q 326 24 346 56 q 281 -32 306 -7 q 226 -72 256 -57 q 163 -83 196 -87 q 55 -22 87 -78 q 24 110 22 33 q 56 274 26 187 q 136 432 87 361 q 248 546 185 504 q 378 578 311 589 q 468 523 437 567 q 467 398 498 480 q 453 382 463 385 q 432 382 443 380 q 414 390 422 385 q 407 398 406 394 q 443 503 452 463 q 385 546 433 543 q 276 505 330 548 q 181 393 222 461 q 111 244 139 324 q 80 96 83 165 q 98 -19 76 28 q 178 -65 120 -65 q 249 -31 217 -65 q 308 46 281 2 q 355 137 335 91 q 389 209 374 183 q 393 215 389 211 q 371 217 381 217 q 352 217 361 217 q 265 211 309 217 q 181 193 220 206 q 160 188 161 187 q 176 200 159 189 z "},"H":{"ha":693,"x_min":-9,"x_max":744,"o":"m 376 517 q 389 526 378 528 q 411 515 400 524 q 431 491 422 506 q 437 459 439 476 q 431 431 433 444 q 424 401 428 419 q 413 356 420 383 q 393 283 406 328 q 471 285 422 287 q 557 283 520 283 q 572 331 565 307 q 588 383 580 354 q 608 453 596 413 q 641 550 620 493 q 678 526 661 550 q 694 483 694 502 q 691 479 693 480 q 689 474 689 478 q 680 452 685 465 q 665 418 674 439 q 643 364 656 396 q 613 281 630 331 q 650 277 630 280 q 688 270 670 274 q 718 264 706 267 q 733 261 730 261 q 742 242 743 256 q 737 222 741 228 q 681 240 719 231 q 607 248 643 248 q 577 96 583 163 q 576 -17 570 30 q 596 -89 581 -63 q 628 -119 611 -115 q 700 -57 665 -126 q 710 -56 702 -54 q 727 -63 719 -57 q 740 -77 735 -69 q 739 -94 744 -85 q 688 -136 720 -124 q 624 -144 656 -148 q 558 -98 581 -139 q 529 1 535 -57 q 529 128 522 59 q 552 257 535 196 q 510 259 544 259 q 383 257 476 259 q 341 142 367 196 q 283 47 315 87 q 215 -13 252 7 q 137 -24 178 -33 q 60 17 100 -15 q 7 87 20 48 q 14 179 -9 143 q 84 237 37 215 q 196 269 131 259 q 330 283 261 280 q 347 347 341 320 q 358 399 354 374 q 367 452 363 424 q 376 517 370 480 m 48 96 q 82 21 56 46 q 131 -6 109 -4 q 187 11 159 -9 q 240 68 215 31 q 286 153 265 104 q 322 257 307 202 q 97 217 161 252 q 48 96 33 181 z "},"I":{"ha":157,"x_min":-30,"x_max":172,"o":"m 59 467 q 85 480 65 480 q 90 537 89 506 q 94 572 91 569 q 112 581 100 580 q 135 579 124 581 q 155 571 146 576 q 163 561 163 567 q 144 519 161 546 q 111 472 128 493 q 130 456 124 467 q 126 437 135 446 q 106 393 120 431 q 74 298 91 354 q 43 180 57 243 q 20 64 28 117 q 16 -24 13 11 q 39 -59 19 -59 q 84 -17 54 -59 q 148 98 115 26 q 166 111 159 120 q 161 80 172 102 q 135 28 150 57 q 104 -28 120 -2 q 67 -70 87 -54 q 24 -83 46 -87 q -20 -46 -11 -78 q -24 37 -30 -15 q -8 146 -19 81 q 15 274 2 211 q 39 391 28 337 q 59 467 50 444 z "},"J":{"ha":369,"x_min":28,"x_max":630,"o":"m 89 -63 q 38 28 48 -31 q 47 146 28 87 q 114 250 67 206 q 237 294 161 294 q 266 293 272 294 q 239 287 259 291 q 139 247 178 283 q 82 163 100 211 q 70 62 65 115 q 106 -28 76 9 q 146 -56 130 -59 q 183 -28 163 -54 q 226 58 206 2 q 263 182 246 115 q 291 319 280 250 q 306 439 302 387 q 171 417 231 424 q 93 426 111 409 q 92 469 76 441 q 144 526 107 498 q 229 572 180 554 q 326 583 278 591 q 347 579 335 583 q 369 566 359 574 q 382 543 378 557 q 381 509 387 528 q 381 503 380 507 q 381 493 381 498 q 517 523 452 511 q 617 528 581 535 q 625 515 622 526 q 629 492 628 504 q 628 469 630 480 q 619 461 626 459 q 506 468 570 474 q 372 450 443 461 q 350 324 365 400 q 313 170 335 248 q 264 28 291 93 q 204 -65 237 -37 q 146 -83 178 -85 q 89 -63 115 -81 m 309 535 q 233 526 270 537 q 168 499 196 515 q 122 468 139 483 q 109 446 106 452 q 173 444 117 431 q 307 476 230 456 q 309 535 313 528 z "},"K":{"ha":452,"x_min":-6,"x_max":557,"o":"m 120 513 q 142 525 126 524 q 173 520 157 526 q 199 504 189 515 q 202 481 209 493 q 186 446 198 476 q 158 373 174 417 q 125 276 143 330 q 93 170 107 222 q 153 131 117 131 q 229 155 189 130 q 309 227 269 180 q 384 331 350 274 q 442 452 419 389 q 470 572 465 515 q 481 580 470 580 q 503 576 491 580 q 525 564 515 572 q 533 548 535 556 q 491 397 530 481 q 393 242 452 313 q 261 130 333 170 q 119 111 189 89 q 180 8 143 61 q 260 -87 217 -44 q 349 -156 304 -130 q 437 -183 394 -183 q 485 -176 465 -183 q 511 -169 506 -169 q 520 -172 513 -169 q 535 -182 528 -176 q 549 -197 543 -189 q 557 -213 556 -206 q 531 -237 557 -228 q 461 -246 506 -246 q 335 -210 393 -246 q 231 -121 278 -174 q 150 -7 185 -69 q 91 102 115 54 q 84 118 85 115 q 78 120 83 120 q 52 -8 57 44 q 69 -61 46 -61 q 85 -75 87 -61 q 63 -83 83 -89 q 25 -54 33 -74 q 20 17 17 -33 q 22 70 19 41 q 33 135 26 100 l 20 143 l 22 143 q 3 167 11 152 q -6 194 -6 181 q -4 209 -6 200 q 2 229 -2 219 q 14 246 6 239 q 35 254 22 254 l 57 252 q 94 409 76 335 q 120 513 113 483 z "},"L":{"ha":391,"x_min":4,"x_max":1030,"o":"m 217 17 q 266 -2 233 11 q 342 -31 298 -15 q 437 -62 385 -46 q 544 -91 489 -78 q 727 -116 650 -113 q 858 -109 804 -119 q 946 -81 913 -100 q 998 -41 980 -61 q 1011 -44 1004 -35 q 1024 -65 1019 -52 q 1030 -93 1030 -78 q 1017 -115 1030 -107 q 928 -147 981 -137 q 809 -157 874 -157 q 670 -148 744 -157 q 522 -122 596 -139 q 420 -94 469 -111 q 331 -61 372 -78 q 258 -30 291 -44 q 204 -7 226 -15 q 148 -76 181 -44 q 70 -107 115 -107 q 22 -86 41 -107 q 4 -33 4 -65 q 30 15 4 -7 q 107 37 56 37 q 137 35 122 37 q 169 30 152 33 q 219 144 193 76 q 268 284 246 213 q 303 419 289 356 q 317 520 317 483 q 303 545 317 546 q 272 528 289 544 q 242 486 256 511 q 228 437 228 461 q 227 426 230 426 q 220 432 224 426 q 214 450 217 439 q 211 470 211 461 q 221 513 211 493 q 245 548 231 533 q 276 571 259 563 q 306 580 293 580 q 362 560 337 578 q 381 507 387 543 q 360 412 376 476 q 321 275 344 348 q 270 131 298 202 q 217 17 243 61 m 154 4 l 115 11 q 64 3 87 15 q 30 -26 41 -9 q 24 -57 19 -43 q 57 -72 30 -72 q 85 -64 70 -72 q 113 -44 100 -56 q 137 -19 126 -31 q 154 4 148 -6 z "},"M":{"ha":693,"x_min":-6,"x_max":719,"o":"m 543 320 q 456 168 489 237 q 400 43 424 98 q 387 23 393 26 q 377 25 381 20 q 371 39 372 30 q 374 59 370 48 q 384 105 378 70 q 397 182 391 139 q 411 274 404 226 q 424 365 419 322 q 430 450 433 426 q 416 472 426 474 q 391 450 406 470 q 361 402 376 430 q 334 347 346 374 q 319 306 322 320 l 274 165 q 301 147 293 157 q 300 141 309 137 q 283 145 291 144 q 269 148 276 146 q 215 15 243 76 q 163 -67 187 -46 q 104 -86 135 -89 q 46 -67 72 -83 q 2 -1 9 -41 q 16 76 -6 39 q 89 140 37 113 q 224 169 141 167 q 250 273 239 220 q 265 369 261 326 q 264 443 269 413 q 244 478 259 472 q 207 469 226 485 q 173 429 189 454 q 145 379 157 404 q 131 343 133 354 q 119 333 128 331 q 101 344 111 335 q 84 363 91 352 q 78 380 78 374 q 97 418 80 393 q 141 466 115 443 q 197 506 167 489 q 256 524 228 524 q 294 500 287 524 q 300 435 300 476 q 300 398 300 415 q 298 369 300 381 l 300 369 q 336 447 319 409 q 370 516 354 485 q 403 565 387 546 q 431 583 419 583 q 477 567 454 583 q 500 526 500 550 l 500 511 q 488 466 496 500 q 470 387 480 431 q 451 295 461 343 q 433 209 441 248 q 561 415 511 337 q 637 504 611 493 q 658 505 646 509 q 680 492 670 500 q 695 472 689 483 q 700 452 702 461 l 685 430 l 685 428 q 664 380 680 419 q 629 287 648 341 q 591 172 609 233 q 562 60 572 111 q 553 -24 552 9 q 574 -57 554 -57 q 600 -41 585 -57 q 630 3 615 -24 q 659 62 644 30 q 685 126 674 94 q 706 142 694 150 q 707 111 719 133 q 681 56 696 89 q 648 -9 667 22 q 607 -62 630 -41 q 559 -81 585 -83 q 515 -46 524 -80 q 511 39 506 -13 q 535 171 517 94 q 580 331 554 248 q 602 410 606 411 q 543 320 598 409 m 41 -35 q 87 -57 63 -63 q 135 -24 111 -52 q 181 49 159 4 q 219 148 202 94 q 134 121 174 143 q 69 72 94 100 q 33 15 43 44 q 41 -35 24 -15 z "},"N":{"ha":552,"x_min":7,"x_max":589,"o":"m 291 281 q 334 369 309 326 q 385 449 359 413 q 433 514 411 485 q 470 559 456 543 q 500 574 480 570 q 541 573 520 578 q 575 556 561 569 q 585 520 589 543 l 519 339 q 498 283 511 320 q 471 203 485 246 q 445 112 457 159 q 426 27 433 65 q 419 -35 419 -11 q 433 -59 420 -59 q 466 -40 448 -59 q 501 9 483 -20 q 534 74 519 39 q 563 141 550 109 q 574 150 565 150 q 580 143 580 150 q 568 88 580 126 q 535 11 556 50 q 488 -57 515 -28 q 431 -87 461 -87 q 397 -57 406 -87 q 389 0 389 -28 q 398 110 389 50 q 421 230 407 170 q 450 342 435 289 q 476 430 465 394 q 483 469 485 457 q 473 479 481 480 q 453 469 465 478 q 431 446 441 459 q 356 340 398 402 q 274 194 315 278 l 267 170 q 284 157 281 163 q 278 156 287 152 q 263 159 267 159 q 221 60 243 104 q 172 -6 200 17 q 113 -25 144 -28 q 56 -6 81 -22 q 13 59 19 20 q 28 131 7 98 q 96 182 48 165 q 217 185 144 200 q 251 343 239 265 q 261 457 263 420 q 258 496 259 478 q 248 519 257 515 q 210 508 230 526 q 173 465 191 491 q 143 412 156 439 q 128 374 130 385 q 116 365 124 363 q 97 375 107 367 q 81 394 87 383 q 74 411 74 406 q 94 449 76 424 q 137 497 111 474 q 194 538 163 520 q 252 556 224 556 q 313 480 313 556 q 305 373 309 420 q 291 281 300 326 m 52 28 q 98 -1 76 -2 q 141 22 120 0 q 179 82 161 44 q 211 167 196 120 q 130 155 167 169 q 69 119 93 141 q 40 73 46 98 q 52 28 33 48 z "},"O":{"ha":513,"x_min":9,"x_max":546,"o":"m 520 272 q 543 274 539 280 q 515 254 546 269 q 485 240 500 246 q 456 228 470 233 q 452 206 454 217 q 446 187 450 196 q 338 -18 407 59 q 170 -87 269 -94 q 91 -56 122 -83 q 44 16 59 -28 q 28 112 28 59 q 41 217 28 165 q 22 252 24 231 q 24 355 9 302 q 71 454 39 407 q 150 532 104 500 q 248 576 196 565 q 353 563 309 587 q 424 492 396 539 q 461 381 452 444 q 461 254 470 319 q 491 262 476 257 q 520 272 506 267 m 254 524 q 185 495 222 519 q 117 438 148 472 q 67 359 85 404 q 54 269 48 315 l 54 261 q 108 357 74 315 q 189 420 143 400 q 217 422 202 426 q 243 409 231 419 q 261 387 254 400 q 269 363 269 374 q 262 366 261 359 q 248 372 263 372 q 165 328 204 372 q 100 220 126 283 q 222 209 144 206 q 398 237 300 213 q 401 347 404 293 q 382 444 398 402 q 335 508 367 485 q 254 524 304 531 m 389 178 l 393 204 q 221 169 302 174 q 89 185 141 165 q 72 97 76 141 q 77 18 69 54 q 108 -42 85 -19 q 170 -67 131 -65 q 244 -49 209 -69 q 307 4 280 -30 q 356 82 335 37 q 389 178 378 128 z "},"P":{"ha":365,"x_min":15,"x_max":456,"o":"m 148 570 q 177 582 156 585 q 215 570 198 580 q 300 574 257 576 q 377 560 343 572 q 432 522 411 548 q 456 452 454 496 q 420 342 456 389 q 330 259 385 294 q 209 198 274 224 q 87 152 144 172 q 65 69 74 107 q 51 3 56 31 q 49 -42 46 -26 q 63 -57 52 -57 q 80 -73 81 -57 q 57 -83 78 -89 q 21 -54 28 -74 q 19 17 15 -33 q 31 114 19 54 q 59 242 43 174 q 94 376 76 309 q 126 493 111 443 q 37 461 65 476 q 36 470 37 461 q 37 492 35 480 q 42 516 39 504 q 52 531 44 528 q 93 544 69 537 q 144 557 117 552 q 148 570 144 563 m 411 443 q 390 486 407 470 q 345 509 372 502 q 284 517 319 517 q 215 511 250 517 q 192 455 206 489 q 163 379 178 420 q 131 290 148 337 q 100 196 115 243 q 208 228 152 204 q 310 285 265 252 q 384 359 356 319 q 411 443 413 400 z "},"Q":{"ha":565,"x_min":72,"x_max":539,"o":"m 409 -39 q 498 -37 457 -56 q 506 -43 506 -33 q 502 -64 506 -52 q 491 -87 498 -76 q 474 -98 483 -98 q 433 -94 456 -102 q 383 -72 411 -85 l 348 -52 q 220 -87 287 -93 q 142 -56 172 -83 q 98 15 111 -28 q 89 109 85 57 q 109 213 93 161 q 89 252 94 231 q 85 355 72 300 q 132 456 98 409 q 219 537 167 504 q 333 576 270 570 q 448 548 402 581 q 517 458 494 515 q 537 331 539 402 q 511 187 535 259 q 453 62 485 117 q 380 -28 420 7 l 409 -39 m 257 170 q 152 183 198 165 q 131 95 137 139 q 132 17 126 52 q 161 -42 139 -19 q 222 -67 183 -65 q 319 -33 270 -69 q 262 -5 287 -15 q 228 0 237 6 q 210 4 217 -7 q 215 20 204 15 q 270 17 239 31 q 341 -15 302 2 q 403 69 376 19 q 446 178 430 120 q 469 384 481 307 q 419 495 457 461 q 329 525 381 530 q 228 488 276 520 q 148 398 180 456 q 122 269 117 341 q 123 261 122 265 q 124 254 124 257 q 188 351 150 307 q 278 420 226 394 q 305 422 293 426 q 325 409 317 419 q 338 387 333 400 q 343 363 343 374 q 335 366 333 359 q 322 372 337 372 q 231 324 274 372 q 163 209 189 276 q 201 195 178 202 q 257 183 224 189 q 279 176 270 180 q 257 170 287 172 z "},"R":{"ha":431,"x_min":9,"x_max":620,"o":"m 144 570 q 173 582 152 585 q 211 570 194 580 q 296 574 254 576 q 373 560 339 572 q 429 522 407 548 q 452 452 450 496 q 419 340 452 391 q 333 252 385 289 q 219 190 281 215 q 96 157 156 165 q 226 36 152 93 q 372 -56 300 -20 q 505 -97 444 -91 q 593 -67 565 -104 q 602 -72 594 -65 q 615 -91 609 -80 q 620 -114 620 -102 q 607 -131 620 -126 q 472 -139 544 -157 q 328 -77 400 -120 q 190 26 256 -33 q 74 141 124 85 q 53 38 57 78 q 69 0 48 -2 q 85 -17 87 0 q 63 -28 83 -33 q 27 3 33 -19 q 24 74 20 24 q 33 148 24 102 l 17 144 q 11 150 13 144 q 9 164 9 156 q 11 180 9 172 q 20 187 13 187 l 43 191 q 44 199 43 194 q 46 211 44 204 q 83 359 61 283 q 122 493 106 435 q 33 461 61 476 q 32 470 33 461 q 33 492 31 480 q 38 516 35 504 q 48 531 41 528 q 141 557 81 546 l 144 570 m 407 443 q 386 486 404 470 q 341 509 369 502 q 279 517 313 517 q 209 511 244 517 q 185 454 200 489 q 154 376 170 419 q 120 287 137 333 q 91 196 104 241 q 199 219 143 196 q 303 278 256 243 q 380 356 350 313 q 407 443 409 400 z "},"S":{"ha":587,"x_min":7,"x_max":633,"o":"m 230 -28 q 323 25 287 -4 q 381 83 359 54 q 414 141 402 113 q 435 194 426 169 q 277 181 350 191 q 150 151 204 170 q 66 104 96 131 q 35 39 35 76 q 62 -23 35 6 q 135 -52 89 -52 q 230 -28 172 -52 m 420 272 q 345 264 394 269 q 246 262 296 259 q 156 280 196 265 q 111 333 117 294 q 138 422 104 378 q 225 501 172 467 q 336 557 278 535 q 437 580 394 580 q 500 567 489 580 q 519 533 511 554 q 517 488 526 511 q 491 445 507 465 q 455 414 474 426 q 420 402 435 402 q 394 416 411 402 q 376 446 376 430 q 385 459 376 457 q 436 481 419 472 q 469 504 454 489 q 482 538 489 522 q 450 554 476 554 q 338 525 389 548 q 250 473 287 502 q 193 414 213 444 q 172 365 172 383 q 221 309 172 328 q 354 291 270 291 q 394 293 374 291 q 437 294 415 294 q 504 244 504 294 q 504 232 504 239 q 502 220 504 226 q 535 216 509 220 q 586 206 561 211 q 622 196 611 202 q 609 187 633 191 q 565 191 591 183 q 513 198 539 198 l 498 198 q 464 112 491 161 q 392 19 437 63 q 285 -57 346 -26 q 150 -89 224 -89 q 45 -52 83 -89 q 7 35 7 -15 q 114 172 7 124 q 443 220 220 220 q 444 243 444 228 q 420 272 444 272 z "},"T":{"ha":550,"x_min":11,"x_max":1007,"o":"m 465 539 q 412 544 441 541 q 346 546 383 546 q 243 543 296 546 q 144 526 189 539 q 70 488 100 513 q 39 420 41 463 q 66 348 35 376 q 137 320 96 320 q 185 330 159 320 q 234 356 211 339 q 276 400 257 374 q 306 461 294 426 q 318 469 307 469 q 338 468 328 470 q 357 459 348 465 q 367 450 367 454 q 339 394 361 420 q 286 346 317 367 q 219 314 256 326 q 146 302 181 302 q 96 308 120 302 q 53 328 72 315 q 22 362 33 341 q 13 415 11 383 q 68 524 19 489 q 187 570 117 559 q 336 577 257 581 q 480 567 415 572 q 596 556 530 561 q 732 552 663 552 q 869 560 802 552 q 989 591 937 569 q 998 584 994 593 q 1005 564 1002 576 q 1006 540 1007 552 q 1002 524 1006 528 q 953 504 989 509 q 869 496 917 498 q 770 497 822 494 q 671 505 719 500 q 590 515 624 509 q 544 524 556 520 q 526 470 543 517 q 486 359 509 424 q 440 219 463 294 q 402 81 417 144 q 384 -23 387 19 q 402 -65 381 -65 q 437 -41 415 -65 q 481 17 459 -17 q 525 84 504 50 q 557 139 546 119 q 570 142 567 154 q 559 102 574 130 q 527 44 546 76 q 484 -19 507 11 q 438 -67 461 -48 q 394 -83 415 -85 q 351 -56 363 -81 q 346 7 339 -30 q 365 123 352 54 q 395 268 378 193 q 431 414 413 343 q 465 535 450 485 l 465 539 z "},"U":{"ha":606,"x_min":6,"x_max":644,"o":"m 19 431 q 77 483 37 454 q 156 533 117 513 q 217 562 185 548 q 280 576 248 576 q 330 555 306 576 q 343 506 354 533 q 303 407 326 465 q 257 287 280 350 q 217 163 235 224 q 191 54 198 102 q 189 -24 183 6 q 222 -52 194 -54 q 303 -13 265 -50 q 374 80 341 24 q 437 201 407 135 q 494 324 467 267 l 543 483 q 556 493 544 491 q 581 491 569 494 q 605 480 594 487 q 615 461 615 472 l 615 454 q 589 398 609 446 q 546 286 569 350 q 506 158 524 222 q 489 57 489 94 q 504 28 489 28 q 532 40 517 28 q 564 72 548 52 q 594 119 580 93 q 620 172 609 144 q 635 185 626 185 q 643 174 644 185 q 623 122 639 154 q 586 63 607 91 q 540 16 565 35 q 491 0 515 -4 q 460 22 469 4 q 452 67 452 41 q 453 106 452 83 q 459 154 454 128 q 410 72 433 115 q 362 -6 387 30 q 309 -66 337 -43 q 248 -89 281 -89 q 196 -79 220 -89 q 157 -49 172 -69 q 136 -5 143 -30 q 137 52 130 20 q 154 136 143 89 q 179 233 165 183 q 208 332 193 283 q 241 422 224 381 q 259 471 250 446 q 267 511 269 496 q 246 528 265 526 q 183 511 228 530 q 103 472 146 494 q 28 424 59 450 q 7 414 9 413 q 19 431 6 415 z "},"V":{"ha":431,"x_min":-69,"x_max":504,"o":"m 430 563 q 443 578 430 574 q 469 580 456 581 q 494 569 483 578 q 498 548 504 561 q 419 354 465 454 q 328 168 372 254 q 246 19 283 81 q 193 -65 209 -43 q 151 -81 169 -91 q 133 -50 133 -70 q 139 -28 133 -33 q 184 149 167 56 q 207 356 202 243 q 191 461 209 424 q 144 509 172 498 q 85 507 117 520 q 31 465 54 494 q -3 389 7 435 q 2 287 -13 343 q -7 277 4 280 q -32 277 -19 274 q -57 289 -46 280 q -67 317 -69 298 q -17 463 -59 406 q 87 528 26 520 q 214 481 172 543 q 246 283 256 420 q 232 149 246 220 q 200 0 219 78 q 256 104 224 41 q 320 242 289 167 q 381 399 352 317 q 430 563 409 481 z "},"W":{"ha":770,"x_min":-100,"x_max":763,"o":"m 493 -87 q 445 -64 463 -81 q 419 -21 428 -46 q 409 31 411 4 q 409 83 407 59 q 383 31 400 61 q 346 -26 367 2 q 302 -72 326 -54 q 256 -91 278 -91 q 177 -51 202 -91 q 147 51 152 -11 q 154 188 143 113 q 183 331 165 263 q 225 454 202 400 q 265 528 248 507 q 47 494 130 544 q -67 348 -35 443 q -76 262 -83 306 q -56 180 -69 219 q -81 205 -70 181 q -95 258 -91 228 q -99 319 -100 289 q -93 369 -98 350 q -44 462 -76 419 q 35 534 -11 506 q 139 573 81 563 q 267 570 196 583 q 326 543 304 563 q 326 494 348 522 q 271 400 296 456 q 229 281 246 344 q 202 156 211 219 q 194 44 193 94 q 209 -37 196 -6 q 250 -69 222 -69 q 295 -45 274 -69 q 336 19 317 -22 q 374 111 356 59 q 413 222 393 163 l 456 385 q 473 397 457 396 q 505 395 489 398 q 531 386 520 393 q 533 376 541 380 q 519 365 526 372 q 509 341 513 357 q 494 281 504 319 q 474 198 483 243 q 458 107 465 154 q 452 23 452 61 q 462 -40 452 -15 q 496 -67 472 -65 q 568 -26 535 -70 q 625 92 600 19 q 666 256 650 165 q 687 443 681 348 q 699 456 687 452 q 725 461 711 461 q 751 456 739 461 q 763 444 763 452 q 753 362 761 415 q 729 248 744 309 q 689 125 713 187 q 635 13 665 63 q 569 -66 606 -37 q 493 -87 533 -94 z "},"X":{"ha":394,"x_min":-111,"x_max":519,"o":"m -74 348 q -74 356 -111 335 q -4 405 -39 376 q 59 465 31 433 q 93 506 76 483 q 124 550 109 528 q 125 554 124 554 q 126 556 126 554 q 145 576 126 569 q 172 583 165 583 q 191 561 193 583 l 183 511 q 177 407 178 474 q 191 235 176 341 q 304 376 254 320 q 389 466 354 431 q 445 516 424 500 q 474 535 467 531 q 502 519 496 531 q 519 494 507 507 q 475 460 513 493 q 387 380 437 428 q 284 277 337 331 q 198 178 231 222 q 203 131 200 152 q 210 92 206 111 q 222 52 215 72 q 243 6 230 31 q 270 -4 246 -2 q 321 -10 294 -6 q 368 -25 348 -15 q 380 -59 387 -35 q 352 -82 374 -78 q 311 -87 330 -87 q 256 -69 281 -81 q 209 -20 230 -57 q 121 -14 161 -15 q 61 -13 81 -13 l 46 -13 q 53 -7 50 -9 q 69 -6 56 -6 q 113 -6 83 -6 q 202 -7 143 -7 q 174 60 183 26 q 156 141 165 94 q 50 46 91 80 q -14 -3 9 13 q -48 -21 -37 -19 q -65 -24 -59 -24 q -30 5 -46 -11 q 9 43 -13 20 q 62 98 31 65 q 141 183 93 131 q 122 351 126 272 q 120 481 119 430 q 96 455 109 470 q 69 428 83 439 q 2 379 39 402 q -74 348 -35 356 m 259 -30 q 283 -57 269 -48 q 313 -67 298 -67 q 341 -64 333 -67 q 346 -57 348 -61 q 338 -50 344 -54 q 324 -44 331 -46 l 259 -30 z "},"Y":{"ha":583,"x_min":4,"x_max":611,"o":"m 446 -207 q 476 -187 459 -207 q 509 -137 493 -167 q 543 -73 526 -107 q 572 -9 559 -39 q 596 8 581 9 q 602 -13 611 7 q 576 -67 593 -30 q 536 -142 559 -104 q 485 -207 513 -180 q 430 -231 457 -235 q 392 -202 400 -228 q 383 -131 383 -176 q 393 -42 383 -100 q 417 72 402 17 q 333 -39 376 11 q 243 -89 291 -89 q 163 -49 183 -89 q 150 52 143 -9 q 163 136 154 89 q 184 233 172 183 q 209 332 196 283 q 235 422 222 381 q 249 471 243 446 q 253 511 256 496 q 232 528 250 526 q 172 511 215 530 q 96 472 137 494 q 24 424 56 450 q 6 414 7 413 q 15 431 4 415 q 72 490 37 463 q 143 533 107 517 q 265 576 200 565 q 286 573 274 578 q 309 559 298 569 q 326 536 320 550 q 326 506 331 522 q 297 413 315 469 q 262 296 280 357 q 230 172 244 235 q 208 58 215 109 q 207 -27 202 7 q 237 -67 213 -61 q 294 -44 261 -72 q 362 35 328 -15 q 430 148 396 85 q 487 276 463 211 l 526 439 q 540 448 528 446 q 565 445 552 450 q 589 433 578 441 q 600 415 600 426 l 600 407 q 586 374 596 402 q 561 306 576 346 q 530 219 546 267 q 496 128 513 172 q 458 6 474 67 q 435 -102 443 -54 q 430 -179 428 -150 q 446 -207 431 -207 z "},"Z":{"ha":517,"x_min":61,"x_max":565,"o":"m 496 -69 q 522 -78 517 -72 q 504 -83 528 -83 q 382 -63 457 -83 q 235 -14 307 -43 q 112 47 163 15 q 61 104 61 80 q 66 115 61 107 q 74 126 70 122 l 81 133 q 115 156 81 133 q 200 214 148 178 q 311 295 252 250 q 421 384 370 341 q 506 465 472 428 q 539 524 539 502 q 505 535 528 531 q 461 539 481 539 q 383 531 426 539 q 298 508 341 522 q 217 479 256 494 q 150 450 178 463 q 137 455 144 446 q 125 474 130 463 q 119 496 120 485 q 120 511 117 507 q 177 534 133 522 q 272 556 220 546 q 370 573 324 567 q 435 580 417 580 q 520 568 483 580 q 563 511 557 556 q 526 442 565 485 q 427 345 487 398 q 296 236 367 293 q 165 131 226 180 q 132 104 139 111 q 146 80 126 96 q 222 35 178 59 q 315 -11 267 11 q 410 -49 363 -33 q 496 -69 457 -65 z "},"a":{"ha":343,"x_min":-39,"x_max":367,"o":"m 187 206 q 202 225 193 215 q 231 230 211 235 q 195 265 226 256 q 137 259 165 274 q 89 220 111 244 q 49 167 67 196 q 20 107 31 137 q 6 54 9 78 q 21 3 -2 11 q 67 20 44 -6 q 125 101 94 50 q 187 206 156 152 m 346 154 q 359 161 352 167 q 363 148 367 156 q 346 99 359 131 q 313 36 333 67 q 266 -13 293 6 q 209 -19 239 -31 q 173 32 181 -7 q 172 109 165 72 q 144 70 161 94 q 106 24 126 46 q 67 -14 87 2 q 30 -24 46 -30 q -12 -2 2 -17 q -30 28 -26 13 q -31 103 -39 61 q -6 183 -24 144 q 40 255 13 222 q 98 302 67 287 q 156 313 128 315 q 206 297 183 311 q 241 263 228 283 q 252 220 254 243 q 263 205 254 211 q 259 169 272 198 q 239 112 248 141 q 226 59 230 83 q 224 19 222 35 q 237 2 226 4 q 265 14 250 0 q 294 51 280 28 q 322 101 309 74 q 346 154 335 128 z "},"b":{"ha":267,"x_min":-30,"x_max":217,"o":"m 130 311 q 167 303 150 313 q 194 276 183 293 q 211 238 206 259 q 217 196 217 217 q 202 114 215 156 q 167 39 189 72 q 112 -13 144 6 q 39 -24 80 -31 q -17 14 -4 -17 q -24 96 -30 44 q -6 196 -19 141 q 20 306 6 252 q 48 404 35 359 q 70 472 61 448 q 86 482 74 483 q 110 473 98 481 q 131 454 122 465 q 135 435 139 443 q 111 379 131 426 q 69 270 91 331 q 130 311 96 307 m 41 0 q 110 39 81 -2 q 151 130 139 80 q 157 221 163 180 q 126 267 152 263 q 86 247 109 269 q 41 189 63 226 q 14 58 19 115 q 41 0 9 2 z "},"c":{"ha":263,"x_min":-30,"x_max":289,"o":"m 172 187 q 194 244 202 220 q 157 270 187 269 q 104 253 128 272 q 62 203 80 233 q 34 135 44 172 q 26 67 24 98 q 42 13 28 35 q 85 -11 56 -9 q 189 35 139 -15 q 270 161 239 85 q 281 165 274 170 q 287 150 289 159 q 244 64 270 102 q 184 2 217 26 q 119 -32 152 -22 q 59 -35 87 -43 q -6 6 15 -26 q -28 78 -26 37 q -15 162 -30 119 q 26 242 0 206 q 88 298 52 278 q 165 313 124 319 q 208 293 194 309 q 222 254 222 276 q 212 207 222 231 q 183 167 202 183 q 172 171 178 161 q 172 187 167 181 z "},"d":{"ha":330,"x_min":-37,"x_max":354,"o":"m 331 154 q 345 161 337 167 q 350 148 354 156 q 333 98 346 131 q 300 34 320 65 q 253 -15 280 4 q 196 -20 226 -33 q 160 28 169 -9 q 157 102 152 65 q 139 67 152 89 q 107 22 126 44 q 69 -14 89 0 q 26 -24 48 -28 q -15 -3 -2 -19 q -31 28 -28 13 q -31 94 -37 54 q -7 177 -24 135 q 33 254 9 219 q 89 304 57 289 q 129 313 107 311 q 167 308 150 315 q 194 287 183 302 q 198 248 204 272 q 233 384 217 320 q 259 476 250 448 q 278 486 265 487 q 303 477 291 485 q 324 458 315 469 q 330 443 333 448 q 307 396 322 431 q 276 313 293 361 q 244 211 259 265 q 219 111 228 157 q 209 34 209 65 q 224 0 209 4 q 252 10 237 -4 q 281 46 267 24 q 309 97 296 69 q 331 154 322 126 m 181 202 q 171 263 193 244 q 113 257 150 281 q 53 184 76 230 q 17 87 30 139 q 11 21 6 43 q 31 0 17 0 q 75 25 50 0 q 122 83 100 50 q 161 151 144 117 q 181 202 178 185 z "},"e":{"ha":250,"x_min":-31,"x_max":276,"o":"m 26 52 q 88 0 41 7 q 198 59 135 -7 q 234 109 220 83 q 257 161 248 135 q 269 165 261 170 q 274 150 276 159 q 238 75 263 109 q 181 16 213 41 q 117 -20 150 -9 q 56 -24 83 -31 q -7 16 13 -15 q -30 85 -28 46 q -18 166 -31 124 q 21 242 -4 207 q 81 296 46 276 q 154 313 115 317 q 204 270 196 307 q 200 208 211 239 q 165 158 189 178 q 107 134 141 139 q 39 152 74 130 q 37 153 37 152 q 35 154 37 154 q 26 52 11 94 m 46 174 q 96 155 74 152 q 135 172 119 157 q 159 208 152 187 q 165 248 167 230 q 147 265 161 263 q 117 254 133 267 q 44 174 72 219 l 46 174 z "},"f":{"ha":187,"x_min":-39,"x_max":206,"o":"m 196 267 q 139 225 176 235 q 74 215 102 215 q 128 74 124 165 q 124 -1 130 35 q 106 -66 119 -37 q 74 -111 94 -94 q 28 -124 54 -128 q -6 -102 6 -122 q -21 -53 -17 -81 q -26 7 -26 -24 q -22 67 -26 39 q -13 127 -19 93 q 2 198 -7 161 q -19 209 -9 200 q -31 228 -28 219 q -36 257 -39 244 q -25 278 -33 270 q -7 288 -17 285 q 9 289 2 291 q 24 281 13 285 q 47 365 35 324 q 69 441 59 406 q 88 502 80 476 q 102 543 96 528 q 118 555 106 556 q 143 545 130 554 q 164 526 156 537 q 170 509 172 515 q 156 480 167 504 q 133 420 146 456 q 105 342 120 385 q 74 252 89 298 q 132 253 96 246 q 189 280 169 259 q 202 283 198 289 q 196 267 206 278 m 28 72 q 19 -38 17 13 q 43 -96 22 -89 q 66 -87 54 -100 q 87 -52 78 -74 q 101 0 96 -30 q 104 61 106 30 q 89 138 100 102 q 57 194 78 174 q 40 130 48 161 q 28 72 31 98 m 15 248 q -16 251 -11 261 q -6 237 -20 241 q 4 233 0 233 q 11 231 7 233 q 15 248 11 237 z "},"g":{"ha":289,"x_min":-33,"x_max":315,"o":"m 133 315 q 173 304 157 315 q 198 276 189 293 q 211 239 207 259 q 215 200 215 219 q 227 193 219 198 q 230 169 235 187 l 172 -9 q 238 -13 198 -7 q 300 -28 278 -19 q 311 -43 307 -31 q 315 -65 315 -54 q 312 -82 315 -76 q 304 -83 309 -89 q 241 -56 278 -61 q 163 -46 204 -50 q 147 -86 157 -63 q 122 -131 137 -109 q 90 -169 107 -154 q 54 -183 72 -183 q 2 -146 15 -183 q 0 -76 -11 -109 q 50 -23 15 -33 q 120 -9 85 -13 q 131 30 126 13 q 141 67 137 46 q 118 33 131 50 q 90 3 104 17 q 61 -19 76 -11 q 33 -24 46 -26 q -33 44 -33 -13 q -22 127 -33 80 q 10 216 -11 174 q 63 286 31 257 q 133 315 94 315 m 174 207 q 180 208 174 209 q 187 209 185 207 q 187 231 189 217 q 177 256 185 244 q 156 270 169 267 q 124 263 143 274 q 55 187 85 237 q 15 87 24 137 q 14 14 6 33 q 38 -1 22 -6 q 76 27 54 4 q 119 81 98 50 q 155 147 139 113 q 174 207 170 181 m 46 -163 q 69 -150 57 -167 q 91 -112 81 -133 q 106 -70 100 -91 q 113 -44 113 -50 q 46 -61 70 -44 q 15 -99 22 -78 q 16 -140 7 -120 q 46 -163 24 -159 z "},"h":{"ha":315,"x_min":-35,"x_max":335,"o":"m 196 87 q 189 29 191 56 q 202 0 187 2 q 230 12 215 -2 q 260 49 244 26 q 290 100 276 72 q 315 154 304 128 q 328 161 320 167 q 331 148 335 156 q 314 98 328 131 q 279 34 300 65 q 231 -15 257 4 q 174 -20 204 -33 q 145 19 152 -11 q 143 80 139 48 q 156 166 146 126 q 174 233 165 206 q 172 253 180 254 q 156 241 165 252 q 113 175 144 228 q 48 43 81 122 q 37 11 43 28 q 28 -20 31 -6 l 28 -17 q 11 -22 22 -28 q -11 -4 0 -17 q -29 26 -22 9 q -33 57 -35 43 q -10 173 -26 107 q 19 287 6 239 q 50 404 39 359 q 70 476 61 448 q 88 486 76 487 q 113 478 100 485 q 134 460 126 470 q 141 443 143 450 q 123 409 137 433 q 87 320 109 385 q 45 195 67 259 q 20 80 24 131 q 23 57 19 54 q 41 87 28 61 q 71 145 54 113 q 106 210 89 178 q 142 269 124 243 q 174 307 159 294 q 201 309 183 315 q 234 292 219 304 q 258 263 250 280 q 256 233 267 246 q 223 174 241 215 q 196 87 206 133 z "},"i":{"ha":133,"x_min":-33,"x_max":157,"o":"m 17 274 q 31 290 20 289 q 54 285 43 291 q 73 270 65 280 q 80 257 81 261 q 59 206 74 244 q 31 123 44 167 q 9 44 17 80 q 15 2 2 7 q 40 9 24 -4 q 73 44 56 22 q 106 95 91 67 q 133 150 122 124 q 147 159 137 165 q 154 146 157 154 q 133 96 150 130 q 94 33 117 63 q 43 -15 70 4 q -11 -19 15 -33 q -33 34 -33 -7 q -24 124 -33 76 q -1 216 -15 172 q 17 274 13 259 m 59 319 q 63 343 61 324 q 67 381 65 361 q 70 417 69 400 q 74 435 72 433 q 92 442 80 441 q 115 440 104 443 q 133 432 126 437 q 141 422 141 428 q 126 386 141 409 q 95 344 111 363 q 68 314 80 324 q 59 319 56 304 z "},"j":{"ha":128,"x_min":-167,"x_max":150,"o":"m 11 2 q 75 2 37 6 q 135 -9 113 -2 q 146 -22 143 -11 q 150 -44 150 -33 q 147 -63 150 -56 q 139 -65 144 -70 q 77 -40 113 -44 q 4 -37 41 -35 q -11 -78 -2 -54 q -34 -124 -20 -102 q -65 -162 -48 -146 q -100 -180 -81 -178 q -134 -172 -120 -181 q -156 -148 -148 -163 q -165 -115 -163 -133 q -161 -80 -167 -96 q -110 -24 -146 -37 q -39 -6 -74 -11 q -23 65 -31 24 q -6 147 -15 106 q 7 225 2 189 q 17 281 13 261 q 29 289 19 289 q 50 283 39 289 q 69 269 61 278 q 74 250 76 259 l 11 2 m -113 -163 q -86 -145 -98 -163 q -66 -106 -74 -128 q -53 -65 -57 -85 q -48 -39 -48 -44 q -115 -60 -91 -41 q -145 -103 -139 -80 q -144 -144 -152 -126 q -113 -163 -135 -163 m 54 319 q 55 343 54 324 q 56 381 56 361 q 59 417 57 400 q 63 435 61 433 q 81 442 69 441 q 104 440 93 443 q 123 432 115 437 q 131 422 131 428 q 118 386 131 409 q 89 344 104 363 q 62 314 74 324 q 54 319 50 304 z "},"k":{"ha":243,"x_min":-39,"x_max":313,"o":"m 20 100 q 14 65 17 74 q 24 78 11 56 q 116 214 70 161 q 198 311 161 267 q 210 312 202 317 q 227 299 219 307 q 240 280 235 291 q 239 261 244 269 q 217 241 235 257 q 174 202 198 224 q 125 156 150 180 q 83 111 100 131 q 194 0 133 43 q 307 -48 256 -43 q 312 -56 313 -48 q 306 -74 311 -65 q 296 -92 302 -83 q 287 -100 291 -100 q 244 -89 270 -104 q 188 -48 219 -74 q 126 13 157 -22 q 65 89 94 48 q 51 68 57 78 q 41 46 44 57 q 34 14 35 33 q 30 -20 33 -6 l 30 -17 q 10 -22 22 -28 q -13 -4 -2 -17 q -31 26 -24 9 q -37 57 -39 43 q 12 267 -17 156 q 69 474 41 378 q 83 481 70 483 q 108 471 96 480 q 130 454 120 463 q 137 441 139 444 q 115 406 131 431 q 80 313 98 380 q 47 208 63 254 q 20 100 31 163 z "},"l":{"ha":150,"x_min":-28,"x_max":181,"o":"m 59 474 q 74 483 61 485 q 100 474 87 481 q 122 456 113 467 q 130 441 131 446 q 110 396 124 431 q 81 312 96 361 q 49 209 65 263 q 25 110 33 156 q 19 33 17 65 q 43 0 22 2 q 90 36 59 -2 q 150 139 120 74 q 170 159 159 161 q 170 131 181 157 q 144 76 159 106 q 109 23 128 46 q 69 -14 91 0 q 28 -24 48 -28 q -19 13 -9 -19 q -22 96 -28 44 q -6 196 -17 141 q 19 306 6 252 q 43 405 31 359 q 59 474 54 450 z "},"m":{"ha":437,"x_min":-41,"x_max":465,"o":"m 330 0 q 358 10 343 -4 q 390 48 374 24 q 419 100 406 72 q 444 154 433 128 q 457 161 450 167 q 461 148 465 156 q 443 99 457 131 q 406 37 428 67 q 357 -12 383 7 q 304 -20 331 -31 q 283 22 285 -13 q 287 101 281 57 q 302 183 293 144 q 315 235 311 222 q 313 256 320 256 q 296 244 306 256 q 256 177 285 231 q 193 43 226 122 q 181 11 187 28 q 172 -20 176 -6 l 172 -17 q 155 -22 167 -28 q 132 -4 143 -17 q 115 26 122 9 q 111 57 107 43 q 120 95 115 72 q 132 146 126 119 q 145 203 139 174 q 159 259 152 231 q 144 251 154 265 q 119 207 133 237 q 85 135 104 178 q 44 43 67 93 q 33 11 39 28 q 24 -20 28 -6 l 24 -17 q 6 -22 19 -28 q -16 -4 -6 -17 q -33 26 -26 9 q -37 57 -41 43 q -26 108 -33 76 q -10 176 -19 141 q 7 244 -2 211 q 26 302 17 278 q 42 312 30 313 q 65 304 54 311 q 83 288 76 296 q 89 274 91 280 q 69 233 80 257 q 46 182 57 209 q 27 129 35 156 q 17 80 19 102 q 19 57 15 54 q 37 87 22 61 q 62 143 48 109 q 91 208 76 176 q 121 269 106 241 q 152 309 137 296 q 174 311 159 313 q 203 305 189 309 q 226 292 217 300 q 230 276 235 283 q 210 235 220 259 q 191 183 200 211 q 174 129 181 156 q 165 80 167 102 q 167 57 163 54 q 185 87 170 61 q 242 199 213 139 q 304 306 270 259 q 329 311 311 317 q 363 293 346 306 q 388 262 380 280 q 385 231 396 244 q 361 184 376 220 q 335 108 346 148 q 320 36 324 69 q 330 0 317 4 z "},"n":{"ha":300,"x_min":-44,"x_max":328,"o":"m 189 87 q 181 29 183 56 q 194 0 180 2 q 222 12 207 -2 q 253 49 237 26 q 282 100 269 72 q 307 154 296 128 q 320 161 313 167 q 324 148 328 156 q 306 98 320 131 q 271 34 293 65 q 223 -15 250 4 q 167 -20 196 -33 q 138 19 144 -11 q 135 80 131 48 q 151 172 139 126 q 172 246 163 219 q 170 266 178 267 q 154 254 163 265 q 108 181 143 241 q 41 43 74 122 q 30 11 35 28 q 20 -20 24 -6 l 20 -17 q 3 -22 15 -28 q -19 -4 -9 -17 q -37 26 -30 9 q -41 57 -44 43 q -28 108 -35 76 q -12 177 -20 141 q 5 247 -4 213 q 22 306 13 281 q 40 316 28 317 q 64 308 52 315 q 84 294 76 302 q 91 280 93 285 q 69 238 81 263 q 44 185 56 213 q 24 130 33 157 q 13 80 15 102 q 16 57 11 54 q 33 87 20 61 q 63 146 46 113 q 97 211 80 180 q 132 269 115 243 q 165 309 150 296 q 192 311 174 317 q 225 294 209 306 q 249 265 241 281 q 246 235 257 248 q 215 175 231 217 q 189 87 198 133 z "},"o":{"ha":280,"x_min":-37,"x_max":289,"o":"m -4 -7 q -31 50 -26 11 q -29 133 -37 89 q 1 219 -20 178 q 54 287 22 261 q 101 310 74 304 q 148 313 128 317 q 197 282 181 307 q 217 225 213 257 q 215 157 220 193 q 200 98 209 122 q 231 94 215 87 q 260 111 248 100 q 281 131 272 122 q 287 131 289 139 q 270 93 283 106 q 243 74 257 80 q 213 69 228 69 q 193 72 198 70 q 171 29 181 46 q 135 -11 161 11 q 99 -30 119 -26 q 61 -31 80 -33 q 26 -23 43 -30 q 0 -7 9 -17 l -4 -7 m 107 4 q 140 58 128 26 q 152 96 152 91 q 130 138 137 113 q 121 191 122 163 q 125 244 120 219 q 139 291 130 270 q 106 269 119 283 q 68 220 85 250 q 38 157 50 191 q 20 92 26 124 q 19 35 15 59 q 56 -19 28 -17 q 107 4 85 -22 m 161 120 q 167 145 163 128 q 172 183 170 163 q 175 224 174 204 q 174 259 176 244 q 163 289 172 280 q 144 243 150 269 q 140 191 139 217 q 146 145 141 165 q 161 120 152 126 z "},"p":{"ha":302,"x_min":-211,"x_max":330,"o":"m 41 306 q 56 310 46 311 q 74 305 65 309 q 91 293 83 300 q 98 278 98 285 q 87 254 98 278 q 62 196 76 230 q 37 127 48 163 q 26 65 26 91 q 69 142 44 98 q 117 223 93 185 q 162 287 141 261 q 196 313 183 313 q 243 292 217 313 q 269 248 269 270 q 261 234 269 248 q 243 198 254 220 q 220 147 231 176 q 204 87 209 119 q 196 28 196 57 q 211 0 196 0 q 241 16 226 0 q 269 56 256 31 q 293 111 281 81 q 311 169 304 141 q 321 173 313 172 q 330 170 330 174 q 314 113 324 146 q 288 49 304 80 q 251 -3 272 19 q 204 -24 230 -24 q 159 1 170 -24 q 148 61 148 26 q 160 146 148 104 q 180 219 172 189 q 188 254 189 246 q 181 256 187 261 q 165 240 174 252 q 148 217 156 228 q 118 171 135 198 q 82 114 100 144 q 48 50 65 83 q 20 -13 31 17 q 67 -36 52 -17 q 81 -83 81 -56 q 72 -124 81 -104 q 49 -161 63 -144 q 19 -185 35 -178 q -15 -183 2 -193 q -42 -129 -41 -169 q -37 -50 -43 -89 q -119 -58 -76 -52 q -202 -87 -163 -65 q -210 -85 -211 -93 q -203 -67 -209 -78 q -186 -44 -196 -56 q -165 -30 -176 -33 q -95 -16 -137 -22 q -30 -13 -54 -9 q -15 92 -24 39 q 5 188 -6 144 q 24 263 15 231 q 41 306 33 294 m 6 -170 q 37 -156 22 -174 q 56 -113 52 -137 q 49 -69 59 -89 q 9 -46 39 -48 q 2 -84 6 -63 q -5 -124 -2 -106 q -6 -156 -7 -143 q 6 -170 -4 -169 z "},"q":{"ha":296,"x_min":-61,"x_max":243,"o":"m 183 15 l 176 -9 q 219 -33 206 -13 q 233 -81 233 -54 q 223 -123 231 -102 q 201 -161 215 -144 q 169 -183 187 -178 q 133 -178 152 -189 q 116 -128 115 -167 q 122 -46 117 -89 q 35 -56 83 -50 q -52 -83 -13 -61 q -59 -82 -61 -89 q -50 -65 -57 -76 q -32 -43 -43 -54 q -11 -28 -22 -31 l 19 -20 q -18 5 -4 -11 q -31 44 -31 20 q -17 131 -31 85 q 22 216 -2 176 q 78 282 46 256 q 144 313 109 309 q 183 305 169 315 q 206 278 198 294 q 218 240 215 261 q 220 200 220 219 q 233 193 224 198 q 235 169 243 187 l 183 15 m 181 207 q 186 208 181 209 q 193 209 191 207 q 194 230 194 217 q 187 254 193 243 q 169 268 181 265 q 139 259 157 270 q 67 186 100 233 q 20 87 33 139 q 15 21 9 43 q 35 0 20 0 q 83 22 61 0 q 124 78 106 44 q 157 146 143 111 q 181 207 172 181 m 163 -169 q 187 -149 174 -169 q 206 -106 200 -130 q 206 -61 213 -81 q 169 -39 198 -41 q 160 -71 165 -50 q 153 -115 156 -93 q 152 -153 150 -137 q 163 -169 154 -169 m 146 67 q 116 25 133 46 q 80 -9 98 4 q 107 -8 93 -9 q 131 -9 122 -7 q 144 54 143 43 q 146 67 146 65 z "},"r":{"ha":256,"x_min":-39,"x_max":283,"o":"m -7 339 q 29 342 13 350 q 50 315 44 333 q 52 290 52 304 q 52 263 52 276 q 97 267 72 263 q 144 276 122 270 l 163 309 q 178 314 167 320 q 199 294 189 307 q 213 263 209 280 q 207 235 217 246 q 174 175 193 217 q 146 87 156 133 q 149 3 133 17 q 207 48 165 -11 q 236 98 222 70 q 259 154 250 126 q 273 161 263 167 q 280 148 283 156 q 256 93 270 126 q 221 31 241 59 q 178 -15 202 2 q 130 -22 154 -31 q 100 17 107 -15 q 94 80 93 48 q 106 162 98 126 q 130 235 115 198 q 81 224 102 228 q 39 219 59 220 q 7 144 22 178 q -15 98 -7 109 q -31 89 -22 89 q -30 113 -39 89 q -8 168 -17 144 q 7 219 0 191 q -19 237 -9 220 q -31 274 -30 254 q -26 314 -31 294 q -7 339 -20 333 m 22 265 l 22 300 q 7 320 20 322 q -2 300 -6 319 q 2 281 0 285 q 13 269 4 276 q 22 265 15 265 z "},"s":{"ha":246,"x_min":-31,"x_max":256,"o":"m 224 89 q 253 81 256 89 q 228 72 250 72 l 172 67 q 134 -4 161 22 q 78 -38 107 -30 q 19 -37 48 -46 q -22 -4 -9 -28 q -18 35 -31 19 q 19 63 -4 52 q 68 81 41 74 q 113 87 94 87 q 115 123 117 100 q 107 171 113 146 q 93 223 102 196 q 74 272 83 250 q 55 222 65 250 q 34 169 44 194 q 15 123 24 144 q 0 94 6 102 q -14 89 -9 81 q -15 107 -19 96 q 29 225 13 178 q 61 315 44 272 q 69 331 61 328 q 89 334 78 335 q 109 330 100 333 q 122 324 119 326 q 143 263 131 298 q 162 194 154 228 q 174 131 170 159 q 172 89 178 102 l 224 89 m 7 0 q 27 -22 11 -19 q 60 -17 43 -26 q 94 13 78 -7 q 113 63 109 33 q 76 57 96 59 q 39 50 56 56 q 12 32 22 44 q 7 0 2 20 z "},"t":{"ha":148,"x_min":-100,"x_max":217,"o":"m 59 474 q 74 483 61 485 q 101 474 87 481 q 124 456 115 467 q 131 441 133 446 l 115 400 q 170 396 152 394 q 206 415 189 398 q 214 412 211 420 q 216 392 217 404 q 210 367 215 380 q 198 352 206 354 q 153 352 178 344 q 100 363 128 359 q 59 249 80 311 q 26 132 39 187 q 13 40 13 78 q 35 0 13 2 q 82 31 52 -2 q 150 141 113 65 q 169 158 161 163 q 165 128 176 154 q 139 74 154 102 q 106 23 124 46 q 69 -14 89 0 q 26 -24 48 -28 q -21 13 -9 -19 q -28 96 -33 44 q -4 230 -19 159 q 31 374 11 300 q -35 387 -7 383 q -72 380 -63 391 q -91 378 -81 370 q -91 394 -100 385 q -37 409 -70 413 q 39 402 -4 406 q 52 444 48 424 q 59 474 56 463 z "},"u":{"ha":319,"x_min":-31,"x_max":344,"o":"m 257 269 q 249 238 257 263 q 231 181 241 213 q 213 119 222 150 q 200 69 204 87 q 197 15 193 31 q 213 -2 202 -2 q 240 12 224 -2 q 269 50 256 26 q 296 101 281 74 q 322 154 311 128 q 336 161 328 167 q 341 148 344 156 q 322 98 337 131 q 286 34 307 65 q 238 -15 265 4 q 181 -20 211 -33 q 151 19 157 -11 q 148 83 144 50 q 121 42 139 65 q 89 0 104 19 q 52 -22 72 -20 q 13 -15 31 -24 q -18 12 -6 -6 q -30 50 -30 30 q -27 104 -31 72 q -14 169 -22 135 q 6 237 -6 204 q 30 298 17 270 q 47 311 37 311 q 68 304 57 311 q 83 285 78 296 q 85 269 89 274 q 52 195 63 226 q 31 131 41 165 q 12 28 9 59 q 31 -4 15 -4 q 71 25 46 -4 q 122 102 96 54 q 142 146 131 120 q 160 200 152 172 q 177 255 169 228 q 191 302 185 281 q 206 312 194 313 q 229 305 217 311 q 249 287 241 298 q 257 269 257 276 z "},"v":{"ha":259,"x_min":-28,"x_max":231,"o":"m 24 307 q 39 312 26 315 q 63 301 52 309 q 81 280 74 293 q 78 256 87 267 q 48 187 63 235 q 24 91 33 139 q 21 24 17 46 q 39 0 26 2 q 69 14 52 -2 q 107 61 87 30 q 140 124 128 91 q 159 190 152 157 q 172 252 167 222 q 183 304 178 281 q 194 308 185 311 q 210 300 202 306 q 225 286 219 294 q 230 274 231 278 q 221 242 228 265 q 204 188 215 219 q 175 122 193 157 q 135 54 157 87 q 111 22 124 39 q 83 -6 98 6 q 52 -22 69 -17 q 17 -20 35 -28 q -17 17 -6 -11 q -26 76 -28 44 q -6 200 -20 146 q 24 307 7 254 z "},"w":{"ha":367,"x_min":-31,"x_max":341,"o":"m 152 274 q 167 279 154 281 q 192 268 180 276 q 210 246 204 259 q 209 222 217 233 q 185 171 194 204 q 167 91 176 139 q 164 23 159 46 q 180 -3 169 0 q 206 10 191 -6 q 237 59 222 26 q 271 162 263 115 q 287 263 280 209 q 296 271 287 270 q 315 269 306 272 q 332 262 324 267 q 341 254 341 257 q 335 220 341 243 q 321 171 330 198 q 303 117 313 144 q 281 67 293 89 q 259 31 272 50 q 230 -1 246 13 q 195 -21 213 -15 q 161 -20 178 -28 q 117 52 126 -2 q 95 19 107 35 q 69 -7 83 4 q 41 -23 56 -19 q 11 -20 26 -28 q -21 17 -11 -11 q -28 76 -31 44 q -10 200 -22 146 q 17 307 2 254 q 31 312 19 315 q 54 301 43 309 q 70 280 65 293 q 69 256 76 267 q 39 187 54 235 q 15 91 24 139 q 14 24 9 46 q 30 0 19 2 q 58 14 41 -2 q 94 61 76 30 q 107 86 102 72 q 119 111 113 100 q 127 157 124 137 q 133 196 130 178 q 142 233 137 215 q 152 274 146 252 z "},"x":{"ha":239,"x_min":-46,"x_max":231,"o":"m -41 -17 q -20 10 -35 -11 q 11 56 -6 31 q 42 102 28 80 q 59 133 56 124 q 44 161 50 148 q 33 189 39 174 q 21 146 28 165 q 11 119 15 128 q -5 106 6 104 q -11 117 -15 107 q -6 136 -9 122 q 2 170 -2 150 q 7 214 6 191 q 7 259 9 237 q 2 283 2 272 q 8 306 -2 300 q 31 313 19 313 q 53 308 43 313 q 61 296 63 304 q 60 267 57 285 q 69 228 63 248 q 80 189 74 207 q 89 161 85 170 q 115 195 102 176 q 139 235 128 215 q 158 275 150 256 q 170 307 167 294 q 183 312 172 315 q 206 301 194 309 q 225 281 219 293 q 224 263 231 270 l 109 131 l 163 4 q 165 -20 172 -15 q 154 -24 157 -26 q 106 55 126 20 q 78 96 87 89 q -31 -24 4 7 q -45 -29 -44 -35 q -41 -17 -46 -22 z "},"y":{"ha":296,"x_min":-31,"x_max":324,"o":"m 256 269 q 241 219 252 254 q 219 147 230 185 q 203 77 209 109 q 206 31 196 44 q 224 23 211 17 q 251 49 237 30 q 280 96 265 69 q 304 154 294 124 q 316 161 307 167 q 320 148 324 156 q 306 104 317 131 q 281 52 296 76 q 242 14 265 28 q 191 9 219 0 q 185 11 187 9 l 180 -20 q 246 -24 206 -19 q 309 -37 287 -30 q 320 -52 317 -41 q 324 -74 324 -63 q 320 -93 324 -85 q 311 -94 317 -100 q 249 -66 287 -72 q 170 -57 211 -59 q 156 -96 165 -74 q 133 -138 146 -119 q 104 -170 120 -157 q 69 -183 87 -183 q 6 -152 30 -183 q -7 -87 -17 -120 q 42 -35 6 -44 q 124 -20 78 -26 l 139 56 q 123 29 131 41 q 109 9 115 17 q 64 -20 89 -15 q 18 -19 39 -26 q -18 6 -4 -11 q -31 44 -31 24 q -27 99 -31 67 q -13 167 -22 131 q 8 236 -4 202 q 33 298 20 270 q 50 311 39 311 q 70 304 61 311 q 85 285 80 296 q 87 269 91 274 q 49 195 65 226 q 24 131 33 165 q 14 29 4 59 q 48 2 24 -2 q 102 40 72 6 q 150 131 131 74 q 172 210 161 167 q 198 304 183 254 q 210 311 200 311 q 231 305 220 311 q 250 288 243 298 q 256 269 257 278 m 117 -54 q 78 -54 96 -54 q 44 -59 59 -54 q 19 -77 28 -65 q 9 -111 9 -89 q 26 -153 9 -139 q 61 -161 43 -167 q 84 -145 74 -159 q 100 -115 94 -131 q 109 -81 106 -98 q 117 -54 113 -65 z "},"z":{"ha":250,"x_min":-70,"x_max":283,"o":"m 148 0 q 177 12 161 -2 q 207 48 193 26 q 236 98 222 70 q 259 154 250 126 q 273 161 263 167 q 280 148 283 156 q 266 109 276 133 q 240 58 256 85 q 205 9 224 31 q 165 -20 185 -13 q 215 -27 189 -22 q 257 -37 241 -31 q 269 -52 265 -41 q 272 -74 272 -63 q 269 -93 272 -85 q 259 -94 265 -100 q 198 -66 235 -72 q 119 -57 161 -59 q 104 -96 113 -74 q 82 -138 94 -119 q 54 -170 70 -157 q 19 -183 37 -183 q -45 -152 -20 -183 q -59 -87 -70 -120 q -36 -53 -52 -65 q -1 -33 -20 -41 q 39 -24 19 -26 q 76 -20 59 -22 q 96 81 89 43 q 109 144 104 119 q 119 188 115 169 q 128 233 122 207 q 82 222 100 226 q 44 217 65 219 q 19 146 28 176 q 4 106 11 117 q -15 93 -4 96 q -17 113 -26 89 q 1 167 -4 144 q 13 217 6 189 q -14 235 -4 219 q -25 272 -24 252 q -20 312 -26 293 q -2 337 -15 331 q 34 340 19 348 q 56 313 50 331 q 57 288 57 302 q 57 261 57 274 q 99 265 78 261 q 143 274 120 269 l 156 307 q 169 310 159 317 q 189 291 180 304 q 202 261 198 278 q 196 233 206 244 q 157 119 172 169 q 137 39 144 76 q 144 0 130 2 l 148 0 m 69 -54 q 29 -54 48 -54 q -6 -59 9 -54 q -31 -77 -20 -65 q -41 -111 -41 -89 q -25 -153 -41 -139 q 11 -161 -9 -167 q 34 -145 24 -159 q 51 -115 44 -131 q 61 -81 57 -98 q 69 -54 65 -65 m 28 263 l 28 298 q 13 319 26 320 q 4 298 0 317 q 7 279 6 283 q 19 267 9 274 q 28 263 20 263 z "}," ":{"ha":215,"x_min":0,"x_max":0,"o":""},"(":{"ha":135,"x_min":-15,"x_max":493,"o":"m 13 356 q 69 499 35 430 q 151 622 102 569 q 263 708 200 676 q 406 741 326 741 q 441 739 422 741 q 478 733 459 737 q 491 719 489 730 q 488 695 493 707 q 474 672 483 683 q 454 661 465 661 q 419 668 433 665 q 387 670 404 670 q 262 637 317 670 q 168 556 207 604 q 100 450 128 507 q 57 346 72 393 q 32 239 43 294 q 26 128 22 183 q 42 15 28 69 q 84 -81 56 -39 q 157 -146 113 -122 q 267 -170 202 -170 q 294 -170 280 -170 q 322 -167 307 -170 q 345 -171 339 -163 q 337 -183 352 -180 q 294 -191 317 -187 q 256 -194 272 -194 q 142 -169 191 -194 q 59 -98 93 -143 q 7 7 26 -54 q -13 141 -11 69 q 13 356 -15 241 z "},")":{"ha":300,"x_min":-239,"x_max":257,"o":"m 257 343 q 219 128 252 230 q 157 -6 194 56 q 74 -111 120 -67 q -28 -181 28 -156 q -146 -207 -83 -207 q -184 -204 -163 -207 q -224 -196 -206 -200 q -230 -184 -239 -193 q -206 -180 -220 -176 q -177 -183 -191 -183 q -150 -183 -163 -183 q -36 -159 -87 -183 q 56 -94 15 -135 q 126 2 96 -52 q 176 115 156 56 q 203 226 196 170 q 211 333 209 281 q 199 437 209 380 q 164 543 189 494 q 95 624 139 591 q -17 657 52 657 q -48 655 -31 657 q -85 648 -65 652 q -103 659 -96 648 q -110 682 -109 670 q -106 706 -111 694 q -87 720 -100 717 q -48 726 -67 724 q -15 728 -30 728 q 116 695 63 728 q 200 609 169 663 q 244 486 231 556 q 257 343 257 417 z "},"[":{"ha":170,"x_min":41,"x_max":554,"o":"m 537 737 q 550 729 546 737 q 552 709 554 720 q 544 688 550 698 q 526 672 537 678 q 484 671 520 670 q 407 673 448 672 q 334 676 367 674 q 304 678 302 678 q 258 638 283 676 q 207 541 233 600 q 156 406 181 481 q 112 252 131 330 q 81 100 93 174 q 69 -30 69 26 q 81 -115 69 -94 q 131 -135 93 -135 q 242 -132 185 -135 q 337 -122 298 -130 q 339 -141 339 -130 q 335 -163 339 -152 q 325 -181 331 -174 q 307 -189 319 -189 q 253 -192 289 -189 q 179 -193 217 -194 q 108 -183 141 -191 q 67 -156 76 -176 q 46 -86 52 -124 q 41 -6 41 -48 q 52 142 41 61 q 81 304 63 222 q 123 461 98 385 q 175 597 148 537 q 231 694 202 657 q 285 733 259 730 q 330 735 298 735 q 399 735 361 735 q 474 736 437 735 q 537 737 511 737 z "},"]":{"ha":326,"x_min":-224,"x_max":289,"o":"m -207 -207 q -220 -199 -217 -207 q -222 -180 -224 -191 q -214 -158 -220 -169 q -196 -143 -207 -148 q -155 -142 -191 -141 q -78 -144 -119 -143 q -5 -146 -37 -144 q 26 -148 28 -148 q 71 -108 46 -146 q 122 -11 96 -70 q 173 124 148 48 q 218 278 198 200 q 249 430 237 356 q 261 559 261 504 q 249 644 261 624 q 198 665 237 665 q 88 662 144 665 q -7 652 31 659 q -9 670 -9 659 q -6 693 -9 681 q 5 711 -2 704 q 22 719 11 719 q 77 721 41 719 q 151 722 113 724 q 221 712 189 720 q 263 685 254 704 q 283 616 278 654 q 289 535 289 578 q 278 387 289 467 q 249 226 267 307 q 206 69 231 144 q 155 -68 181 -7 q 99 -165 128 -128 q 44 -204 70 -202 q 0 -206 31 -206 q -69 -206 -31 -206 q -145 -206 -107 -206 q -207 -207 -183 -207 z "},"/":{"ha":220,"x_min":-13,"x_max":269,"o":"m 196 726 q 211 735 200 735 q 234 731 222 735 q 256 719 246 726 q 269 706 267 711 q 225 562 250 644 q 174 390 200 480 q 122 212 148 300 q 75 51 96 124 q 40 -73 54 -22 q 22 -137 26 -124 q -4 -198 2 -198 q -13 -182 -13 -198 q -7 -130 -13 -167 q 12 -48 -4 -113 q 49 105 28 17 q 94 293 70 193 q 140 482 119 393 q 177 639 161 572 q 196 726 193 706 z "},"":{"ha":272,"x_min":-46,"x_max":235,"o":"m 163 731 q 178 741 167 741 q 201 736 189 741 q 223 724 213 731 q 235 711 233 717 q 192 568 217 650 q 141 395 167 485 q 89 218 115 306 q 42 56 63 130 q 6 -68 20 -17 q -11 -131 -7 -119 q -37 -193 -31 -193 q -46 -177 -46 -193 q -41 -124 -46 -161 q -21 -43 -37 -107 q 16 110 -6 22 q 61 298 37 198 q 106 488 85 398 q 143 644 128 578 q 163 731 157 711 z "},"\\":{"ha":335,"x_min":30,"x_max":311,"o":"m 102 726 q 121 639 106 706 q 158 482 137 572 q 204 293 180 393 q 249 105 228 193 q 286 -48 270 17 q 306 -130 302 -113 q 311 -182 311 -167 q 302 -198 311 -198 q 276 -137 296 -198 q 258 -73 272 -124 q 223 51 244 -22 q 176 212 202 124 q 124 390 150 300 q 73 562 98 480 q 30 706 48 644 q 42 719 31 711 q 64 731 52 726 q 87 735 76 735 q 102 726 98 735 z "},"!":{"ha":278,"x_min":-43,"x_max":269,"o":"m 196 726 q 211 735 200 735 q 234 731 222 735 q 256 719 246 726 q 269 706 267 711 q 228 570 250 644 q 182 419 206 496 q 137 269 159 343 q 97 133 115 194 q 68 31 80 72 q 52 -24 56 -11 q 34 -64 43 -56 q 22 -69 26 -72 q 18 -60 19 -67 q 22 -17 17 -54 q 40 56 26 0 q 71 189 54 113 q 108 350 89 265 q 146 512 128 435 q 178 647 165 589 q 196 726 191 706 m 24 -98 q 25 -145 24 -119 q 22 -176 26 -172 q 4 -183 15 -181 q -19 -184 -7 -185 q -36 -180 -30 -183 q -41 -170 -43 -176 q -24 -139 -35 -157 q -2 -106 -13 -120 q 17 -89 9 -93 q 24 -98 24 -85 z "},"":{"ha":250,"x_min":-46,"x_max":263,"o":"m 26 -168 q 11 -178 22 -178 q -12 -173 0 -178 q -34 -161 -24 -168 q -46 -148 -44 -154 q -6 -13 -28 -87 q 40 138 17 61 q 85 289 63 215 q 125 424 107 363 q 155 527 143 485 q 170 581 167 569 q 188 621 180 613 q 200 626 196 630 q 205 618 204 624 q 200 574 206 611 q 182 501 196 557 q 151 369 169 444 q 114 207 133 293 q 76 45 94 122 q 44 -90 57 -31 q 26 -168 31 -148 m 198 656 q 197 703 198 676 q 200 733 196 730 q 219 741 207 739 q 241 742 230 743 q 258 737 252 741 q 263 728 265 733 q 246 696 257 715 q 224 664 235 678 q 206 646 213 650 q 198 656 198 643 z "},"?":{"ha":565,"x_min":61,"x_max":496,"o":"m 239 730 q 338 736 291 743 q 421 705 385 730 q 477 639 457 680 q 493 546 496 598 q 466 433 489 487 q 409 331 443 380 q 337 234 376 281 q 265 141 298 187 q 210 46 224 85 q 196 -13 196 7 q 191 -44 196 -37 q 173 -30 181 -44 q 165 6 165 -15 q 176 64 165 31 q 213 130 187 96 q 380 380 319 269 q 424 581 441 491 q 396 639 417 617 q 350 673 376 661 q 295 687 324 685 q 244 683 267 689 q 147 619 187 669 q 98 515 107 570 q 118 409 89 459 q 226 343 146 359 q 257 335 244 339 q 272 330 270 331 q 264 327 274 328 q 226 326 254 326 q 119 357 169 326 q 65 463 70 389 q 73 547 61 504 q 108 628 85 591 q 165 693 131 665 q 239 730 198 720 m 191 -94 q 192 -142 191 -115 q 189 -172 193 -169 q 170 -180 181 -178 q 148 -181 159 -181 q 131 -176 137 -180 q 126 -167 124 -172 q 143 -135 131 -154 q 165 -103 154 -117 q 183 -85 176 -89 q 191 -94 191 -81 z "},"{":{"ha":248,"x_min":-2,"x_max":415,"o":"m 2 274 q -2 291 -2 281 q 22 346 -2 324 q 78 369 46 369 q 128 344 106 369 q 157 453 146 393 q 172 570 169 513 q 195 655 174 620 q 248 707 217 689 q 319 732 280 726 q 396 733 357 739 q 412 721 409 731 q 412 699 415 711 q 403 678 409 687 q 391 669 396 669 q 325 670 357 669 q 267 666 293 672 q 225 638 241 659 q 207 570 209 617 q 187 427 204 498 q 146 313 170 356 q 152 290 150 302 q 154 265 154 278 q 146 199 154 239 q 131 114 139 159 q 118 21 122 69 q 119 -65 113 -26 q 147 -131 126 -104 q 213 -163 169 -157 q 258 -158 235 -167 q 300 -139 281 -150 q 331 -118 319 -128 q 348 -107 344 -107 q 352 -111 352 -107 q 341 -131 352 -117 q 309 -158 330 -144 q 257 -182 289 -172 q 185 -189 226 -193 q 144 -177 165 -187 q 105 -147 122 -167 q 76 -98 87 -128 q 65 -26 65 -69 q 72 54 65 13 q 89 133 80 94 q 106 208 98 172 q 117 276 115 244 q 76 253 96 261 q 41 244 56 244 q 2 274 4 244 m 20 267 q 48 257 30 257 q 81 269 63 257 q 113 304 98 280 q 70 333 96 333 q 30 318 44 333 q 15 283 15 302 q 20 267 15 272 z "},"}":{"ha":324,"x_min":-156,"x_max":313,"o":"m 296 274 q 248 244 285 244 q 215 253 233 244 q 181 276 196 261 q 173 208 174 244 q 171 133 172 172 q 168 54 170 94 q 154 -26 165 13 q 124 -98 143 -69 q 83 -147 106 -128 q 37 -177 61 -167 q -7 -189 13 -187 q -79 -182 -50 -193 q -124 -158 -107 -172 q -148 -131 -141 -144 q -154 -111 -156 -117 q -148 -107 -150 -107 q -134 -118 -144 -107 q -109 -139 -124 -128 q -74 -158 -94 -150 q -30 -163 -54 -167 q 44 -131 15 -157 q 89 -65 72 -104 q 113 21 106 -26 q 125 114 120 69 q 131 199 130 159 q 141 265 133 239 q 161 313 148 287 q 150 427 148 356 q 167 570 152 498 q 167 638 178 617 q 132 666 156 659 q 76 670 109 672 q 9 669 43 669 q 0 678 4 669 q -4 699 -4 687 q 2 721 -4 711 q 20 733 7 731 q 97 732 59 739 q 162 707 135 726 q 201 655 189 689 q 202 570 213 620 q 186 453 191 513 q 187 344 181 393 q 244 369 217 369 q 294 346 276 369 q 304 291 313 324 q 300 281 302 285 q 296 274 298 278 m 274 267 q 285 283 283 272 q 279 318 289 302 q 243 333 269 333 q 193 304 217 333 q 215 269 200 280 q 244 257 230 257 q 274 267 263 257 z "},"|":{"ha":270,"x_min":83,"x_max":165,"o":"m 91 730 q 103 743 93 739 q 126 744 113 746 q 150 739 139 743 q 165 730 161 735 q 156 579 161 665 q 144 400 150 493 q 133 215 139 307 q 123 46 128 122 q 116 -82 119 -30 q 113 -148 113 -135 q 104 -213 111 -213 q 91 -201 94 -217 q 83 -148 87 -185 q 85 -64 83 -130 q 88 93 87 2 q 90 286 89 183 q 91 481 91 389 q 91 640 91 572 q 91 730 91 707 z "},"`":{"ha":198,"x_min":50,"x_max":131,"o":"m 111 850 q 108 815 106 835 q 116 774 111 794 q 125 738 120 754 q 130 717 130 722 l 131 715 q 109 728 122 717 q 84 756 96 739 q 62 792 72 772 q 50 830 52 811 q 60 842 50 837 q 81 849 70 846 q 102 852 93 852 q 111 850 111 852 z "},"":{"ha":202,"x_min":50,"x_max":131,"o":"m 70 850 q 80 852 70 852 q 100 849 89 852 q 121 842 111 846 q 131 830 131 837 q 119 792 130 811 q 97 756 109 772 q 71 728 85 739 q 50 715 57 717 l 52 717 q 56 738 52 722 q 66 774 61 754 q 73 815 70 794 q 70 850 76 835 z "},"":{"ha":196,"x_min":76,"x_max":161,"o":"m 141 480 q 131 477 141 476 q 107 481 120 478 q 85 488 94 483 q 80 500 76 493 q 92 538 81 519 q 114 574 102 557 q 139 602 126 591 q 161 615 152 613 l 159 613 q 155 592 159 607 q 145 556 150 576 q 138 515 141 535 q 141 480 135 494 z "},"":{"ha":252,"x_min":91,"x_max":172,"o":"m 111 607 q 120 609 111 609 q 141 606 130 609 q 162 599 152 604 q 172 587 172 594 q 160 549 170 569 q 138 513 150 530 q 112 485 126 496 q 91 472 98 474 l 93 474 q 97 495 93 480 q 106 531 102 511 q 114 572 111 552 q 111 607 117 593 z "},"":{"ha":220,"x_min":9,"x_max":180,"o":"m 159 480 q 150 477 159 476 q 130 481 141 478 q 108 488 119 483 q 98 500 98 493 q 110 538 100 519 q 132 574 120 557 q 157 602 144 591 q 180 615 170 613 l 178 613 q 173 592 178 607 q 164 556 169 576 q 156 515 159 535 q 159 480 154 494 m 74 480 q 64 477 74 476 q 41 481 54 478 q 19 488 28 483 q 13 500 9 493 q 25 538 15 519 q 47 574 35 557 q 72 602 59 591 q 94 615 85 613 l 93 613 q 88 592 93 607 q 79 556 83 576 q 71 515 74 535 q 74 480 69 494 z "},"":{"ha":335,"x_min":91,"x_max":261,"o":"m 111 607 q 120 609 111 609 q 141 606 130 609 q 162 599 152 604 q 172 587 172 594 q 160 549 170 569 q 138 513 150 530 q 112 485 126 496 q 91 472 98 474 l 93 474 q 97 495 93 480 q 106 531 102 511 q 114 572 111 552 q 111 607 117 593 m 196 607 q 206 609 196 609 q 230 606 217 609 q 252 599 243 604 q 257 587 261 594 q 245 549 256 569 q 223 513 235 530 q 197 485 211 496 q 176 472 183 474 l 178 474 q 182 495 178 480 q 192 531 187 511 q 199 572 196 552 q 196 607 202 593 z "},"'":{"ha":202,"x_min":91,"x_max":172,"o":"m 111 607 q 120 609 111 609 q 141 606 130 609 q 162 599 152 604 q 172 587 172 594 q 160 549 170 569 q 138 513 150 530 q 112 485 126 496 q 91 472 98 474 l 93 474 q 97 495 93 480 q 106 531 102 511 q 114 572 111 552 q 111 607 117 593 z "},"\"":{"ha":233,"x_min":70,"x_max":241,"o":"m 91 607 q 100 609 91 609 q 120 606 109 609 q 142 599 131 604 q 152 587 152 594 q 140 549 150 569 q 118 513 130 530 q 92 485 106 496 q 70 472 78 474 l 72 474 q 77 495 72 480 q 86 531 81 511 q 94 572 91 552 q 91 607 96 593 m 176 607 q 186 609 176 609 q 209 606 196 609 q 231 599 222 604 q 237 587 241 594 q 225 549 235 569 q 203 513 215 530 q 177 485 191 496 q 156 472 163 474 l 157 474 q 162 495 157 480 q 171 531 167 511 q 179 572 176 552 q 176 607 181 593 z "},"":{"ha":248,"x_min":50,"x_max":204,"o":"m 52 728 q 55 775 54 748 q 59 806 56 802 q 79 812 67 811 q 101 811 91 813 q 118 805 111 809 q 122 796 124 800 q 102 766 115 783 q 78 735 89 748 q 58 718 67 722 q 52 728 50 713 m 109 735 q 130 779 119 754 q 146 804 141 804 q 165 804 154 807 q 185 794 176 800 q 199 782 194 789 q 202 774 204 776 q 172 753 191 765 q 138 732 154 741 q 113 723 122 724 q 109 735 104 722 z "},".":{"ha":146,"x_min":39,"x_max":113,"o":"m 41 -9 q 44 38 43 11 q 48 69 44 65 q 68 75 56 74 q 90 74 80 76 q 106 68 100 72 q 111 59 113 63 q 91 29 104 46 q 67 -2 78 11 q 47 -19 56 -15 q 41 -9 39 -24 z "},";":{"ha":137,"x_min":13,"x_max":139,"o":"m 67 46 q 69 94 69 67 q 74 124 70 120 q 94 131 81 130 q 116 130 106 131 q 132 123 126 128 q 137 115 139 119 q 117 84 130 102 q 93 54 104 67 q 73 36 81 41 q 67 46 65 31 m 33 22 q 43 24 33 24 q 63 21 52 24 q 84 14 74 19 q 94 2 94 9 q 82 -36 93 -17 q 60 -72 72 -56 q 34 -100 48 -89 q 13 -113 20 -111 l 15 -111 q 19 -90 15 -106 q 29 -54 24 -74 q 36 -13 33 -33 q 33 22 39 7 z "},",":{"ha":183,"x_min":48,"x_max":130,"o":"m 69 65 q 78 67 69 67 q 98 64 87 67 q 119 56 109 61 q 130 44 130 52 q 118 6 128 26 q 95 -30 107 -13 q 69 -57 83 -46 q 48 -70 56 -69 l 50 -69 q 55 -47 50 -63 q 64 -11 59 -31 q 71 30 69 9 q 69 65 74 50 z "},":":{"ha":224,"x_min":52,"x_max":176,"o":"m 54 -9 q 56 38 56 11 q 61 69 57 65 q 81 75 69 74 q 103 74 93 76 q 119 68 113 72 q 124 59 126 63 q 104 29 117 46 q 80 -2 91 11 q 60 -19 69 -15 q 54 -9 52 -24 m 104 231 q 106 279 106 252 q 111 309 107 306 q 131 316 119 315 q 153 315 143 317 q 169 308 163 313 q 174 300 176 304 q 154 269 167 287 q 130 239 141 252 q 110 221 119 226 q 104 231 102 217 z "},"*":{"ha":294,"x_min":67,"x_max":233,"o":"m 226 515 q 232 506 231 515 q 233 489 233 498 l 233 474 l 202 474 l 222 463 q 226 457 226 459 q 219 441 226 450 q 202 422 211 431 l 172 446 l 172 407 q 166 399 172 402 q 150 396 159 396 q 135 404 135 396 l 135 450 q 96 413 113 433 q 84 429 93 417 q 76 444 76 441 q 78 446 78 446 l 87 459 q 93 462 91 461 q 100 474 94 463 l 69 474 q 67 481 67 474 q 69 502 67 491 q 74 513 70 513 l 98 513 l 98 515 q 87 525 93 517 q 81 537 81 533 q 89 555 81 546 q 102 563 96 563 q 116 552 106 563 q 135 535 126 541 l 135 576 q 139 578 135 578 q 158 575 146 578 q 170 569 170 572 l 170 541 l 198 565 q 202 569 198 569 q 215 557 206 569 q 224 537 224 546 q 215 529 224 533 q 202 515 206 524 l 226 515 z "},"#":{"ha":374,"x_min":87,"x_max":267,"o":"m 211 563 q 227 568 213 567 q 243 565 241 569 q 241 557 243 561 q 235 541 237 550 q 230 519 233 531 q 249 519 241 519 q 261 520 257 519 q 267 515 267 520 q 267 504 267 509 l 265 494 q 263 493 265 493 l 254 493 q 244 494 250 493 q 231 494 237 494 l 224 494 l 219 481 l 241 481 q 245 475 244 481 q 244 459 246 469 q 244 456 244 457 q 243 454 243 456 q 241 452 243 452 l 231 452 q 223 453 228 452 q 213 454 219 454 l 209 454 q 194 413 202 430 q 183 400 187 396 q 174 409 172 400 l 185 456 l 167 457 l 154 457 q 137 414 144 431 q 126 398 130 396 q 118 402 120 398 q 122 435 115 406 l 130 459 q 106 463 115 461 q 93 467 96 465 q 92 468 96 467 q 96 481 87 469 l 135 481 l 139 500 l 115 506 q 115 509 119 506 q 119 522 111 513 l 144 522 q 153 555 150 541 q 157 572 156 569 q 175 577 159 576 q 193 574 191 578 q 185 554 189 569 q 176 520 181 539 l 202 520 q 207 547 206 535 q 211 563 209 559 m 161 481 l 191 481 q 194 498 194 493 l 191 498 l 169 498 l 161 481 z "},"-":{"ha":189,"x_min":11,"x_max":174,"o":"m 169 196 q 172 178 174 196 q 167 159 170 159 q 91 165 137 159 q 19 174 44 170 q 17 177 22 174 q 20 193 11 180 l 169 196 z "},"":{"ha":189,"x_min":11,"x_max":174,"o":"m 169 196 q 172 178 174 196 q 167 159 170 159 q 91 165 137 159 q 19 174 44 170 q 17 177 22 174 q 20 193 11 180 l 169 196 z "},"+":{"ha":191,"x_min":7,"x_max":170,"o":"m 94 254 q 113 253 96 259 q 130 243 130 246 l 115 194 l 165 196 q 169 178 170 196 q 163 159 167 159 q 135 159 150 159 q 104 161 120 159 l 81 104 q 78 103 83 107 q 63 109 72 98 l 74 165 q 41 169 56 169 q 15 174 26 170 q 13 177 19 174 q 17 193 7 180 l 81 194 l 94 254 z "},"":{"ha":224,"x_min":28,"x_max":191,"o":"m 185 196 q 189 178 191 196 q 183 159 187 159 q 107 165 154 159 q 35 174 61 170 q 33 177 39 174 q 37 193 28 180 l 185 196 m 111 204 q 113 232 113 217 q 117 252 113 248 q 142 254 126 257 q 154 244 157 250 q 143 227 150 237 q 128 208 135 217 q 116 197 120 200 q 111 204 111 194 m 109 152 q 107 123 107 139 q 104 104 107 107 q 79 102 94 98 q 67 111 63 106 q 78 129 70 119 q 92 147 85 139 q 104 157 98 156 q 109 152 109 159 z "},"":{"ha":267,"x_min":39,"x_max":213,"o":"m 207 196 q 211 178 213 196 q 206 159 209 159 q 169 160 191 159 q 123 163 146 161 q 80 168 100 165 q 46 172 59 170 q 44 175 50 172 q 48 191 39 178 l 207 196 z "},"":{"ha":289,"x_min":48,"x_max":235,"o":"m 230 196 q 233 178 235 196 q 228 159 231 159 q 189 160 213 159 q 140 163 165 161 q 92 168 115 165 q 56 172 69 170 q 54 175 59 172 q 57 191 48 178 l 230 196 z "},"_":{"ha":298,"x_min":22,"x_max":291,"o":"m 285 -15 q 289 -34 291 -15 q 283 -54 287 -54 q 231 -53 269 -54 q 154 -50 194 -52 q 78 -46 113 -48 q 30 -43 43 -44 q 28 -39 33 -43 q 31 -24 22 -35 l 285 -15 z "},"":{"ha":230,"x_min":56,"x_max":187,"o":"m 70 237 q 73 243 69 239 q 84 249 78 246 q 96 254 91 252 q 104 254 102 256 l 126 209 l 161 244 q 168 242 163 246 q 177 231 172 237 q 184 221 181 226 q 185 215 187 217 q 165 196 176 206 q 141 176 154 187 l 165 119 q 161 116 161 122 q 146 111 161 109 l 117 159 q 67 124 87 135 q 65 125 70 126 q 56 139 59 124 l 102 185 l 70 237 z "},"=":{"ha":352,"x_min":91,"x_max":257,"o":"m 252 206 q 256 187 257 206 q 250 169 254 169 q 174 174 220 169 q 102 183 128 180 q 100 186 106 183 q 104 202 94 189 l 252 206 m 248 161 q 252 143 254 161 q 246 124 250 124 q 170 130 217 124 q 98 139 124 135 q 96 142 102 139 q 100 157 91 144 l 248 161 z "},"<":{"ha":207,"x_min":26,"x_max":165,"o":"m 30 167 q 26 173 26 170 q 30 185 26 176 l 150 250 q 155 245 152 250 q 160 234 157 241 q 164 221 163 228 q 163 215 165 215 q 109 194 143 206 q 52 174 76 183 q 106 157 74 167 q 156 141 137 148 q 156 134 157 141 q 153 121 156 128 q 147 110 150 115 q 143 106 144 106 l 30 165 l 30 167 z "},">":{"ha":181,"x_min":26,"x_max":165,"o":"m 161 189 q 165 182 165 185 q 161 170 165 180 l 41 106 q 36 110 39 106 q 31 121 33 115 q 27 134 28 128 q 28 141 26 141 q 81 161 48 150 q 139 181 115 172 q 85 198 117 189 q 35 215 54 207 q 34 221 33 215 q 38 234 35 228 q 44 245 41 241 q 48 250 46 250 l 161 191 l 161 189 z "},"":{"ha":322,"x_min":26,"x_max":261,"o":"m 126 167 q 122 173 122 170 q 126 185 122 176 l 246 250 q 251 245 248 250 q 256 234 254 241 q 260 221 259 228 q 259 215 261 215 q 206 194 239 206 q 148 174 172 183 q 202 157 170 167 q 252 141 233 148 q 253 134 254 141 q 249 121 252 128 q 244 110 246 115 q 239 106 241 106 l 126 165 l 126 167 m 30 167 q 26 173 26 170 q 30 185 26 176 l 150 250 q 155 245 152 250 q 160 234 157 241 q 164 221 163 228 q 163 215 165 215 q 109 194 143 206 q 52 174 76 183 q 106 157 74 167 q 156 141 137 148 q 156 134 157 141 q 153 121 156 128 q 147 110 150 115 q 143 106 144 106 l 30 165 l 30 167 z "},"":{"ha":320,"x_min":43,"x_max":278,"o":"m 178 189 q 181 182 181 185 q 178 170 181 180 l 57 106 q 53 110 56 106 q 47 121 50 115 q 44 134 44 128 q 44 141 43 141 q 98 161 65 150 q 156 181 131 172 q 102 198 133 189 q 52 215 70 207 q 51 221 50 215 q 55 234 52 228 q 60 245 57 241 q 65 250 63 250 l 178 191 l 178 189 m 274 189 q 278 182 278 185 q 274 170 278 180 l 154 106 q 149 110 152 106 q 144 121 146 115 q 140 134 141 128 q 141 141 139 141 q 194 161 161 150 q 252 181 228 172 q 198 198 230 189 q 148 215 167 207 q 147 221 146 215 q 151 234 148 228 q 156 245 154 241 q 161 250 159 250 l 274 191 l 274 189 z "},"":{"ha":228,"x_min":26,"x_max":165,"o":"m 30 167 q 26 173 26 170 q 30 185 26 176 l 150 250 q 155 245 152 250 q 160 234 157 241 q 164 221 163 228 q 163 215 165 215 q 109 194 143 206 q 52 174 76 183 q 106 157 74 167 q 156 141 137 148 q 156 134 157 141 q 153 121 156 128 q 147 110 150 115 q 143 106 144 106 l 30 165 l 30 167 z "},"":{"ha":202,"x_min":33,"x_max":172,"o":"m 169 189 q 172 182 172 185 q 169 170 172 180 l 48 106 q 44 110 46 106 q 38 121 41 115 q 34 134 35 128 q 35 141 33 141 q 89 161 56 150 q 146 181 122 172 q 93 198 124 189 q 43 215 61 207 q 42 221 41 215 q 45 234 43 228 q 51 245 48 241 q 56 250 54 250 l 169 191 l 169 189 z "},"":{"ha":320,"x_min":56,"x_max":239,"o":"m 237 743 q 232 734 239 741 q 216 722 226 728 q 195 713 206 717 q 181 713 185 709 q 161 785 161 743 q 132 747 148 767 q 100 713 117 728 q 84 713 93 709 q 69 722 76 717 q 59 734 63 728 q 59 743 56 741 q 89 759 72 746 q 121 788 106 772 q 150 818 137 804 q 170 837 163 831 q 173 840 170 839 q 180 837 176 841 q 188 818 183 831 q 200 788 193 804 q 216 759 207 772 q 237 743 224 746 z "},"":{"ha":272,"x_min":26,"x_max":244,"o":"m 228 765 q 199 736 219 750 q 152 726 180 722 q 130 734 139 726 q 114 752 120 743 q 101 769 107 761 q 87 776 94 776 q 73 771 78 776 q 68 761 69 767 q 69 751 67 756 q 70 746 70 746 q 72 737 76 743 q 62 727 69 731 q 48 719 56 722 q 37 719 41 715 q 27 744 28 726 q 35 778 26 761 q 63 806 44 794 q 109 809 81 817 q 130 795 124 806 q 138 772 135 785 q 144 750 141 759 q 161 741 148 741 q 196 759 181 741 q 202 811 211 778 q 206 820 200 817 q 219 825 211 824 q 234 824 228 826 q 243 819 241 822 q 242 797 244 811 q 228 765 239 783 z "},"":{"ha":343,"x_min":-39,"x_max":367,"o":"m 187 206 q 202 225 193 215 q 231 230 211 235 q 195 265 226 256 q 137 259 165 274 q 89 220 111 244 q 49 167 67 196 q 20 107 31 137 q 6 54 9 78 q 21 3 -2 11 q 67 20 44 -6 q 125 101 94 50 q 187 206 156 152 m 346 154 q 359 161 352 167 q 363 148 367 156 q 346 99 359 131 q 313 36 333 67 q 266 -13 293 6 q 209 -19 239 -31 q 173 32 181 -7 q 172 109 165 72 q 144 70 161 94 q 106 24 126 46 q 67 -14 87 2 q 30 -24 46 -30 q -12 -2 2 -17 q -30 28 -26 13 q -31 103 -39 61 q -6 183 -24 144 q 40 255 13 222 q 98 302 67 287 q 156 313 128 315 q 206 297 183 311 q 241 263 228 283 q 252 220 254 243 q 263 205 254 211 q 259 169 272 198 q 239 112 248 141 q 226 59 230 83 q 224 19 222 35 q 237 2 226 4 q 265 14 250 0 q 294 51 280 28 q 322 101 309 74 q 346 154 335 128 m 154 474 q 151 439 148 459 q 158 398 154 419 q 168 362 163 378 q 172 341 172 346 l 174 339 q 152 352 165 341 q 127 380 139 363 q 105 416 115 396 q 93 454 94 435 q 103 466 93 461 q 124 473 113 470 q 144 476 135 476 q 154 474 154 476 z "},"":{"ha":343,"x_min":-39,"x_max":367,"o":"m 187 206 q 202 225 193 215 q 231 230 211 235 q 195 265 226 256 q 137 259 165 274 q 89 220 111 244 q 49 167 67 196 q 20 107 31 137 q 6 54 9 78 q 21 3 -2 11 q 67 20 44 -6 q 125 101 94 50 q 187 206 156 152 m 346 154 q 359 161 352 167 q 363 148 367 156 q 346 99 359 131 q 313 36 333 67 q 266 -13 293 6 q 209 -19 239 -31 q 173 32 181 -7 q 172 109 165 72 q 144 70 161 94 q 106 24 126 46 q 67 -14 87 2 q 30 -24 46 -30 q -12 -2 2 -17 q -30 28 -26 13 q -31 103 -39 61 q -6 183 -24 144 q 40 255 13 222 q 98 302 67 287 q 156 313 128 315 q 206 297 183 311 q 241 263 228 283 q 252 220 254 243 q 263 205 254 211 q 259 169 272 198 q 239 112 248 141 q 226 59 230 83 q 224 19 222 35 q 237 2 226 4 q 265 14 250 0 q 294 51 280 28 q 322 101 309 74 q 346 154 335 128 m 163 481 q 172 483 163 483 q 193 481 181 483 q 214 473 204 478 q 224 461 224 469 q 212 423 222 443 q 190 387 202 404 q 164 359 178 370 q 143 346 150 348 l 144 348 q 149 369 144 354 q 158 406 154 385 q 166 446 163 426 q 163 481 169 467 z "},"":{"ha":343,"x_min":-39,"x_max":367,"o":"m 187 206 q 202 225 193 215 q 231 230 211 235 q 195 265 226 256 q 137 259 165 274 q 89 220 111 244 q 49 167 67 196 q 20 107 31 137 q 6 54 9 78 q 21 3 -2 11 q 67 20 44 -6 q 125 101 94 50 q 187 206 156 152 m 346 154 q 359 161 352 167 q 363 148 367 156 q 346 99 359 131 q 313 36 333 67 q 266 -13 293 6 q 209 -19 239 -31 q 173 32 181 -7 q 172 109 165 72 q 144 70 161 94 q 106 24 126 46 q 67 -14 87 2 q 30 -24 46 -30 q -12 -2 2 -17 q -30 28 -26 13 q -31 103 -39 61 q -6 183 -24 144 q 40 255 13 222 q 98 302 67 287 q 156 313 128 315 q 206 297 183 311 q 241 263 228 283 q 252 220 254 243 q 263 205 254 211 q 259 169 272 198 q 239 112 248 141 q 226 59 230 83 q 224 19 222 35 q 237 2 226 4 q 265 14 250 0 q 294 51 280 28 q 322 101 309 74 q 346 154 335 128 m 263 374 q 258 366 265 372 q 242 354 252 359 q 221 344 231 348 q 207 344 211 341 q 187 417 187 374 q 158 379 174 398 q 126 344 143 359 q 110 344 119 341 q 95 354 102 348 q 85 366 89 359 q 85 374 81 372 q 115 391 98 378 q 147 419 131 404 q 176 449 163 435 q 196 469 189 463 q 199 471 196 470 q 206 469 202 472 q 214 449 209 463 q 226 419 219 435 q 242 391 233 404 q 263 374 250 378 z "},"":{"ha":343,"x_min":-39,"x_max":367,"o":"m 187 206 q 202 225 193 215 q 231 230 211 235 q 195 265 226 256 q 137 259 165 274 q 89 220 111 244 q 49 167 67 196 q 20 107 31 137 q 6 54 9 78 q 21 3 -2 11 q 67 20 44 -6 q 125 101 94 50 q 187 206 156 152 m 346 154 q 359 161 352 167 q 363 148 367 156 q 346 99 359 131 q 313 36 333 67 q 266 -13 293 6 q 209 -19 239 -31 q 173 32 181 -7 q 172 109 165 72 q 144 70 161 94 q 106 24 126 46 q 67 -14 87 2 q 30 -24 46 -30 q -12 -2 2 -17 q -30 28 -26 13 q -31 103 -39 61 q -6 183 -24 144 q 40 255 13 222 q 98 302 67 287 q 156 313 128 315 q 206 297 183 311 q 241 263 228 283 q 252 220 254 243 q 263 205 254 211 q 259 169 272 198 q 239 112 248 141 q 226 59 230 83 q 224 19 222 35 q 237 2 226 4 q 265 14 250 0 q 294 51 280 28 q 322 101 309 74 q 346 154 335 128 m 269 378 q 240 349 259 363 q 193 339 220 335 q 170 347 180 339 q 155 365 161 356 q 142 381 148 374 q 128 389 135 389 q 114 384 119 389 q 108 374 109 380 q 109 364 107 369 q 111 359 111 359 q 113 350 117 356 q 103 340 109 344 q 89 331 96 335 q 78 331 81 328 q 68 356 69 339 q 76 391 67 374 q 104 419 85 407 q 150 422 122 430 q 170 408 165 419 q 179 385 176 398 q 185 363 181 372 q 202 354 189 354 q 237 372 222 354 q 243 424 252 391 q 246 433 241 430 q 260 438 252 437 q 275 437 269 439 q 283 431 281 435 q 282 410 285 424 q 269 378 280 396 z "},"":{"ha":343,"x_min":-39,"x_max":367,"o":"m 187 206 q 202 225 193 215 q 231 230 211 235 q 195 265 226 256 q 137 259 165 274 q 89 220 111 244 q 49 167 67 196 q 20 107 31 137 q 6 54 9 78 q 21 3 -2 11 q 67 20 44 -6 q 125 101 94 50 q 187 206 156 152 m 346 154 q 359 161 352 167 q 363 148 367 156 q 346 99 359 131 q 313 36 333 67 q 266 -13 293 6 q 209 -19 239 -31 q 173 32 181 -7 q 172 109 165 72 q 144 70 161 94 q 106 24 126 46 q 67 -14 87 2 q 30 -24 46 -30 q -12 -2 2 -17 q -30 28 -26 13 q -31 103 -39 61 q -6 183 -24 144 q 40 255 13 222 q 98 302 67 287 q 156 313 128 315 q 206 297 183 311 q 241 263 228 283 q 252 220 254 243 q 263 205 254 211 q 259 169 272 198 q 239 112 248 141 q 226 59 230 83 q 224 19 222 35 q 237 2 226 4 q 265 14 250 0 q 294 51 280 28 q 322 101 309 74 q 346 154 335 128 m 130 348 q 132 395 131 369 q 137 426 133 422 q 156 432 144 431 q 179 431 169 433 q 195 425 189 430 q 200 417 202 420 q 180 386 193 404 q 156 356 167 369 q 136 338 144 343 q 130 348 128 333 m 187 356 q 207 399 196 374 q 224 424 219 424 q 243 424 231 428 q 263 415 254 420 q 277 403 272 409 q 280 394 281 396 q 250 373 269 385 q 216 353 231 361 q 191 344 200 344 q 187 356 181 343 z "},"":{"ha":250,"x_min":-31,"x_max":276,"o":"m 26 52 q 88 0 41 7 q 198 59 135 -7 q 234 109 220 83 q 257 161 248 135 q 269 165 261 170 q 274 150 276 159 q 238 75 263 109 q 181 16 213 41 q 117 -20 150 -9 q 56 -24 83 -31 q -7 16 13 -15 q -30 85 -28 46 q -18 166 -31 124 q 21 242 -4 207 q 81 296 46 276 q 154 313 115 317 q 204 270 196 307 q 200 208 211 239 q 165 158 189 178 q 107 134 141 139 q 39 152 74 130 q 37 153 37 152 q 35 154 37 154 q 26 52 11 94 m 46 174 q 96 155 74 152 q 135 172 119 157 q 159 208 152 187 q 165 248 167 230 q 147 265 161 263 q 117 254 133 267 q 44 174 72 219 l 46 174 m 133 480 q 131 444 128 465 q 138 404 133 424 q 147 368 143 383 q 152 346 152 352 l 154 344 q 131 357 144 346 q 106 385 119 369 q 84 421 94 402 q 72 459 74 441 q 82 471 72 467 q 104 479 93 476 q 124 481 115 481 q 133 480 133 481 z "},"":{"ha":250,"x_min":-31,"x_max":276,"o":"m 26 52 q 88 0 41 7 q 198 59 135 -7 q 234 109 220 83 q 257 161 248 135 q 269 165 261 170 q 274 150 276 159 q 238 75 263 109 q 181 16 213 41 q 117 -20 150 -9 q 56 -24 83 -31 q -7 16 13 -15 q -30 85 -28 46 q -18 166 -31 124 q 21 242 -4 207 q 81 296 46 276 q 154 313 115 317 q 204 270 196 307 q 200 208 211 239 q 165 158 189 178 q 107 134 141 139 q 39 152 74 130 q 37 153 37 152 q 35 154 37 154 q 26 52 11 94 m 46 174 q 96 155 74 152 q 135 172 119 157 q 159 208 152 187 q 165 248 167 230 q 147 265 161 263 q 117 254 133 267 q 44 174 72 219 l 46 174 m 157 480 q 167 481 157 481 q 187 479 176 481 q 208 471 198 476 q 219 459 219 467 q 206 421 217 441 q 184 385 196 402 q 158 357 172 369 q 137 344 144 346 l 139 346 q 144 368 139 352 q 153 404 148 383 q 160 444 157 424 q 157 480 163 465 z "},"":{"ha":250,"x_min":-31,"x_max":276,"o":"m 26 52 q 88 0 41 7 q 198 59 135 -7 q 234 109 220 83 q 257 161 248 135 q 269 165 261 170 q 274 150 276 159 q 238 75 263 109 q 181 16 213 41 q 117 -20 150 -9 q 56 -24 83 -31 q -7 16 13 -15 q -30 85 -28 46 q -18 166 -31 124 q 21 242 -4 207 q 81 296 46 276 q 154 313 115 317 q 204 270 196 307 q 200 208 211 239 q 165 158 189 178 q 107 134 141 139 q 39 152 74 130 q 37 153 37 152 q 35 154 37 154 q 26 52 11 94 m 46 174 q 96 155 74 152 q 135 172 119 157 q 159 208 152 187 q 165 248 167 230 q 147 265 161 263 q 117 254 133 267 q 44 174 72 219 l 46 174 m 243 374 q 238 366 244 372 q 221 354 231 359 q 201 344 211 348 q 187 344 191 341 q 167 417 167 374 q 138 379 154 398 q 106 344 122 359 q 90 344 98 341 q 75 354 81 348 q 65 366 69 359 q 65 374 61 372 q 94 391 78 378 q 127 419 111 404 q 156 449 143 435 q 176 469 169 463 q 179 471 176 470 q 185 469 181 472 q 194 449 189 463 q 206 419 198 435 q 221 391 213 404 q 243 374 230 378 z "},"":{"ha":250,"x_min":-31,"x_max":276,"o":"m 26 52 q 88 0 41 7 q 198 59 135 -7 q 234 109 220 83 q 257 161 248 135 q 269 165 261 170 q 274 150 276 159 q 238 75 263 109 q 181 16 213 41 q 117 -20 150 -9 q 56 -24 83 -31 q -7 16 13 -15 q -30 85 -28 46 q -18 166 -31 124 q 21 242 -4 207 q 81 296 46 276 q 154 313 115 317 q 204 270 196 307 q 200 208 211 239 q 165 158 189 178 q 107 134 141 139 q 39 152 74 130 q 37 153 37 152 q 35 154 37 154 q 26 52 11 94 m 46 174 q 96 155 74 152 q 135 172 119 157 q 159 208 152 187 q 165 248 167 230 q 147 265 161 263 q 117 254 133 267 q 44 174 72 219 l 46 174 m 106 352 q 108 399 107 372 q 113 430 109 426 q 132 436 120 435 q 155 435 144 437 q 171 429 165 433 q 176 420 178 424 q 156 390 169 407 q 131 359 143 372 q 112 342 120 346 q 106 352 104 337 m 163 359 q 183 403 172 378 q 200 428 194 428 q 219 428 207 431 q 239 419 230 424 q 253 406 248 413 q 256 398 257 400 q 226 377 244 389 q 192 356 207 365 q 167 347 176 348 q 163 359 157 346 z "},"":{"ha":133,"x_min":-33,"x_max":154,"o":"m 20 283 q 37 303 26 302 q 59 297 48 304 q 78 281 70 291 q 83 267 85 270 q 62 213 78 254 q 31 128 46 172 q 9 45 17 83 q 15 2 2 7 q 40 9 24 -4 q 73 44 56 22 q 106 95 91 67 q 133 150 122 124 q 145 159 137 165 q 150 146 154 154 q 131 96 146 130 q 92 33 115 63 q 42 -15 69 4 q -11 -19 15 -33 q -33 35 -33 -7 q -23 128 -33 78 q 1 223 -13 178 q 20 283 15 269 m 65 481 q 62 446 59 467 q 69 406 65 426 q 79 369 74 385 q 83 348 83 354 l 85 346 q 63 359 76 348 q 38 387 50 370 q 16 423 26 404 q 4 461 6 443 q 14 473 4 469 q 35 481 24 478 q 56 483 46 483 q 65 481 65 483 z "},"":{"ha":133,"x_min":-33,"x_max":154,"o":"m 20 283 q 37 303 26 302 q 59 297 48 304 q 78 281 70 291 q 83 267 85 270 q 62 213 78 254 q 31 128 46 172 q 9 45 17 83 q 15 2 2 7 q 40 9 24 -4 q 73 44 56 22 q 106 95 91 67 q 133 150 122 124 q 145 159 137 165 q 150 146 154 154 q 131 96 146 130 q 92 33 115 63 q 42 -15 69 4 q -11 -19 15 -33 q -33 35 -33 -7 q -23 128 -33 78 q 1 223 -13 178 q 20 283 15 269 m 81 478 q 91 480 81 480 q 111 477 100 480 q 132 469 122 474 q 143 457 143 465 q 131 419 141 439 q 108 383 120 400 q 82 356 96 367 q 61 343 69 344 l 63 344 q 68 366 63 350 q 77 402 72 381 q 84 443 81 422 q 81 478 87 463 z "},"":{"ha":133,"x_min":-33,"x_max":165,"o":"m 20 283 q 37 303 26 302 q 59 297 48 304 q 78 281 70 291 q 83 267 85 270 q 62 213 78 254 q 31 128 46 172 q 9 45 17 83 q 15 2 2 7 q 40 9 24 -4 q 73 44 56 22 q 106 95 91 67 q 133 150 122 124 q 145 159 137 165 q 150 146 154 154 q 131 96 146 130 q 92 33 115 63 q 42 -15 69 4 q -11 -19 15 -33 q -33 35 -33 -7 q -23 128 -33 78 q 1 223 -13 178 q 20 283 15 269 m 163 378 q 158 369 165 376 q 142 357 152 363 q 121 348 131 352 q 107 348 111 344 q 87 420 87 378 q 58 382 74 402 q 26 348 43 363 q 10 348 19 344 q -5 357 2 352 q -15 369 -11 363 q -15 378 -19 376 q 15 394 -2 381 q 47 423 31 407 q 76 453 63 439 q 96 472 89 467 q 99 475 96 474 q 106 472 102 476 q 114 453 109 467 q 126 423 119 439 q 142 394 133 407 q 163 378 150 381 z "},"":{"ha":133,"x_min":-33,"x_max":183,"o":"m 20 283 q 37 303 26 302 q 59 297 48 304 q 78 281 70 291 q 83 267 85 270 q 62 213 78 254 q 31 128 46 172 q 9 45 17 83 q 15 2 2 7 q 40 9 24 -4 q 73 44 56 22 q 106 95 91 67 q 133 150 122 124 q 145 159 137 165 q 150 146 154 154 q 131 96 146 130 q 92 33 115 63 q 42 -15 69 4 q -11 -19 15 -33 q -33 35 -33 -7 q -23 128 -33 78 q 1 223 -13 178 q 20 283 15 269 m 31 352 q 34 399 33 372 q 39 430 35 426 q 58 436 46 435 q 81 435 70 437 q 97 429 91 433 q 102 420 104 424 q 81 390 94 407 q 57 359 69 372 q 38 342 46 346 q 31 352 30 337 m 89 359 q 109 403 98 378 q 126 428 120 428 q 144 428 133 431 q 165 419 156 424 q 179 406 174 413 q 181 398 183 400 q 152 377 170 389 q 118 356 133 365 q 93 347 102 348 q 89 359 83 346 z "},"":{"ha":300,"x_min":-44,"x_max":328,"o":"m 189 87 q 181 29 183 56 q 194 0 180 2 q 222 12 207 -2 q 253 49 237 26 q 282 100 269 72 q 307 154 296 128 q 320 161 313 167 q 324 148 328 156 q 306 98 320 131 q 271 34 293 65 q 223 -15 250 4 q 167 -20 196 -33 q 138 19 144 -11 q 135 80 131 48 q 151 172 139 126 q 172 246 163 219 q 170 266 178 267 q 154 254 163 265 q 108 181 143 241 q 41 43 74 122 q 30 11 35 28 q 20 -20 24 -6 l 20 -17 q 3 -22 15 -28 q -19 -4 -9 -17 q -37 26 -30 9 q -41 57 -44 43 q -28 108 -35 76 q -12 177 -20 141 q 5 247 -4 213 q 22 306 13 281 q 40 316 28 317 q 64 308 52 315 q 84 294 76 302 q 91 280 93 285 q 69 238 81 263 q 44 185 56 213 q 24 130 33 157 q 13 80 15 102 q 16 57 11 54 q 33 87 20 61 q 63 146 46 113 q 97 211 80 180 q 132 269 115 243 q 165 309 150 296 q 192 311 174 317 q 225 294 209 306 q 249 265 241 281 q 246 235 257 248 q 215 175 231 217 q 189 87 198 133 m 259 381 q 231 353 250 367 q 183 343 211 339 q 161 351 170 343 q 145 369 152 359 q 132 385 139 378 q 119 393 126 393 q 105 388 109 393 q 99 378 100 383 q 100 368 98 372 q 102 363 102 363 q 104 354 107 359 q 94 344 100 348 q 80 335 87 339 q 69 335 72 331 q 58 360 59 343 q 67 394 57 378 q 94 422 76 411 q 141 426 113 433 q 161 412 156 422 q 169 389 167 402 q 176 367 172 376 q 193 357 180 357 q 228 376 213 357 q 233 428 243 394 q 237 437 231 433 q 251 442 243 441 q 266 441 259 443 q 274 435 272 439 q 273 414 276 428 q 259 381 270 400 z "},"":{"ha":280,"x_min":-37,"x_max":289,"o":"m -4 -7 q -31 50 -26 11 q -29 133 -37 89 q 1 219 -20 178 q 54 287 22 261 q 101 310 74 304 q 148 313 128 317 q 197 282 181 307 q 217 225 213 257 q 215 157 220 193 q 200 98 209 122 q 231 94 215 87 q 260 111 248 100 q 281 131 272 122 q 287 131 289 139 q 270 93 283 106 q 243 74 257 80 q 213 69 228 69 q 193 72 198 70 q 171 29 181 46 q 135 -11 161 11 q 99 -30 119 -26 q 61 -31 80 -33 q 26 -23 43 -30 q 0 -7 9 -17 l -4 -7 m 107 4 q 140 58 128 26 q 152 96 152 91 q 130 138 137 113 q 121 191 122 163 q 125 244 120 219 q 139 291 130 270 q 106 269 119 283 q 68 220 85 250 q 38 157 50 191 q 20 92 26 124 q 19 35 15 59 q 56 -19 28 -17 q 107 4 85 -22 m 161 120 q 167 145 163 128 q 172 183 170 163 q 175 224 174 204 q 174 259 176 244 q 163 289 172 280 q 144 243 150 269 q 140 191 139 217 q 146 145 141 165 q 161 120 152 126 m 131 474 q 129 439 126 459 q 136 398 131 419 q 145 362 141 378 q 150 341 150 346 l 152 339 q 130 352 143 341 q 105 380 117 363 q 82 416 93 396 q 70 454 72 435 q 81 466 70 461 q 102 473 91 470 q 122 476 113 476 q 131 474 131 476 z "},"":{"ha":280,"x_min":-37,"x_max":289,"o":"m -4 -7 q -31 50 -26 11 q -29 133 -37 89 q 1 219 -20 178 q 54 287 22 261 q 101 310 74 304 q 148 313 128 317 q 197 282 181 307 q 217 225 213 257 q 215 157 220 193 q 200 98 209 122 q 231 94 215 87 q 260 111 248 100 q 281 131 272 122 q 287 131 289 139 q 270 93 283 106 q 243 74 257 80 q 213 69 228 69 q 193 72 198 70 q 171 29 181 46 q 135 -11 161 11 q 99 -30 119 -26 q 61 -31 80 -33 q 26 -23 43 -30 q 0 -7 9 -17 l -4 -7 m 107 4 q 140 58 128 26 q 152 96 152 91 q 130 138 137 113 q 121 191 122 163 q 125 244 120 219 q 139 291 130 270 q 106 269 119 283 q 68 220 85 250 q 38 157 50 191 q 20 92 26 124 q 19 35 15 59 q 56 -19 28 -17 q 107 4 85 -22 m 161 120 q 167 145 163 128 q 172 183 170 163 q 175 224 174 204 q 174 259 176 244 q 163 289 172 280 q 144 243 150 269 q 140 191 139 217 q 146 145 141 165 q 161 120 152 126 m 161 478 q 170 480 161 480 q 191 477 180 480 q 212 469 202 474 q 222 457 222 465 q 210 419 220 439 q 188 383 200 400 q 162 356 176 367 q 141 343 148 344 l 143 344 q 147 366 143 350 q 156 402 152 381 q 164 443 161 422 q 161 478 167 463 z "},"":{"ha":280,"x_min":-37,"x_max":289,"o":"m -4 -7 q -31 50 -26 11 q -29 133 -37 89 q 1 219 -20 178 q 54 287 22 261 q 101 310 74 304 q 148 313 128 317 q 197 282 181 307 q 217 225 213 257 q 215 157 220 193 q 200 98 209 122 q 231 94 215 87 q 260 111 248 100 q 281 131 272 122 q 287 131 289 139 q 270 93 283 106 q 243 74 257 80 q 213 69 228 69 q 193 72 198 70 q 171 29 181 46 q 135 -11 161 11 q 99 -30 119 -26 q 61 -31 80 -33 q 26 -23 43 -30 q 0 -7 9 -17 l -4 -7 m 107 4 q 140 58 128 26 q 152 96 152 91 q 130 138 137 113 q 121 191 122 163 q 125 244 120 219 q 139 291 130 270 q 106 269 119 283 q 68 220 85 250 q 38 157 50 191 q 20 92 26 124 q 19 35 15 59 q 56 -19 28 -17 q 107 4 85 -22 m 161 120 q 167 145 163 128 q 172 183 170 163 q 175 224 174 204 q 174 259 176 244 q 163 289 172 280 q 144 243 150 269 q 140 191 139 217 q 146 145 141 165 q 161 120 152 126 m 233 378 q 229 369 235 376 q 212 357 222 363 q 192 348 202 352 q 178 348 181 344 q 157 420 157 378 q 129 382 144 402 q 96 348 113 363 q 81 348 89 344 q 66 357 72 352 q 56 369 59 363 q 56 378 52 376 q 85 394 69 381 q 118 423 102 407 q 146 453 133 439 q 167 472 159 467 q 169 475 167 474 q 176 472 172 476 q 184 453 180 467 q 196 423 189 439 q 212 394 204 407 q 233 378 220 381 z "},"":{"ha":280,"x_min":-37,"x_max":289,"o":"m -4 -7 q -31 50 -26 11 q -29 133 -37 89 q 1 219 -20 178 q 54 287 22 261 q 101 310 74 304 q 148 313 128 317 q 197 282 181 307 q 217 225 213 257 q 215 157 220 193 q 200 98 209 122 q 231 94 215 87 q 260 111 248 100 q 281 131 272 122 q 287 131 289 139 q 270 93 283 106 q 243 74 257 80 q 213 69 228 69 q 193 72 198 70 q 171 29 181 46 q 135 -11 161 11 q 99 -30 119 -26 q 61 -31 80 -33 q 26 -23 43 -30 q 0 -7 9 -17 l -4 -7 m 107 4 q 140 58 128 26 q 152 96 152 91 q 130 138 137 113 q 121 191 122 163 q 125 244 120 219 q 139 291 130 270 q 106 269 119 283 q 68 220 85 250 q 38 157 50 191 q 20 92 26 124 q 19 35 15 59 q 56 -19 28 -17 q 107 4 85 -22 m 161 120 q 167 145 163 128 q 172 183 170 163 q 175 224 174 204 q 174 259 176 244 q 163 289 172 280 q 144 243 150 269 q 140 191 139 217 q 146 145 141 165 q 161 120 152 126 m 230 381 q 201 353 220 367 q 154 343 181 339 q 131 351 141 343 q 116 369 122 359 q 103 385 109 378 q 89 393 96 393 q 75 388 80 393 q 69 378 70 383 q 70 368 69 372 q 72 363 72 363 q 74 354 78 359 q 64 344 70 348 q 50 335 57 339 q 39 335 43 331 q 29 360 30 343 q 37 394 28 378 q 65 422 46 411 q 111 426 83 433 q 131 412 126 422 q 140 389 137 402 q 146 367 143 376 q 163 357 150 357 q 198 376 183 357 q 204 428 213 394 q 207 437 202 433 q 221 442 213 441 q 236 441 230 443 q 244 435 243 439 q 244 414 246 428 q 230 381 241 400 z "},"":{"ha":280,"x_min":-37,"x_max":289,"o":"m -4 -7 q -31 50 -26 11 q -29 133 -37 89 q 1 219 -20 178 q 54 287 22 261 q 101 310 74 304 q 148 313 128 317 q 197 282 181 307 q 217 225 213 257 q 215 157 220 193 q 200 98 209 122 q 231 94 215 87 q 260 111 248 100 q 281 131 272 122 q 287 131 289 139 q 270 93 283 106 q 243 74 257 80 q 213 69 228 69 q 193 72 198 70 q 171 29 181 46 q 135 -11 161 11 q 99 -30 119 -26 q 61 -31 80 -33 q 26 -23 43 -30 q 0 -7 9 -17 l -4 -7 m 107 4 q 140 58 128 26 q 152 96 152 91 q 130 138 137 113 q 121 191 122 163 q 125 244 120 219 q 139 291 130 270 q 106 269 119 283 q 68 220 85 250 q 38 157 50 191 q 20 92 26 124 q 19 35 15 59 q 56 -19 28 -17 q 107 4 85 -22 m 161 120 q 167 145 163 128 q 172 183 170 163 q 175 224 174 204 q 174 259 176 244 q 163 289 172 280 q 144 243 150 269 q 140 191 139 217 q 146 145 141 165 q 161 120 152 126 m 102 348 q 105 395 104 369 q 109 426 106 422 q 129 432 117 431 q 151 431 141 433 q 168 425 161 430 q 172 417 174 420 q 152 386 165 404 q 128 356 139 369 q 108 338 117 343 q 102 348 100 333 m 159 356 q 180 399 169 374 q 196 424 191 424 q 215 424 204 428 q 235 415 226 420 q 249 403 244 409 q 252 394 254 396 q 222 373 241 385 q 188 353 204 361 q 163 344 172 344 q 159 356 154 343 z "},"":{"ha":319,"x_min":-31,"x_max":344,"o":"m 257 269 q 249 238 257 263 q 231 181 241 213 q 213 119 222 150 q 200 69 204 87 q 197 15 193 31 q 213 -2 202 -2 q 240 12 224 -2 q 269 50 256 26 q 296 101 281 74 q 322 154 311 128 q 336 161 328 167 q 341 148 344 156 q 322 98 337 131 q 286 34 307 65 q 238 -15 265 4 q 181 -20 211 -33 q 151 19 157 -11 q 148 83 144 50 q 121 42 139 65 q 89 0 104 19 q 52 -22 72 -20 q 13 -15 31 -24 q -18 12 -6 -6 q -30 50 -30 30 q -27 104 -31 72 q -14 169 -22 135 q 6 237 -6 204 q 30 298 17 270 q 47 311 37 311 q 68 304 57 311 q 83 285 78 296 q 85 269 89 274 q 52 195 63 226 q 31 131 41 165 q 12 28 9 59 q 31 -4 15 -4 q 71 25 46 -4 q 122 102 96 54 q 142 146 131 120 q 160 200 152 172 q 177 255 169 228 q 191 302 185 281 q 206 312 194 313 q 229 305 217 311 q 249 287 241 298 q 257 269 257 276 m 141 474 q 138 439 135 459 q 145 398 141 419 q 155 362 150 378 q 159 341 159 346 l 161 339 q 139 352 152 341 q 114 380 126 363 q 92 416 102 396 q 80 454 81 435 q 90 466 80 461 q 111 473 100 470 q 131 476 122 476 q 141 474 141 476 z "},"":{"ha":319,"x_min":-31,"x_max":344,"o":"m 257 269 q 249 238 257 263 q 231 181 241 213 q 213 119 222 150 q 200 69 204 87 q 197 15 193 31 q 213 -2 202 -2 q 240 12 224 -2 q 269 50 256 26 q 296 101 281 74 q 322 154 311 128 q 336 161 328 167 q 341 148 344 156 q 322 98 337 131 q 286 34 307 65 q 238 -15 265 4 q 181 -20 211 -33 q 151 19 157 -11 q 148 83 144 50 q 121 42 139 65 q 89 0 104 19 q 52 -22 72 -20 q 13 -15 31 -24 q -18 12 -6 -6 q -30 50 -30 30 q -27 104 -31 72 q -14 169 -22 135 q 6 237 -6 204 q 30 298 17 270 q 47 311 37 311 q 68 304 57 311 q 83 285 78 296 q 85 269 89 274 q 52 195 63 226 q 31 131 41 165 q 12 28 9 59 q 31 -4 15 -4 q 71 25 46 -4 q 122 102 96 54 q 142 146 131 120 q 160 200 152 172 q 177 255 169 228 q 191 302 185 281 q 206 312 194 313 q 229 305 217 311 q 249 287 241 298 q 257 269 257 276 m 139 485 q 148 487 139 487 q 169 484 157 487 q 190 477 180 481 q 200 465 200 472 q 188 427 198 446 q 166 391 178 407 q 140 363 154 374 q 119 350 126 352 l 120 352 q 125 373 120 357 q 134 409 130 389 q 142 450 139 430 q 139 485 144 470 z "},"":{"ha":319,"x_min":-31,"x_max":344,"o":"m 257 269 q 249 238 257 263 q 231 181 241 213 q 213 119 222 150 q 200 69 204 87 q 197 15 193 31 q 213 -2 202 -2 q 240 12 224 -2 q 269 50 256 26 q 296 101 281 74 q 322 154 311 128 q 336 161 328 167 q 341 148 344 156 q 322 98 337 131 q 286 34 307 65 q 238 -15 265 4 q 181 -20 211 -33 q 151 19 157 -11 q 148 83 144 50 q 121 42 139 65 q 89 0 104 19 q 52 -22 72 -20 q 13 -15 31 -24 q -18 12 -6 -6 q -30 50 -30 30 q -27 104 -31 72 q -14 169 -22 135 q 6 237 -6 204 q 30 298 17 270 q 47 311 37 311 q 68 304 57 311 q 83 285 78 296 q 85 269 89 274 q 52 195 63 226 q 31 131 41 165 q 12 28 9 59 q 31 -4 15 -4 q 71 25 46 -4 q 122 102 96 54 q 142 146 131 120 q 160 200 152 172 q 177 255 169 228 q 191 302 185 281 q 206 312 194 313 q 229 305 217 311 q 249 287 241 298 q 257 269 257 276 m 237 374 q 232 366 239 372 q 216 354 226 359 q 195 344 206 348 q 181 344 185 341 q 161 417 161 374 q 132 379 148 398 q 100 344 117 359 q 84 344 93 341 q 69 354 76 348 q 59 366 63 359 q 59 374 56 372 q 89 391 72 378 q 121 419 106 404 q 150 449 137 435 q 170 469 163 463 q 173 471 170 470 q 180 469 176 472 q 188 449 183 463 q 200 419 193 435 q 216 391 207 404 q 237 374 224 378 z "},"":{"ha":280,"x_min":-37,"x_max":289,"o":"m 181 581 q 195 591 185 591 q 217 586 206 591 q 237 574 228 581 q 248 561 246 567 q 205 418 230 500 q 154 245 180 335 q 102 68 128 156 q 55 -94 76 -20 q 19 -218 33 -167 q 2 -281 6 -269 q -12 -328 -9 -313 q -19 -343 -15 -343 q -28 -327 -28 -343 q -22 -274 -28 -311 q -3 -193 -19 -257 q 34 -40 13 -128 q 80 149 56 48 q 125 339 104 250 q 161 494 146 428 q 181 581 176 561 m -4 -7 q -31 50 -26 11 q -29 133 -37 89 q 1 219 -20 178 q 54 287 22 261 q 101 310 74 304 q 148 313 128 317 q 197 282 181 307 q 217 225 213 257 q 215 157 220 193 q 200 98 209 122 q 231 94 215 87 q 260 111 248 100 q 281 131 272 122 q 287 131 289 139 q 270 93 283 106 q 243 74 257 80 q 213 69 228 69 q 193 72 198 70 q 171 29 181 46 q 135 -11 161 11 q 99 -30 119 -26 q 61 -31 80 -33 q 26 -23 43 -30 q 0 -7 9 -17 l -4 -7 m 107 4 q 140 58 128 26 q 152 96 152 91 q 130 138 137 113 q 121 191 122 163 q 125 244 120 219 q 139 291 130 270 q 106 269 119 283 q 68 220 85 250 q 38 157 50 191 q 20 92 26 124 q 19 35 15 59 q 56 -19 28 -17 q 107 4 85 -22 m 161 120 q 167 145 163 128 q 172 183 170 163 q 175 224 174 204 q 174 259 176 244 q 163 289 172 280 q 144 243 150 269 q 140 191 139 217 q 146 145 141 165 q 161 120 152 126 z "},"":{"ha":319,"x_min":-31,"x_max":344,"o":"m 257 269 q 249 238 257 263 q 231 181 241 213 q 213 119 222 150 q 200 69 204 87 q 197 15 193 31 q 213 -2 202 -2 q 240 12 224 -2 q 269 50 256 26 q 296 101 281 74 q 322 154 311 128 q 336 161 328 167 q 341 148 344 156 q 322 98 337 131 q 286 34 307 65 q 238 -15 265 4 q 181 -20 211 -33 q 151 19 157 -11 q 148 83 144 50 q 121 42 139 65 q 89 0 104 19 q 52 -22 72 -20 q 13 -15 31 -24 q -18 12 -6 -6 q -30 50 -30 30 q -27 104 -31 72 q -14 169 -22 135 q 6 237 -6 204 q 30 298 17 270 q 47 311 37 311 q 68 304 57 311 q 83 285 78 296 q 85 269 89 274 q 52 195 63 226 q 31 131 41 165 q 12 28 9 59 q 31 -4 15 -4 q 71 25 46 -4 q 122 102 96 54 q 142 146 131 120 q 160 200 152 172 q 177 255 169 228 q 191 302 185 281 q 206 312 194 313 q 229 305 217 311 q 249 287 241 298 q 257 269 257 276 m 100 352 q 103 399 102 372 q 107 430 104 426 q 127 436 115 435 q 149 435 139 437 q 166 429 159 433 q 170 420 172 424 q 150 390 163 407 q 126 359 137 372 q 106 342 115 346 q 100 352 98 337 m 157 359 q 178 403 167 378 q 194 428 189 428 q 213 428 202 431 q 233 419 224 424 q 247 406 243 413 q 250 398 252 400 q 220 377 239 389 q 186 356 202 365 q 161 347 170 348 q 157 359 152 346 z "},"":{"ha":296,"x_min":-31,"x_max":324,"o":"m 256 269 q 241 219 252 254 q 219 147 230 185 q 203 77 209 109 q 206 31 196 44 q 224 23 211 17 q 251 49 237 30 q 280 96 265 69 q 304 154 294 124 q 316 161 307 167 q 320 148 324 156 q 306 104 317 131 q 281 52 296 76 q 242 14 265 28 q 191 9 219 0 q 185 11 187 9 l 180 -20 q 246 -24 206 -19 q 309 -37 287 -30 q 320 -52 317 -41 q 324 -74 324 -63 q 320 -93 324 -85 q 311 -94 317 -100 q 249 -66 287 -72 q 170 -57 211 -59 q 156 -96 165 -74 q 133 -138 146 -119 q 104 -170 120 -157 q 69 -183 87 -183 q 6 -152 30 -183 q -7 -87 -17 -120 q 42 -35 6 -44 q 124 -20 78 -26 l 139 56 q 123 29 131 41 q 109 9 115 17 q 64 -20 89 -15 q 18 -19 39 -26 q -18 6 -4 -11 q -31 44 -31 24 q -27 99 -31 67 q -13 167 -22 131 q 8 236 -4 202 q 33 298 20 270 q 50 311 39 311 q 70 304 61 311 q 85 285 80 296 q 87 269 91 274 q 49 195 65 226 q 24 131 33 165 q 14 29 4 59 q 48 2 24 -2 q 102 40 72 6 q 150 131 131 74 q 172 210 161 167 q 198 304 183 254 q 210 311 200 311 q 231 305 220 311 q 250 288 243 298 q 256 269 257 278 m 117 -54 q 78 -54 96 -54 q 44 -59 59 -54 q 19 -77 28 -65 q 9 -111 9 -89 q 26 -153 9 -139 q 61 -161 43 -167 q 84 -145 74 -159 q 100 -115 94 -131 q 109 -81 106 -98 q 117 -54 113 -65 m 135 470 q 144 472 135 472 q 165 469 154 472 q 186 462 176 467 q 196 450 196 457 q 184 412 194 431 q 162 376 174 393 q 136 348 150 359 q 115 335 122 337 l 117 337 q 121 358 117 343 q 131 394 126 374 q 138 435 135 415 q 135 470 141 456 z "},"":{"ha":296,"x_min":-31,"x_max":324,"o":"m 256 269 q 241 219 252 254 q 219 147 230 185 q 203 77 209 109 q 206 31 196 44 q 224 23 211 17 q 251 49 237 30 q 280 96 265 69 q 304 154 294 124 q 316 161 307 167 q 320 148 324 156 q 306 104 317 131 q 281 52 296 76 q 242 14 265 28 q 191 9 219 0 q 185 11 187 9 l 180 -20 q 246 -24 206 -19 q 309 -37 287 -30 q 320 -52 317 -41 q 324 -74 324 -63 q 320 -93 324 -85 q 311 -94 317 -100 q 249 -66 287 -72 q 170 -57 211 -59 q 156 -96 165 -74 q 133 -138 146 -119 q 104 -170 120 -157 q 69 -183 87 -183 q 6 -152 30 -183 q -7 -87 -17 -120 q 42 -35 6 -44 q 124 -20 78 -26 l 139 56 q 123 29 131 41 q 109 9 115 17 q 64 -20 89 -15 q 18 -19 39 -26 q -18 6 -4 -11 q -31 44 -31 24 q -27 99 -31 67 q -13 167 -22 131 q 8 236 -4 202 q 33 298 20 270 q 50 311 39 311 q 70 304 61 311 q 85 285 80 296 q 87 269 91 274 q 49 195 65 226 q 24 131 33 165 q 14 29 4 59 q 48 2 24 -2 q 102 40 72 6 q 150 131 131 74 q 172 210 161 167 q 198 304 183 254 q 210 311 200 311 q 231 305 220 311 q 250 288 243 298 q 256 269 257 278 m 117 -54 q 78 -54 96 -54 q 44 -59 59 -54 q 19 -77 28 -65 q 9 -111 9 -89 q 26 -153 9 -139 q 61 -161 43 -167 q 84 -145 74 -159 q 100 -115 94 -131 q 109 -81 106 -98 q 117 -54 113 -65 m 117 356 q 119 403 119 376 q 124 433 120 430 q 144 440 131 439 q 166 439 156 441 q 182 432 176 437 q 187 424 189 428 q 167 394 180 411 q 143 363 154 376 q 123 345 131 350 q 117 356 115 341 m 174 363 q 194 406 183 381 q 211 431 206 431 q 230 431 219 435 q 250 422 241 428 q 264 410 259 417 q 267 402 269 404 q 237 381 256 393 q 203 360 219 369 q 178 351 187 352 q 174 363 169 350 z "},"":{"ha":491,"x_min":-109,"x_max":530,"o":"m -96 431 q -38 483 -78 454 q 41 533 2 513 q 102 562 70 548 q 165 576 133 576 q 215 555 191 576 q 228 506 239 533 q 188 407 211 465 q 143 287 165 350 q 102 163 120 224 q 76 54 83 102 q 74 -24 69 6 q 107 -52 80 -54 q 188 -13 150 -50 q 259 80 226 24 q 322 201 293 135 q 380 324 352 267 l 428 483 q 442 493 430 491 q 467 491 454 494 q 490 480 480 487 q 500 461 500 472 l 500 454 q 474 398 494 446 q 431 286 454 350 q 392 158 409 222 q 374 57 374 94 q 389 28 374 28 q 418 40 402 28 q 449 72 433 52 q 480 119 465 93 q 506 172 494 144 q 520 185 511 185 q 528 174 530 185 q 508 122 524 154 q 471 63 493 91 q 425 16 450 35 q 376 0 400 -4 q 345 22 354 4 q 337 67 337 41 q 338 106 337 83 q 344 154 339 128 q 295 72 319 115 q 247 -6 272 30 q 194 -66 222 -43 q 133 -89 167 -89 q 81 -79 106 -89 q 43 -49 57 -69 q 21 -5 28 -30 q 22 52 15 20 q 39 136 28 89 q 64 233 50 183 q 94 332 78 283 q 126 422 109 381 q 144 471 135 446 q 152 511 154 496 q 131 528 150 526 q 69 511 113 530 q -12 472 31 494 q -87 424 -56 450 q -107 414 -106 413 q -96 431 -109 415 m 324 731 q 333 733 324 733 q 354 731 343 733 q 375 723 365 728 q 385 711 385 719 q 373 673 383 693 q 351 637 363 654 q 325 609 339 620 q 304 596 311 598 l 306 598 q 310 619 306 604 q 319 656 315 635 q 327 696 324 676 q 324 731 330 717 z "},"":{"ha":491,"x_min":-109,"x_max":530,"o":"m -96 431 q -38 483 -78 454 q 41 533 2 513 q 102 562 70 548 q 165 576 133 576 q 215 555 191 576 q 228 506 239 533 q 188 407 211 465 q 143 287 165 350 q 102 163 120 224 q 76 54 83 102 q 74 -24 69 6 q 107 -52 80 -54 q 188 -13 150 -50 q 259 80 226 24 q 322 201 293 135 q 380 324 352 267 l 428 483 q 442 493 430 491 q 467 491 454 494 q 490 480 480 487 q 500 461 500 472 l 500 454 q 474 398 494 446 q 431 286 454 350 q 392 158 409 222 q 374 57 374 94 q 389 28 374 28 q 418 40 402 28 q 449 72 433 52 q 480 119 465 93 q 506 172 494 144 q 520 185 511 185 q 528 174 530 185 q 508 122 524 154 q 471 63 493 91 q 425 16 450 35 q 376 0 400 -4 q 345 22 354 4 q 337 67 337 41 q 338 106 337 83 q 344 154 339 128 q 295 72 319 115 q 247 -6 272 30 q 194 -66 222 -43 q 133 -89 167 -89 q 81 -79 106 -89 q 43 -49 57 -69 q 21 -5 28 -30 q 22 52 15 20 q 39 136 28 89 q 64 233 50 183 q 94 332 78 283 q 126 422 109 381 q 144 471 135 446 q 152 511 154 496 q 131 528 150 526 q 69 511 113 530 q -12 472 31 494 q -87 424 -56 450 q -107 414 -106 413 q -96 431 -109 415 m 302 739 q 299 704 296 724 q 306 663 302 683 q 316 627 311 643 q 320 606 320 611 l 322 604 q 300 617 313 606 q 275 644 287 628 q 253 681 263 661 q 241 719 243 700 q 251 731 241 726 q 272 738 261 735 q 293 741 283 741 q 302 739 302 741 z "},"":{"ha":585,"x_min":81,"x_max":619,"o":"m 593 272 q 615 274 611 280 q 587 254 619 269 q 557 240 572 246 q 528 228 543 233 q 524 206 526 217 q 519 187 522 196 q 410 -18 480 59 q 243 -87 341 -94 q 163 -56 194 -83 q 116 16 131 -28 q 100 112 100 59 q 113 217 100 165 q 94 252 96 231 q 96 355 81 302 q 144 454 111 407 q 222 532 176 500 q 320 576 269 565 q 425 563 381 587 q 496 492 469 539 q 533 381 524 444 q 533 254 543 319 q 563 262 548 257 q 593 272 578 267 m 326 524 q 257 495 294 519 q 189 438 220 472 q 139 359 157 404 q 126 269 120 315 l 126 261 q 181 357 146 315 q 261 420 215 400 q 289 422 274 426 q 315 409 304 419 q 333 387 326 400 q 341 363 341 374 q 334 366 333 359 q 320 372 335 372 q 237 328 276 372 q 172 220 198 283 q 294 209 217 206 q 470 237 372 213 q 473 347 476 293 q 455 444 470 402 q 407 508 439 485 q 326 524 376 531 m 461 178 l 465 204 q 294 169 374 174 q 161 185 213 165 q 144 97 148 141 q 149 18 141 54 q 181 -42 157 -19 q 243 -67 204 -65 q 317 -49 281 -69 q 380 4 352 -30 q 429 82 407 37 q 461 178 450 128 m 393 687 q 407 696 396 696 q 431 692 419 696 q 453 680 443 687 q 465 667 463 672 q 421 523 446 606 q 370 351 396 441 q 319 173 344 261 q 271 12 293 85 q 236 -112 250 -61 q 219 -176 222 -163 q 193 -237 198 -237 q 183 -221 183 -237 q 189 -169 183 -206 q 208 -87 193 -152 q 245 66 224 -22 q 291 254 267 154 q 336 444 315 354 q 373 600 357 533 q 393 687 389 667 z "},"":{"ha":491,"x_min":-109,"x_max":530,"o":"m -96 431 q -38 483 -78 454 q 41 533 2 513 q 102 562 70 548 q 165 576 133 576 q 215 555 191 576 q 228 506 239 533 q 188 407 211 465 q 143 287 165 350 q 102 163 120 224 q 76 54 83 102 q 74 -24 69 6 q 107 -52 80 -54 q 188 -13 150 -50 q 259 80 226 24 q 322 201 293 135 q 380 324 352 267 l 428 483 q 442 493 430 491 q 467 491 454 494 q 490 480 480 487 q 500 461 500 472 l 500 454 q 474 398 494 446 q 431 286 454 350 q 392 158 409 222 q 374 57 374 94 q 389 28 374 28 q 418 40 402 28 q 449 72 433 52 q 480 119 465 93 q 506 172 494 144 q 520 185 511 185 q 528 174 530 185 q 508 122 524 154 q 471 63 493 91 q 425 16 450 35 q 376 0 400 -4 q 345 22 354 4 q 337 67 337 41 q 338 106 337 83 q 344 154 339 128 q 295 72 319 115 q 247 -6 272 30 q 194 -66 222 -43 q 133 -89 167 -89 q 81 -79 106 -89 q 43 -49 57 -69 q 21 -5 28 -30 q 22 52 15 20 q 39 136 28 89 q 64 233 50 183 q 94 332 78 283 q 126 422 109 381 q 144 471 135 446 q 152 511 154 496 q 131 528 150 526 q 69 511 113 530 q -12 472 31 494 q -87 424 -56 450 q -107 414 -106 413 q -96 431 -109 415 m 409 630 q 405 621 411 628 q 388 609 398 615 q 368 600 378 604 q 354 600 357 596 q 333 672 333 630 q 305 634 320 654 q 272 600 289 615 q 256 600 265 596 q 242 609 248 604 q 231 621 235 615 q 231 630 228 628 q 261 646 244 633 q 294 675 278 659 q 322 705 309 691 q 343 724 335 719 q 345 727 343 726 q 352 724 348 728 q 360 705 356 719 q 372 675 365 691 q 388 646 380 659 q 409 630 396 633 z "},"":{"ha":491,"x_min":-109,"x_max":530,"o":"m -96 431 q -38 483 -78 454 q 41 533 2 513 q 102 562 70 548 q 165 576 133 576 q 215 555 191 576 q 228 506 239 533 q 188 407 211 465 q 143 287 165 350 q 102 163 120 224 q 76 54 83 102 q 74 -24 69 6 q 107 -52 80 -54 q 188 -13 150 -50 q 259 80 226 24 q 322 201 293 135 q 380 324 352 267 l 428 483 q 442 493 430 491 q 467 491 454 494 q 490 480 480 487 q 500 461 500 472 l 500 454 q 474 398 494 446 q 431 286 454 350 q 392 158 409 222 q 374 57 374 94 q 389 28 374 28 q 418 40 402 28 q 449 72 433 52 q 480 119 465 93 q 506 172 494 144 q 520 185 511 185 q 528 174 530 185 q 508 122 524 154 q 471 63 493 91 q 425 16 450 35 q 376 0 400 -4 q 345 22 354 4 q 337 67 337 41 q 338 106 337 83 q 344 154 339 128 q 295 72 319 115 q 247 -6 272 30 q 194 -66 222 -43 q 133 -89 167 -89 q 81 -79 106 -89 q 43 -49 57 -69 q 21 -5 28 -30 q 22 52 15 20 q 39 136 28 89 q 64 233 50 183 q 94 332 78 283 q 126 422 109 381 q 144 471 135 446 q 152 511 154 496 q 131 528 150 526 q 69 511 113 530 q -12 472 31 494 q -87 424 -56 450 q -107 414 -106 413 q -96 431 -109 415 m 272 607 q 275 655 274 628 q 280 685 276 681 q 299 692 287 691 q 321 691 311 693 q 338 684 331 689 q 343 676 344 680 q 322 645 335 663 q 298 615 309 628 q 279 597 287 602 q 272 607 270 593 m 330 615 q 350 658 339 633 q 367 683 361 683 q 385 683 374 687 q 406 674 396 680 q 419 662 415 669 q 422 654 424 656 q 393 632 411 644 q 358 612 374 620 q 333 603 343 604 q 330 615 324 602 z "},"":{"ha":583,"x_min":4,"x_max":611,"o":"m 446 -207 q 476 -187 459 -207 q 509 -137 493 -167 q 543 -73 526 -107 q 572 -9 559 -39 q 596 8 581 9 q 602 -13 611 7 q 576 -67 593 -30 q 536 -142 559 -104 q 485 -207 513 -180 q 430 -231 457 -235 q 392 -202 400 -228 q 383 -131 383 -176 q 393 -42 383 -100 q 417 72 402 17 q 333 -39 376 11 q 243 -89 291 -89 q 163 -49 183 -89 q 150 52 143 -9 q 163 136 154 89 q 184 233 172 183 q 209 332 196 283 q 235 422 222 381 q 249 471 243 446 q 253 511 256 496 q 232 528 250 526 q 172 511 215 530 q 96 472 137 494 q 24 424 56 450 q 6 414 7 413 q 15 431 4 415 q 72 490 37 463 q 143 533 107 517 q 265 576 200 565 q 286 573 274 578 q 309 559 298 569 q 326 536 320 550 q 326 506 331 522 q 297 413 315 469 q 262 296 280 357 q 230 172 244 235 q 208 58 215 109 q 207 -27 202 7 q 237 -67 213 -61 q 294 -44 261 -72 q 362 35 328 -15 q 430 148 396 85 q 487 276 463 211 l 526 439 q 540 448 528 446 q 565 445 552 450 q 589 433 578 441 q 600 415 600 426 l 600 407 q 586 374 596 402 q 561 306 576 346 q 530 219 546 267 q 496 128 513 172 q 458 6 474 67 q 435 -102 443 -54 q 430 -179 428 -150 q 446 -207 431 -207 m 439 733 q 448 735 439 735 q 469 732 457 735 q 490 725 480 730 q 500 713 500 720 q 488 675 498 694 q 466 639 478 656 q 440 611 454 622 q 419 598 426 600 l 420 600 q 425 621 420 606 q 434 657 430 637 q 442 698 439 678 q 439 733 444 719 z "},"":{"ha":754,"x_min":9,"x_max":791,"o":"m 674 565 q 700 579 683 581 q 732 564 717 576 q 757 536 748 552 q 761 509 767 520 q 710 401 735 467 q 661 276 685 335 q 738 266 711 270 q 776 257 765 261 q 789 251 787 254 q 791 246 791 248 q 790 227 791 235 q 789 213 789 219 q 710 232 754 226 q 650 243 667 239 q 606 93 619 165 q 598 -23 593 20 q 631 -69 604 -67 q 707 -6 657 -70 q 712 -6 711 0 q 708 -24 713 -13 q 694 -49 704 -35 q 663 -74 683 -63 q 596 -81 624 -94 q 556 -26 569 -69 q 549 86 543 17 q 587 250 556 156 q 583 251 585 250 q 575 254 581 252 q 555 256 569 256 q 517 257 541 257 q 406 119 463 187 q 291 9 348 52 q 194 -27 241 -24 q 110 -12 148 -30 q 47 37 72 6 q 16 105 22 69 q 24 174 9 141 q 83 228 39 207 q 254 273 146 259 q 480 283 361 287 q 589 431 544 363 q 674 565 633 500 m 265 43 q 356 133 304 74 q 457 259 407 193 q 366 261 415 263 q 269 253 317 259 q 181 232 222 246 q 113 200 139 219 q 63 121 69 170 q 81 37 57 72 q 153 -5 106 2 q 265 43 200 -11 m 543 283 q 582 282 574 283 q 596 281 591 281 q 624 353 611 317 q 657 443 637 389 q 543 283 617 381 m 731 733 q 729 698 726 719 q 736 657 731 678 q 745 621 741 637 q 750 600 750 606 l 752 598 q 730 611 743 600 q 705 639 717 622 q 682 675 693 656 q 670 713 672 694 q 681 725 670 720 q 702 732 691 730 q 722 735 713 735 q 731 733 731 735 z "},"":{"ha":754,"x_min":9,"x_max":833,"o":"m 674 565 q 700 579 683 581 q 732 564 717 576 q 757 536 748 552 q 761 509 767 520 q 710 401 735 467 q 661 276 685 335 q 738 266 711 270 q 776 257 765 261 q 789 251 787 254 q 791 246 791 248 q 790 227 791 235 q 789 213 789 219 q 710 232 754 226 q 650 243 667 239 q 606 93 619 165 q 598 -23 593 20 q 631 -69 604 -67 q 707 -6 657 -70 q 712 -6 711 0 q 708 -24 713 -13 q 694 -49 704 -35 q 663 -74 683 -63 q 596 -81 624 -94 q 556 -26 569 -69 q 549 86 543 17 q 587 250 556 156 q 583 251 585 250 q 575 254 581 252 q 555 256 569 256 q 517 257 541 257 q 406 119 463 187 q 291 9 348 52 q 194 -27 241 -24 q 110 -12 148 -30 q 47 37 72 6 q 16 105 22 69 q 24 174 9 141 q 83 228 39 207 q 254 273 146 259 q 480 283 361 287 q 589 431 544 363 q 674 565 633 500 m 265 43 q 356 133 304 74 q 457 259 407 193 q 366 261 415 263 q 269 253 317 259 q 181 232 222 246 q 113 200 139 219 q 63 121 69 170 q 81 37 57 72 q 153 -5 106 2 q 265 43 200 -11 m 543 283 q 582 282 574 283 q 596 281 591 281 q 624 353 611 317 q 657 443 637 389 q 543 283 617 381 m 772 737 q 781 739 772 739 q 802 736 791 739 q 823 729 813 733 q 833 717 833 724 q 821 679 831 698 q 799 643 811 659 q 773 615 787 626 q 752 602 759 604 l 754 604 q 758 625 754 609 q 768 661 763 641 q 775 702 772 681 q 772 737 778 722 z "},"":{"ha":754,"x_min":9,"x_max":831,"o":"m 674 565 q 700 579 683 581 q 732 564 717 576 q 757 536 748 552 q 761 509 767 520 q 710 401 735 467 q 661 276 685 335 q 738 266 711 270 q 776 257 765 261 q 789 251 787 254 q 791 246 791 248 q 790 227 791 235 q 789 213 789 219 q 710 232 754 226 q 650 243 667 239 q 606 93 619 165 q 598 -23 593 20 q 631 -69 604 -67 q 707 -6 657 -70 q 712 -6 711 0 q 708 -24 713 -13 q 694 -49 704 -35 q 663 -74 683 -63 q 596 -81 624 -94 q 556 -26 569 -69 q 549 86 543 17 q 587 250 556 156 q 583 251 585 250 q 575 254 581 252 q 555 256 569 256 q 517 257 541 257 q 406 119 463 187 q 291 9 348 52 q 194 -27 241 -24 q 110 -12 148 -30 q 47 37 72 6 q 16 105 22 69 q 24 174 9 141 q 83 228 39 207 q 254 273 146 259 q 480 283 361 287 q 589 431 544 363 q 674 565 633 500 m 265 43 q 356 133 304 74 q 457 259 407 193 q 366 261 415 263 q 269 253 317 259 q 181 232 222 246 q 113 200 139 219 q 63 121 69 170 q 81 37 57 72 q 153 -5 106 2 q 265 43 200 -11 m 543 283 q 582 282 574 283 q 596 281 591 281 q 624 353 611 317 q 657 443 637 389 q 543 283 617 381 m 830 628 q 825 619 831 626 q 808 607 819 613 q 788 598 798 602 q 774 598 778 594 q 754 670 754 628 q 725 632 741 652 q 693 598 709 613 q 677 598 685 594 q 662 607 669 602 q 652 619 656 613 q 652 628 648 626 q 681 644 665 631 q 714 673 698 657 q 743 703 730 689 q 763 722 756 717 q 766 725 763 724 q 772 722 769 726 q 781 703 776 717 q 793 673 785 689 q 808 644 800 657 q 830 628 817 631 z "},"":{"ha":754,"x_min":9,"x_max":841,"o":"m 674 565 q 700 579 683 581 q 732 564 717 576 q 757 536 748 552 q 761 509 767 520 q 710 401 735 467 q 661 276 685 335 q 738 266 711 270 q 776 257 765 261 q 789 251 787 254 q 791 246 791 248 q 790 227 791 235 q 789 213 789 219 q 710 232 754 226 q 650 243 667 239 q 606 93 619 165 q 598 -23 593 20 q 631 -69 604 -67 q 707 -6 657 -70 q 712 -6 711 0 q 708 -24 713 -13 q 694 -49 704 -35 q 663 -74 683 -63 q 596 -81 624 -94 q 556 -26 569 -69 q 549 86 543 17 q 587 250 556 156 q 583 251 585 250 q 575 254 581 252 q 555 256 569 256 q 517 257 541 257 q 406 119 463 187 q 291 9 348 52 q 194 -27 241 -24 q 110 -12 148 -30 q 47 37 72 6 q 16 105 22 69 q 24 174 9 141 q 83 228 39 207 q 254 273 146 259 q 480 283 361 287 q 589 431 544 363 q 674 565 633 500 m 265 43 q 356 133 304 74 q 457 259 407 193 q 366 261 415 263 q 269 253 317 259 q 181 232 222 246 q 113 200 139 219 q 63 121 69 170 q 81 37 57 72 q 153 -5 106 2 q 265 43 200 -11 m 543 283 q 582 282 574 283 q 596 281 591 281 q 624 353 611 317 q 657 443 637 389 q 543 283 617 381 m 824 637 q 795 608 815 622 q 748 598 776 594 q 726 606 735 598 q 710 624 717 615 q 697 641 704 633 q 683 648 691 648 q 669 644 674 648 q 664 633 665 639 q 665 623 663 628 q 667 619 667 619 q 669 609 672 615 q 658 599 665 604 q 644 591 652 594 q 633 591 637 587 q 623 616 624 598 q 631 650 622 633 q 659 678 641 667 q 706 681 678 689 q 726 668 720 678 q 734 644 731 657 q 741 622 737 631 q 757 613 744 613 q 793 631 778 613 q 798 683 807 650 q 802 693 796 689 q 816 697 807 696 q 831 696 824 698 q 839 691 837 694 q 838 669 841 683 q 824 637 835 656 z "},"":{"ha":754,"x_min":9,"x_max":857,"o":"m 709 609 q 712 656 711 630 q 717 687 713 683 q 736 694 724 693 q 758 693 748 694 q 775 686 769 691 q 780 678 781 681 q 759 647 772 665 q 735 617 746 630 q 716 599 724 604 q 709 609 707 594 m 763 609 q 783 653 772 628 q 800 678 794 678 q 819 678 807 681 q 839 669 830 674 q 853 656 848 663 q 856 648 857 650 q 826 627 844 639 q 792 606 807 615 q 767 597 776 598 q 763 609 757 596 m 674 565 q 700 579 683 581 q 732 564 717 576 q 757 536 748 552 q 761 509 767 520 q 710 401 735 467 q 661 276 685 335 q 738 266 711 270 q 776 257 765 261 q 789 251 787 254 q 791 246 791 248 q 790 227 791 235 q 789 213 789 219 q 710 232 754 226 q 650 243 667 239 q 606 93 619 165 q 598 -23 593 20 q 631 -69 604 -67 q 707 -6 657 -70 q 712 -6 711 0 q 708 -24 713 -13 q 694 -49 704 -35 q 663 -74 683 -63 q 596 -81 624 -94 q 556 -26 569 -69 q 549 86 543 17 q 587 250 556 156 q 583 251 585 250 q 575 254 581 252 q 555 256 569 256 q 517 257 541 257 q 406 119 463 187 q 291 9 348 52 q 194 -27 241 -24 q 110 -12 148 -30 q 47 37 72 6 q 16 105 22 69 q 24 174 9 141 q 83 228 39 207 q 254 273 146 259 q 480 283 361 287 q 589 431 544 363 q 674 565 633 500 m 265 43 q 356 133 304 74 q 457 259 407 193 q 366 261 415 263 q 269 253 317 259 q 181 232 222 246 q 113 200 139 219 q 63 121 69 170 q 81 37 57 72 q 153 -5 106 2 q 265 43 200 -11 m 543 283 q 582 282 574 283 q 596 281 591 281 q 624 353 611 317 q 657 443 637 389 q 543 283 617 381 z "},"":{"ha":1159,"x_min":9,"x_max":1124,"o":"m 674 565 q 694 579 681 578 q 722 570 707 580 q 819 567 763 570 q 930 563 874 563 q 1033 569 985 563 q 1107 594 1081 574 q 1117 590 1113 598 q 1122 569 1120 581 q 1123 544 1124 557 q 1119 526 1122 531 q 1068 517 1102 520 q 996 512 1033 513 q 927 512 959 511 q 883 517 894 513 q 837 413 863 480 q 787 265 811 346 q 862 256 831 261 q 893 248 893 252 q 892 229 893 237 q 891 215 891 220 q 844 224 876 220 q 778 231 813 228 q 755 138 765 185 q 737 44 744 91 q 749 -44 731 -22 q 789 -61 767 -65 q 831 -35 811 -56 q 870 11 852 -15 q 905 68 889 37 q 933 126 920 98 q 956 145 946 154 q 956 117 965 137 q 875 -24 917 33 q 778 -81 833 -81 q 730 -70 746 -81 q 704 -33 713 -59 q 663 -74 691 -59 q 596 -81 624 -94 q 556 -26 569 -69 q 549 86 543 17 q 587 250 556 156 q 583 251 585 250 q 575 254 581 252 q 555 256 569 256 q 517 257 541 257 q 406 119 463 187 q 291 9 348 52 q 194 -27 241 -24 q 110 -12 148 -30 q 47 37 72 6 q 16 105 22 69 q 24 174 9 141 q 83 228 39 207 q 254 273 146 259 q 480 283 361 287 q 589 431 544 363 q 674 565 633 500 m 265 43 q 356 133 304 74 q 457 259 407 193 q 366 261 415 263 q 269 253 317 259 q 181 232 222 246 q 113 200 139 219 q 63 121 69 170 q 81 37 57 72 q 153 -5 106 2 q 265 43 200 -11 m 693 50 q 720 237 698 152 q 675 240 694 239 q 650 243 656 241 q 606 95 620 167 q 597 -19 593 24 q 627 -68 602 -63 q 698 -15 652 -72 q 693 50 693 9 m 800 519 q 780 516 789 517 q 763 517 770 515 q 762 512 763 513 q 761 509 761 511 q 710 401 735 467 q 661 276 685 335 l 728 270 q 765 396 744 335 q 800 519 785 457 m 543 283 q 582 282 574 283 q 596 281 591 281 q 624 353 611 317 q 657 443 637 389 q 543 283 617 381 z "},"":{"ha":517,"x_min":6,"x_max":706,"o":"m 204 274 q 320 320 252 307 q 351 430 335 376 q 381 535 367 483 q 199 507 276 543 q 81 414 122 472 q 42 284 41 356 q 96 150 43 213 q 110 133 104 141 q 118 123 117 126 q 112 125 119 120 q 87 146 106 130 q 11 282 17 207 q 45 423 6 357 q 164 533 85 489 q 341 578 243 578 q 468 574 413 578 q 564 569 522 570 q 636 572 606 567 q 689 594 667 578 q 698 592 694 600 q 704 570 702 583 q 705 544 706 557 q 700 526 704 531 q 647 516 681 517 q 576 518 613 515 q 507 525 539 520 q 465 533 476 530 q 427 447 448 502 q 385 326 406 393 l 430 326 q 467 325 454 326 q 485 322 480 324 q 493 318 491 320 q 494 313 494 315 q 498 294 496 302 q 496 280 500 285 q 374 291 437 291 q 343 167 357 230 q 319 44 328 104 q 331 -44 313 -22 q 370 -61 348 -65 q 413 -35 393 -56 q 452 11 433 -15 q 486 68 470 37 q 515 126 502 98 q 537 145 528 154 q 537 117 546 137 q 456 -24 498 33 q 359 -81 415 -81 q 294 -51 311 -81 q 274 50 278 -20 q 288 173 278 115 q 313 287 298 231 q 259 280 285 283 q 207 267 233 276 q 195 262 196 261 q 204 274 194 263 m 439 737 q 436 702 433 722 q 444 661 439 681 q 453 625 448 641 q 457 604 457 609 l 459 602 q 437 615 450 604 q 412 643 424 626 q 390 679 400 659 q 378 717 380 698 q 388 729 378 724 q 409 736 398 733 q 430 739 420 739 q 439 737 439 739 z "},"":{"ha":517,"x_min":6,"x_max":706,"o":"m 204 274 q 320 320 252 307 q 351 430 335 376 q 381 535 367 483 q 199 507 276 543 q 81 414 122 472 q 42 284 41 356 q 96 150 43 213 q 110 133 104 141 q 118 123 117 126 q 112 125 119 120 q 87 146 106 130 q 11 282 17 207 q 45 423 6 357 q 164 533 85 489 q 341 578 243 578 q 468 574 413 578 q 564 569 522 570 q 636 572 606 567 q 689 594 667 578 q 698 592 694 600 q 704 570 702 583 q 705 544 706 557 q 700 526 704 531 q 647 516 681 517 q 576 518 613 515 q 507 525 539 520 q 465 533 476 530 q 427 447 448 502 q 385 326 406 393 l 430 326 q 467 325 454 326 q 485 322 480 324 q 493 318 491 320 q 494 313 494 315 q 498 294 496 302 q 496 280 500 285 q 374 291 437 291 q 343 167 357 230 q 319 44 328 104 q 331 -44 313 -22 q 370 -61 348 -65 q 413 -35 393 -56 q 452 11 433 -15 q 486 68 470 37 q 515 126 502 98 q 537 145 528 154 q 537 117 546 137 q 456 -24 498 33 q 359 -81 415 -81 q 294 -51 311 -81 q 274 50 278 -20 q 288 173 278 115 q 313 287 298 231 q 259 280 285 283 q 207 267 233 276 q 195 262 196 261 q 204 274 194 263 m 461 739 q 470 741 461 741 q 491 738 480 741 q 512 731 502 735 q 522 719 522 726 q 510 681 520 700 q 488 644 500 661 q 462 617 476 628 q 441 604 448 606 l 443 606 q 447 627 443 611 q 456 663 452 643 q 464 704 461 683 q 461 739 467 724 z "},"":{"ha":517,"x_min":6,"x_max":706,"o":"m 204 274 q 320 320 252 307 q 351 430 335 376 q 381 535 367 483 q 199 507 276 543 q 81 414 122 472 q 42 284 41 356 q 96 150 43 213 q 110 133 104 141 q 118 123 117 126 q 112 125 119 120 q 87 146 106 130 q 11 282 17 207 q 45 423 6 357 q 164 533 85 489 q 341 578 243 578 q 468 574 413 578 q 564 569 522 570 q 636 572 606 567 q 689 594 667 578 q 698 592 694 600 q 704 570 702 583 q 705 544 706 557 q 700 526 704 531 q 647 516 681 517 q 576 518 613 515 q 507 525 539 520 q 465 533 476 530 q 427 447 448 502 q 385 326 406 393 l 430 326 q 467 325 454 326 q 485 322 480 324 q 493 318 491 320 q 494 313 494 315 q 498 294 496 302 q 496 280 500 285 q 374 291 437 291 q 343 167 357 230 q 319 44 328 104 q 331 -44 313 -22 q 370 -61 348 -65 q 413 -35 393 -56 q 452 11 433 -15 q 486 68 470 37 q 515 126 502 98 q 537 145 528 154 q 537 117 546 137 q 456 -24 498 33 q 359 -81 415 -81 q 294 -51 311 -81 q 274 50 278 -20 q 288 173 278 115 q 313 287 298 231 q 259 280 285 283 q 207 267 233 276 q 195 262 196 261 q 204 274 194 263 m 543 633 q 538 625 544 631 q 521 613 531 619 q 501 604 511 607 q 487 604 491 600 q 467 676 467 633 q 438 638 454 657 q 406 604 422 619 q 390 604 398 600 q 375 613 381 607 q 365 625 369 619 q 365 633 361 631 q 394 650 378 637 q 427 679 411 663 q 456 708 443 694 q 476 728 469 722 q 479 731 476 730 q 485 728 481 731 q 494 708 489 722 q 506 679 498 694 q 521 650 513 663 q 543 633 530 637 z "},"":{"ha":517,"x_min":6,"x_max":706,"o":"m 204 274 q 320 320 252 307 q 351 430 335 376 q 381 535 367 483 q 199 507 276 543 q 81 414 122 472 q 42 284 41 356 q 96 150 43 213 q 110 133 104 141 q 118 123 117 126 q 112 125 119 120 q 87 146 106 130 q 11 282 17 207 q 45 423 6 357 q 164 533 85 489 q 341 578 243 578 q 468 574 413 578 q 564 569 522 570 q 636 572 606 567 q 689 594 667 578 q 698 592 694 600 q 704 570 702 583 q 705 544 706 557 q 700 526 704 531 q 647 516 681 517 q 576 518 613 515 q 507 525 539 520 q 465 533 476 530 q 427 447 448 502 q 385 326 406 393 l 430 326 q 467 325 454 326 q 485 322 480 324 q 493 318 491 320 q 494 313 494 315 q 498 294 496 302 q 496 280 500 285 q 374 291 437 291 q 343 167 357 230 q 319 44 328 104 q 331 -44 313 -22 q 370 -61 348 -65 q 413 -35 393 -56 q 452 11 433 -15 q 486 68 470 37 q 515 126 502 98 q 537 145 528 154 q 537 117 546 137 q 456 -24 498 33 q 359 -81 415 -81 q 294 -51 311 -81 q 274 50 278 -20 q 288 173 278 115 q 313 287 298 231 q 259 280 285 283 q 207 267 233 276 q 195 262 196 261 q 204 274 194 263 m 406 611 q 408 658 407 631 q 413 689 409 685 q 432 695 420 694 q 455 694 444 696 q 471 688 465 693 q 476 680 478 683 q 456 649 469 667 q 431 619 443 631 q 412 601 420 606 q 406 611 404 596 m 463 619 q 483 662 472 637 q 500 687 494 687 q 519 687 507 691 q 539 678 530 683 q 553 666 548 672 q 556 657 557 659 q 526 636 544 648 q 492 616 507 624 q 467 606 476 607 q 463 619 457 606 z "},"":{"ha":157,"x_min":-30,"x_max":172,"o":"m 59 467 q 80 479 65 478 q 108 474 94 480 q 130 458 122 469 q 126 437 137 448 q 106 393 120 431 q 74 298 91 354 q 43 180 57 243 q 20 64 28 117 q 16 -24 13 11 q 39 -59 19 -59 q 84 -17 54 -59 q 148 98 115 26 q 166 111 159 120 q 161 80 172 102 q 135 28 150 57 q 104 -28 120 -2 q 67 -70 87 -54 q 24 -83 46 -87 q -20 -46 -11 -78 q -24 37 -30 -15 q -8 146 -19 81 q 15 274 2 211 q 39 391 28 337 q 59 467 50 444 m 98 733 q 95 698 93 719 q 103 657 98 678 q 112 621 107 637 q 117 600 117 606 l 119 598 q 96 611 109 600 q 71 639 83 622 q 49 675 59 656 q 37 713 39 694 q 47 725 37 720 q 69 732 57 730 q 89 735 80 735 q 98 733 98 735 z "},"":{"ha":157,"x_min":-30,"x_max":181,"o":"m 59 467 q 80 479 65 478 q 108 474 94 480 q 130 458 122 469 q 126 437 137 448 q 106 393 120 431 q 74 298 91 354 q 43 180 57 243 q 20 64 28 117 q 16 -24 13 11 q 39 -59 19 -59 q 84 -17 54 -59 q 148 98 115 26 q 166 111 159 120 q 161 80 172 102 q 135 28 150 57 q 104 -28 120 -2 q 67 -70 87 -54 q 24 -83 46 -87 q -20 -46 -11 -78 q -24 37 -30 -15 q -8 146 -19 81 q 15 274 2 211 q 39 391 28 337 q 59 467 50 444 m 120 730 q 130 731 120 731 q 150 729 139 731 q 171 721 161 726 q 181 709 181 717 q 169 671 180 691 q 147 635 159 652 q 121 607 135 619 q 100 594 107 596 l 102 596 q 106 618 102 602 q 116 654 111 633 q 123 694 120 674 q 120 730 126 715 z "},"":{"ha":157,"x_min":-30,"x_max":207,"o":"m 59 467 q 80 479 65 478 q 108 474 94 480 q 130 458 122 469 q 126 437 137 448 q 106 393 120 431 q 74 298 91 354 q 43 180 57 243 q 20 64 28 117 q 16 -24 13 11 q 39 -59 19 -59 q 84 -17 54 -59 q 148 98 115 26 q 166 111 159 120 q 161 80 172 102 q 135 28 150 57 q 104 -28 120 -2 q 67 -70 87 -54 q 24 -83 46 -87 q -20 -46 -11 -78 q -24 37 -30 -15 q -8 146 -19 81 q 15 274 2 211 q 39 391 28 337 q 59 467 50 444 m 206 631 q 201 623 207 630 q 184 611 194 617 q 164 602 174 606 q 150 602 154 598 q 130 674 130 631 q 101 636 117 656 q 69 602 85 617 q 53 602 61 598 q 38 611 44 606 q 28 623 31 617 q 28 631 24 630 q 57 648 41 635 q 90 677 74 661 q 119 706 106 693 q 139 726 131 720 q 142 729 139 728 q 148 726 144 730 q 156 706 152 720 q 169 677 161 693 q 184 648 176 661 q 206 631 193 635 z "},"":{"ha":157,"x_min":-30,"x_max":222,"o":"m 59 467 q 80 479 65 478 q 108 474 94 480 q 130 458 122 469 q 126 437 137 448 q 106 393 120 431 q 74 298 91 354 q 43 180 57 243 q 20 64 28 117 q 16 -24 13 11 q 39 -59 19 -59 q 84 -17 54 -59 q 148 98 115 26 q 166 111 159 120 q 161 80 172 102 q 135 28 150 57 q 104 -28 120 -2 q 67 -70 87 -54 q 24 -83 46 -87 q -20 -46 -11 -78 q -24 37 -30 -15 q -8 146 -19 81 q 15 274 2 211 q 39 391 28 337 q 59 467 50 444 m 70 606 q 73 653 72 626 q 78 683 74 680 q 97 690 85 689 q 119 689 109 691 q 136 682 130 687 q 141 674 143 678 q 120 644 133 661 q 96 613 107 626 q 77 595 85 600 q 70 606 69 591 m 128 613 q 148 656 137 631 q 165 681 159 681 q 183 681 172 685 q 204 672 194 678 q 218 660 213 667 q 220 652 222 654 q 191 631 209 643 q 156 610 172 619 q 131 601 141 602 q 128 613 122 600 z "},"":{"ha":572,"x_min":-141,"x_max":548,"o":"m 241 254 q 244 235 246 254 q 239 217 243 217 q 219 217 230 217 q 198 219 209 217 q 172 133 183 174 q 156 62 161 93 q 154 13 152 31 q 169 -6 156 -6 q 185 -19 187 -6 q 163 -28 183 -33 q 127 3 133 -19 q 124 74 120 24 q 131 141 124 102 q 148 222 139 180 l 91 231 q 89 234 94 231 q 93 250 83 237 l 154 252 q 191 391 170 322 q 226 509 211 459 q 163 491 191 500 q 119 474 135 481 q 118 482 119 474 q 118 502 117 491 q 122 524 119 513 q 133 539 126 535 q 182 555 154 546 q 243 569 211 563 q 244 570 244 569 q 268 582 250 581 q 300 576 285 583 q 373 575 337 578 q 440 560 409 572 q 494 525 470 548 q 528 465 517 502 q 533 305 548 398 q 470 124 519 211 q 342 -24 422 37 q 150 -87 261 -85 q 19 -68 85 -87 q -102 -6 -48 -48 q -126 19 -117 6 q -138 42 -135 33 q -136 50 -141 50 q -117 35 -131 50 q -70 -2 -98 15 q -10 -31 -43 -19 q 58 -50 22 -43 q 128 -57 94 -57 q 264 -26 206 -57 q 364 55 322 6 q 431 163 406 104 q 469 279 457 222 q 481 383 481 335 q 469 457 480 431 q 406 512 448 498 q 315 522 365 526 q 269 415 300 491 q 209 252 239 339 l 241 254 z "},"":{"ha":498,"x_min":-46,"x_max":535,"o":"m 237 281 q 281 369 256 326 q 331 449 306 413 q 380 514 357 485 q 417 559 402 543 q 446 574 426 570 q 487 573 467 578 q 521 556 507 569 q 531 520 535 543 l 465 339 q 444 283 457 320 q 418 203 431 246 q 392 112 404 159 q 372 27 380 65 q 366 -35 365 -11 q 380 -59 367 -59 q 412 -40 394 -59 q 447 9 430 -20 q 481 74 465 39 q 509 141 496 109 q 520 150 511 150 q 526 143 526 150 q 514 88 526 126 q 481 11 502 50 q 434 -57 461 -28 q 378 -87 407 -87 q 344 -57 352 -87 q 335 0 335 -28 q 344 110 335 50 q 368 230 354 170 q 396 342 381 289 q 422 430 411 394 q 430 469 431 457 q 419 479 428 480 q 399 469 411 478 q 378 446 387 459 q 303 340 344 402 q 220 194 261 278 l 213 170 q 231 157 228 163 q 224 156 233 152 q 209 159 213 159 q 168 60 189 104 q 119 -6 146 17 q 59 -25 91 -28 q 2 -6 28 -22 q -41 59 -35 20 q -26 131 -46 98 q 43 182 -6 165 q 163 185 91 200 q 197 343 185 265 q 207 457 209 420 q 205 496 206 478 q 194 519 204 515 q 156 508 176 526 q 119 465 137 491 q 89 412 102 439 q 74 374 76 385 q 62 365 70 363 q 44 375 54 367 q 27 394 33 383 q 20 411 20 406 q 40 449 22 424 q 83 497 57 474 q 140 538 109 520 q 198 556 170 556 q 259 480 259 556 q 251 373 256 420 q 237 281 246 326 m -2 28 q 44 -1 22 -2 q 87 22 67 0 q 125 82 107 44 q 157 167 143 120 q 76 155 113 169 q 16 119 39 141 q -14 73 -7 98 q -2 28 -20 48 m 443 643 q 414 614 433 628 q 367 604 394 600 q 344 612 354 604 q 329 630 335 620 q 316 646 322 639 q 302 654 309 654 q 288 649 293 654 q 282 639 283 644 q 283 629 281 633 q 285 624 285 624 q 287 615 291 620 q 277 605 283 609 q 263 596 270 600 q 252 596 256 593 q 242 621 243 604 q 250 656 241 639 q 278 683 259 672 q 324 687 296 694 q 344 673 339 683 q 353 650 350 663 q 359 628 356 637 q 376 619 363 619 q 411 637 396 619 q 417 689 426 656 q 420 698 415 694 q 434 703 426 702 q 449 702 443 704 q 457 696 456 700 q 456 675 459 689 q 443 643 454 661 z "},"":{"ha":585,"x_min":81,"x_max":619,"o":"m 593 272 q 615 274 611 280 q 587 254 619 269 q 557 240 572 246 q 528 228 543 233 q 524 206 526 217 q 519 187 522 196 q 410 -18 480 59 q 243 -87 341 -94 q 163 -56 194 -83 q 116 16 131 -28 q 100 112 100 59 q 113 217 100 165 q 94 252 96 231 q 96 355 81 302 q 144 454 111 407 q 222 532 176 500 q 320 576 269 565 q 425 563 381 587 q 496 492 469 539 q 533 381 524 444 q 533 254 543 319 q 563 262 548 257 q 593 272 578 267 m 326 524 q 257 495 294 519 q 189 438 220 472 q 139 359 157 404 q 126 269 120 315 l 126 261 q 181 357 146 315 q 261 420 215 400 q 289 422 274 426 q 315 409 304 419 q 333 387 326 400 q 341 363 341 374 q 334 366 333 359 q 320 372 335 372 q 237 328 276 372 q 172 220 198 283 q 294 209 217 206 q 470 237 372 213 q 473 347 476 293 q 455 444 470 402 q 407 508 439 485 q 326 524 376 531 m 461 178 l 465 204 q 294 169 374 174 q 161 185 213 165 q 144 97 148 141 q 149 18 141 54 q 181 -42 157 -19 q 243 -67 204 -65 q 317 -49 281 -69 q 380 4 352 -30 q 429 82 407 37 q 461 178 450 128 m 335 739 q 332 704 330 724 q 340 663 335 683 q 349 627 344 643 q 354 606 354 611 l 356 604 q 333 617 346 606 q 308 644 320 628 q 286 681 296 661 q 274 719 276 700 q 284 731 274 726 q 306 738 294 735 q 326 741 317 741 q 335 739 335 741 z "},"":{"ha":585,"x_min":81,"x_max":619,"o":"m 593 272 q 615 274 611 280 q 587 254 619 269 q 557 240 572 246 q 528 228 543 233 q 524 206 526 217 q 519 187 522 196 q 410 -18 480 59 q 243 -87 341 -94 q 163 -56 194 -83 q 116 16 131 -28 q 100 112 100 59 q 113 217 100 165 q 94 252 96 231 q 96 355 81 302 q 144 454 111 407 q 222 532 176 500 q 320 576 269 565 q 425 563 381 587 q 496 492 469 539 q 533 381 524 444 q 533 254 543 319 q 563 262 548 257 q 593 272 578 267 m 326 524 q 257 495 294 519 q 189 438 220 472 q 139 359 157 404 q 126 269 120 315 l 126 261 q 181 357 146 315 q 261 420 215 400 q 289 422 274 426 q 315 409 304 419 q 333 387 326 400 q 341 363 341 374 q 334 366 333 359 q 320 372 335 372 q 237 328 276 372 q 172 220 198 283 q 294 209 217 206 q 470 237 372 213 q 473 347 476 293 q 455 444 470 402 q 407 508 439 485 q 326 524 376 531 m 461 178 l 465 204 q 294 169 374 174 q 161 185 213 165 q 144 97 148 141 q 149 18 141 54 q 181 -42 157 -19 q 243 -67 204 -65 q 317 -49 281 -69 q 380 4 352 -30 q 429 82 407 37 q 461 178 450 128 m 367 735 q 376 737 367 737 q 396 734 385 737 q 418 727 407 731 q 428 715 428 722 q 416 677 426 696 q 394 641 406 657 q 368 613 381 624 q 346 600 354 602 l 348 602 q 353 623 348 607 q 362 659 357 639 q 369 700 367 680 q 367 735 372 720 z "},"":{"ha":585,"x_min":81,"x_max":619,"o":"m 593 272 q 615 274 611 280 q 587 254 619 269 q 557 240 572 246 q 528 228 543 233 q 524 206 526 217 q 519 187 522 196 q 410 -18 480 59 q 243 -87 341 -94 q 163 -56 194 -83 q 116 16 131 -28 q 100 112 100 59 q 113 217 100 165 q 94 252 96 231 q 96 355 81 302 q 144 454 111 407 q 222 532 176 500 q 320 576 269 565 q 425 563 381 587 q 496 492 469 539 q 533 381 524 444 q 533 254 543 319 q 563 262 548 257 q 593 272 578 267 m 326 524 q 257 495 294 519 q 189 438 220 472 q 139 359 157 404 q 126 269 120 315 l 126 261 q 181 357 146 315 q 261 420 215 400 q 289 422 274 426 q 315 409 304 419 q 333 387 326 400 q 341 363 341 374 q 334 366 333 359 q 320 372 335 372 q 237 328 276 372 q 172 220 198 283 q 294 209 217 206 q 470 237 372 213 q 473 347 476 293 q 455 444 470 402 q 407 508 439 485 q 326 524 376 531 m 461 178 l 465 204 q 294 169 374 174 q 161 185 213 165 q 144 97 148 141 q 149 18 141 54 q 181 -42 157 -19 q 243 -67 204 -65 q 317 -49 281 -69 q 380 4 352 -30 q 429 82 407 37 q 461 178 450 128 m 461 633 q 456 625 463 631 q 440 613 450 619 q 419 604 430 607 q 406 604 409 600 q 385 676 385 633 q 356 638 372 657 q 324 604 341 619 q 308 604 317 600 q 294 613 300 607 q 283 625 287 619 q 283 633 280 631 q 313 650 296 637 q 345 679 330 663 q 374 708 361 694 q 394 728 387 722 q 397 731 394 730 q 404 728 400 731 q 412 708 407 722 q 424 679 417 694 q 440 650 431 663 q 461 633 448 637 z "},"":{"ha":585,"x_min":81,"x_max":619,"o":"m 593 272 q 615 274 611 280 q 587 254 619 269 q 557 240 572 246 q 528 228 543 233 q 524 206 526 217 q 519 187 522 196 q 410 -18 480 59 q 243 -87 341 -94 q 163 -56 194 -83 q 116 16 131 -28 q 100 112 100 59 q 113 217 100 165 q 94 252 96 231 q 96 355 81 302 q 144 454 111 407 q 222 532 176 500 q 320 576 269 565 q 425 563 381 587 q 496 492 469 539 q 533 381 524 444 q 533 254 543 319 q 563 262 548 257 q 593 272 578 267 m 326 524 q 257 495 294 519 q 189 438 220 472 q 139 359 157 404 q 126 269 120 315 l 126 261 q 181 357 146 315 q 261 420 215 400 q 289 422 274 426 q 315 409 304 419 q 333 387 326 400 q 341 363 341 374 q 334 366 333 359 q 320 372 335 372 q 237 328 276 372 q 172 220 198 283 q 294 209 217 206 q 470 237 372 213 q 473 347 476 293 q 455 444 470 402 q 407 508 439 485 q 326 524 376 531 m 461 178 l 465 204 q 294 169 374 174 q 161 185 213 165 q 144 97 148 141 q 149 18 141 54 q 181 -42 157 -19 q 243 -67 204 -65 q 317 -49 281 -69 q 380 4 352 -30 q 429 82 407 37 q 461 178 450 128 m 459 643 q 431 614 450 628 q 383 604 411 600 q 361 612 370 604 q 345 630 352 620 q 332 646 339 639 q 319 654 326 654 q 305 649 309 654 q 299 639 300 644 q 300 629 298 633 q 302 624 302 624 q 304 615 307 620 q 294 605 300 609 q 280 596 287 600 q 269 596 272 593 q 258 621 259 604 q 267 656 257 639 q 294 683 276 672 q 341 687 313 694 q 361 673 356 683 q 369 650 367 663 q 376 628 372 637 q 393 619 380 619 q 428 637 413 619 q 433 689 443 656 q 437 698 431 694 q 451 703 443 702 q 466 702 459 704 q 474 696 472 700 q 473 675 476 689 q 459 643 470 661 z "},"":{"ha":585,"x_min":81,"x_max":619,"o":"m 593 272 q 615 274 611 280 q 587 254 619 269 q 557 240 572 246 q 528 228 543 233 q 524 206 526 217 q 519 187 522 196 q 410 -18 480 59 q 243 -87 341 -94 q 163 -56 194 -83 q 116 16 131 -28 q 100 112 100 59 q 113 217 100 165 q 94 252 96 231 q 96 355 81 302 q 144 454 111 407 q 222 532 176 500 q 320 576 269 565 q 425 563 381 587 q 496 492 469 539 q 533 381 524 444 q 533 254 543 319 q 563 262 548 257 q 593 272 578 267 m 326 524 q 257 495 294 519 q 189 438 220 472 q 139 359 157 404 q 126 269 120 315 l 126 261 q 181 357 146 315 q 261 420 215 400 q 289 422 274 426 q 315 409 304 419 q 333 387 326 400 q 341 363 341 374 q 334 366 333 359 q 320 372 335 372 q 237 328 276 372 q 172 220 198 283 q 294 209 217 206 q 470 237 372 213 q 473 347 476 293 q 455 444 470 402 q 407 508 439 485 q 326 524 376 531 m 461 178 l 465 204 q 294 169 374 174 q 161 185 213 165 q 144 97 148 141 q 149 18 141 54 q 181 -42 157 -19 q 243 -67 204 -65 q 317 -49 281 -69 q 380 4 352 -30 q 429 82 407 37 q 461 178 450 128 m 319 607 q 321 655 320 628 q 326 685 322 681 q 345 692 333 691 q 368 691 357 693 q 384 684 378 689 q 389 676 391 680 q 369 645 381 663 q 344 615 356 628 q 325 597 333 602 q 319 607 317 593 m 376 615 q 396 658 385 633 q 413 683 407 683 q 431 683 420 687 q 452 674 443 680 q 466 662 461 669 q 469 654 470 656 q 439 632 457 644 q 405 612 420 620 q 380 603 389 604 q 376 615 370 602 z "},"":{"ha":530,"x_min":-37,"x_max":556,"o":"m -4 -7 q -31 50 -26 11 q -29 133 -37 89 q 1 219 -20 178 q 54 287 22 261 q 101 310 74 304 q 148 313 128 317 q 197 282 181 307 q 217 225 213 257 q 215 157 220 193 q 200 98 209 122 q 231 94 215 87 q 260 111 248 100 q 281 131 272 122 q 287 131 289 139 q 270 93 283 106 q 243 74 257 80 q 213 69 228 69 q 193 72 198 70 q 171 29 181 46 q 135 -11 161 11 q 99 -30 119 -26 q 61 -31 80 -33 q 26 -23 43 -30 q 0 -7 9 -17 l -4 -7 m 107 4 q 140 58 128 26 q 152 96 152 91 q 130 138 137 113 q 121 191 122 163 q 125 244 120 219 q 139 291 130 270 q 106 269 119 283 q 68 220 85 250 q 38 157 50 191 q 20 92 26 124 q 19 35 15 59 q 56 -19 28 -17 q 107 4 85 -22 m 161 120 q 167 145 163 128 q 172 183 170 163 q 175 224 174 204 q 174 259 176 244 q 163 289 172 280 q 144 243 150 269 q 140 191 139 217 q 146 145 141 165 q 161 120 152 126 m 306 52 q 368 0 320 7 q 478 59 415 -7 q 514 109 500 83 q 537 161 528 135 q 548 165 541 170 q 554 150 556 159 q 518 75 543 109 q 461 16 493 41 q 396 -20 430 -9 q 335 -24 363 -31 q 272 16 293 -15 q 250 85 252 46 q 262 166 248 124 q 301 242 276 207 q 360 296 326 276 q 433 313 394 317 q 483 270 476 307 q 480 208 491 239 q 444 158 469 178 q 387 134 420 139 q 319 152 354 130 q 317 153 317 152 q 315 154 317 154 q 306 52 291 94 m 326 174 q 376 155 354 152 q 415 172 398 157 q 439 208 431 187 q 444 248 446 230 q 427 265 441 263 q 396 254 413 267 q 324 174 352 219 l 326 174 z "},"":{"ha":593,"x_min":-39,"x_max":619,"o":"m 187 206 q 202 225 193 215 q 231 230 211 235 q 195 265 226 256 q 137 259 165 274 q 89 220 111 244 q 49 167 67 196 q 20 107 31 137 q 6 54 9 78 q 21 3 -2 11 q 67 20 44 -6 q 125 101 94 50 q 187 206 156 152 m 346 154 q 359 161 352 167 q 363 148 367 156 q 346 99 359 131 q 313 36 333 67 q 266 -13 293 6 q 209 -19 239 -31 q 173 32 181 -7 q 172 109 165 72 q 144 70 161 94 q 106 24 126 46 q 67 -14 87 2 q 30 -24 46 -30 q -12 -2 2 -17 q -30 28 -26 13 q -31 103 -39 61 q -6 183 -24 144 q 40 255 13 222 q 98 302 67 287 q 156 313 128 315 q 206 297 183 311 q 241 263 228 283 q 252 220 254 243 q 263 205 254 211 q 259 169 272 198 q 239 112 248 141 q 226 59 230 83 q 224 19 222 35 q 237 2 226 4 q 265 14 250 0 q 294 51 280 28 q 322 101 309 74 q 346 154 335 128 m 369 52 q 431 0 383 7 q 541 59 478 -7 q 577 109 563 83 q 600 161 591 135 q 611 165 604 170 q 617 150 619 159 q 581 75 606 109 q 524 16 556 41 q 459 -20 493 -9 q 398 -24 426 -31 q 335 16 356 -15 q 313 85 315 46 q 325 166 311 124 q 364 242 339 207 q 423 296 389 276 q 496 313 457 317 q 546 270 539 307 q 543 208 554 239 q 507 158 531 178 q 450 134 483 139 q 381 152 417 130 q 380 153 380 152 q 378 154 380 154 q 369 52 354 94 m 389 174 q 439 155 417 152 q 478 172 461 157 q 502 208 494 187 q 507 248 509 230 q 490 265 504 263 q 459 254 476 267 q 387 174 415 219 l 389 174 z "},"":{"ha":583,"x_min":4,"x_max":611,"o":"m 446 -207 q 476 -187 459 -207 q 509 -137 493 -167 q 543 -73 526 -107 q 572 -9 559 -39 q 596 8 581 9 q 602 -13 611 7 q 576 -67 593 -30 q 536 -142 559 -104 q 485 -207 513 -180 q 430 -231 457 -235 q 392 -202 400 -228 q 383 -131 383 -176 q 393 -42 383 -100 q 417 72 402 17 q 333 -39 376 11 q 243 -89 291 -89 q 163 -49 183 -89 q 150 52 143 -9 q 163 136 154 89 q 184 233 172 183 q 209 332 196 283 q 235 422 222 381 q 249 471 243 446 q 253 511 256 496 q 232 528 250 526 q 172 511 215 530 q 96 472 137 494 q 24 424 56 450 q 6 414 7 413 q 15 431 4 415 q 72 490 37 463 q 143 533 107 517 q 265 576 200 565 q 286 573 274 578 q 309 559 298 569 q 326 536 320 550 q 326 506 331 522 q 297 413 315 469 q 262 296 280 357 q 230 172 244 235 q 208 58 215 109 q 207 -27 202 7 q 237 -67 213 -61 q 294 -44 261 -72 q 362 35 328 -15 q 430 148 396 85 q 487 276 463 211 l 526 439 q 540 448 528 446 q 565 445 552 450 q 589 433 578 441 q 600 415 600 426 l 600 407 q 586 374 596 402 q 561 306 576 346 q 530 219 546 267 q 496 128 513 172 q 458 6 474 67 q 435 -102 443 -54 q 430 -179 428 -150 q 446 -207 431 -207 m 407 611 q 410 658 409 631 q 415 689 411 685 q 434 695 422 694 q 456 694 446 696 q 473 688 467 693 q 478 680 480 683 q 457 649 470 667 q 433 619 444 631 q 414 601 422 606 q 407 611 406 596 m 465 619 q 485 662 474 637 q 502 687 496 687 q 520 687 509 691 q 541 678 531 683 q 555 666 550 672 q 557 657 559 659 q 528 636 546 648 q 494 616 509 624 q 469 606 478 607 q 465 619 459 606 z "},"":{"ha":817,"x_min":43,"x_max":994,"o":"m 989 526 q 936 516 970 517 q 865 518 902 515 q 796 525 828 520 q 754 533 765 530 q 703 411 731 493 q 648 235 674 330 q 709 256 680 244 q 767 281 739 267 q 777 279 772 283 q 784 266 781 274 q 786 250 787 257 q 781 241 785 243 q 711 211 748 224 q 635 189 674 198 q 619 115 626 152 q 607 44 613 78 q 619 -44 602 -22 q 659 -61 637 -65 q 702 -35 681 -56 q 741 11 722 -15 q 775 68 759 37 q 804 126 791 98 q 826 145 817 154 q 826 117 835 137 q 745 -24 787 33 q 648 -81 704 -81 q 583 -51 600 -81 q 563 50 567 -20 q 569 112 565 81 q 578 174 572 143 q 525 167 552 170 q 472 159 498 163 q 365 -25 431 43 q 206 -87 298 -93 q 125 -55 156 -83 q 79 19 94 -26 q 63 116 63 63 q 78 222 63 169 q 57 252 59 237 q 56 355 43 302 q 104 454 70 407 q 184 532 137 500 q 283 576 231 565 q 370 569 331 585 q 437 522 409 554 q 526 563 478 548 q 630 578 574 578 q 756 574 702 578 q 853 569 811 570 q 925 572 894 567 q 978 594 956 578 q 987 592 983 600 q 993 570 991 583 q 994 544 994 557 q 989 526 993 531 m 385 150 q 399 133 393 141 q 406 123 406 126 q 401 125 407 120 q 376 146 394 130 l 365 156 q 231 167 293 157 q 126 193 169 176 q 107 103 111 148 q 112 20 104 57 q 143 -41 120 -17 q 206 -67 165 -65 q 276 -51 243 -69 q 337 -3 309 -33 q 385 69 365 28 q 419 157 406 111 q 399 156 409 156 q 380 156 389 156 l 385 150 m 391 491 q 349 520 374 511 q 289 524 324 530 q 216 494 257 519 q 141 435 174 470 q 90 356 107 400 q 89 269 72 313 q 91 263 89 265 q 144 358 111 317 q 224 420 178 400 q 252 422 237 426 q 278 409 267 419 q 296 387 289 400 q 304 363 304 374 q 297 366 296 359 q 283 372 298 372 q 200 328 239 372 q 137 222 161 283 q 222 195 170 204 q 337 187 274 187 q 302 346 283 263 q 391 491 320 430 m 670 535 q 555 528 607 539 q 459 493 502 517 q 499 356 493 435 q 483 198 506 276 q 534 206 509 202 q 585 217 559 211 q 627 381 604 304 q 670 535 650 459 m 357 187 l 426 191 q 438 335 439 261 q 411 459 437 409 q 335 332 352 406 q 357 187 319 259 z "},"":{"ha":230,"x_min":52,"x_max":161,"o":"m 135 824 q 155 801 148 817 q 156 765 161 785 q 131 731 152 744 q 94 720 109 717 q 58 749 65 726 q 61 798 52 772 q 94 827 74 820 q 135 824 115 833 m 111 793 q 93 784 100 793 q 83 766 85 776 q 84 745 81 756 q 96 733 87 735 q 119 737 109 728 q 132 759 130 746 q 131 783 135 772 q 111 793 126 794 z "},"":{"ha":343,"x_min":-39,"x_max":367,"o":"m 187 206 q 202 225 193 215 q 231 230 211 235 q 195 265 226 256 q 137 259 165 274 q 89 220 111 244 q 49 167 67 196 q 20 107 31 137 q 6 54 9 78 q 21 3 -2 11 q 67 20 44 -6 q 125 101 94 50 q 187 206 156 152 m 346 154 q 359 161 352 167 q 363 148 367 156 q 346 99 359 131 q 313 36 333 67 q 266 -13 293 6 q 209 -19 239 -31 q 173 32 181 -7 q 172 109 165 72 q 144 70 161 94 q 106 24 126 46 q 67 -14 87 2 q 30 -24 46 -30 q -12 -2 2 -17 q -30 28 -26 13 q -31 103 -39 61 q -6 183 -24 144 q 40 255 13 222 q 98 302 67 287 q 156 313 128 315 q 206 297 183 311 q 241 263 228 283 q 252 220 254 243 q 263 205 254 211 q 259 169 272 198 q 239 112 248 141 q 226 59 230 83 q 224 19 222 35 q 237 2 226 4 q 265 14 250 0 q 294 51 280 28 q 322 101 309 74 q 346 154 335 128 m 193 446 q 212 423 206 439 q 213 387 219 407 q 188 353 209 367 q 152 343 167 339 q 116 371 122 348 q 119 420 109 394 q 152 449 131 443 q 193 446 172 456 m 169 415 q 150 406 157 415 q 141 388 143 398 q 142 368 139 378 q 154 356 144 357 q 177 359 167 350 q 190 381 187 369 q 188 406 193 394 q 169 415 183 417 z "},"":{"ha":754,"x_min":9,"x_max":820,"o":"m 674 565 q 700 579 683 581 q 732 564 717 576 q 757 536 748 552 q 761 509 767 520 q 710 401 735 467 q 661 276 685 335 q 738 266 711 270 q 776 257 765 261 q 789 251 787 254 q 791 246 791 248 q 790 227 791 235 q 789 213 789 219 q 710 232 754 226 q 650 243 667 239 q 606 93 619 165 q 598 -23 593 20 q 631 -69 604 -67 q 707 -6 657 -70 q 712 -6 711 0 q 708 -24 713 -13 q 694 -49 704 -35 q 663 -74 683 -63 q 596 -81 624 -94 q 556 -26 569 -69 q 549 86 543 17 q 587 250 556 156 q 583 251 585 250 q 575 254 581 252 q 555 256 569 256 q 517 257 541 257 q 406 119 463 187 q 291 9 348 52 q 194 -27 241 -24 q 110 -12 148 -30 q 47 37 72 6 q 16 105 22 69 q 24 174 9 141 q 83 228 39 207 q 254 273 146 259 q 480 283 361 287 q 589 431 544 363 q 674 565 633 500 m 265 43 q 356 133 304 74 q 457 259 407 193 q 366 261 415 263 q 269 253 317 259 q 181 232 222 246 q 113 200 139 219 q 63 121 69 170 q 81 37 57 72 q 153 -5 106 2 q 265 43 200 -11 m 543 283 q 582 282 574 283 q 596 281 591 281 q 624 353 611 317 q 657 443 637 389 q 543 283 617 381 m 794 700 q 814 677 807 693 q 815 641 820 661 q 790 606 811 620 q 754 596 769 593 q 718 625 724 602 q 720 674 711 648 q 754 703 733 696 q 794 700 774 709 m 770 669 q 752 660 759 669 q 743 642 744 652 q 744 621 741 631 q 756 609 746 611 q 779 613 769 604 q 792 635 789 622 q 790 659 794 648 q 770 669 785 670 z "},"":{"ha":320,"x_min":76,"x_max":222,"o":"m 193 569 q 215 532 207 557 q 217 476 222 507 q 183 419 211 441 q 137 402 156 398 q 86 448 96 411 q 91 530 76 485 q 133 572 102 563 q 193 569 165 581 z "},"%":{"ha":552,"x_min":57,"x_max":483,"o":"m 359 726 q 374 735 363 735 q 397 731 385 735 q 419 719 409 726 q 431 706 430 711 q 388 562 413 644 q 337 390 363 480 q 285 212 311 300 q 238 51 259 124 q 203 -73 217 -22 q 185 -137 189 -124 q 159 -198 165 -198 q 150 -182 150 -198 q 156 -130 150 -167 q 175 -48 159 -113 q 212 105 191 17 q 257 293 233 193 q 303 482 281 393 q 339 639 324 572 q 359 726 354 706 m 407 198 q 364 201 387 207 q 331 170 341 194 q 328 114 320 139 q 365 83 335 89 q 404 94 381 80 q 430 133 426 109 q 428 172 435 156 q 407 198 420 189 m 441 244 q 472 206 461 233 q 474 141 483 178 q 432 79 467 102 q 372 59 398 56 q 311 110 324 69 q 317 200 298 152 q 369 249 331 239 q 441 244 407 259 m 167 450 q 123 453 146 459 q 91 422 100 446 q 87 366 80 391 q 124 335 94 341 q 163 346 141 331 q 189 385 185 361 q 187 424 194 407 q 167 450 180 441 m 200 496 q 231 457 220 485 q 233 393 243 430 q 192 331 226 354 q 131 311 157 307 q 70 362 83 320 q 76 452 57 404 q 129 501 91 491 q 200 496 167 511 z "},"":{"ha":698,"x_min":56,"x_max":657,"o":"m 357 726 q 372 735 361 735 q 395 731 383 735 q 418 719 407 726 q 430 706 428 711 q 386 562 411 644 q 335 390 361 480 q 283 212 309 300 q 236 51 257 124 q 201 -73 215 -22 q 183 -137 187 -124 q 157 -198 163 -198 q 148 -182 148 -198 q 154 -130 148 -167 q 173 -48 157 -113 q 210 105 189 17 q 256 293 231 193 q 301 482 280 393 q 337 639 322 572 q 357 726 352 706 m 406 198 q 362 201 385 207 q 330 170 339 194 q 326 114 319 139 q 363 83 333 89 q 402 94 380 80 q 428 133 424 109 q 426 172 433 156 q 406 198 419 189 m 439 244 q 470 206 459 233 q 472 141 481 178 q 431 79 465 102 q 370 59 396 56 q 309 110 322 69 q 315 200 296 152 q 368 249 330 239 q 439 244 406 259 m 165 450 q 121 453 144 459 q 89 422 98 446 q 85 366 78 391 q 122 335 93 341 q 161 346 139 331 q 187 385 183 361 q 185 424 193 407 q 165 450 178 441 m 198 496 q 230 457 219 485 q 231 393 241 430 q 190 331 224 354 q 130 311 156 307 q 69 362 81 320 q 74 452 56 404 q 127 501 89 491 q 198 496 165 511 m 581 198 q 538 201 561 207 q 506 170 515 194 q 502 114 494 139 q 539 83 509 89 q 578 94 556 80 q 604 133 600 109 q 602 172 609 156 q 581 198 594 189 m 615 244 q 646 206 635 233 q 648 141 657 178 q 606 79 641 102 q 546 59 572 56 q 485 110 498 69 q 491 200 472 152 q 544 249 506 239 q 615 244 581 259 z "},"":{"ha":439,"x_min":39,"x_max":406,"o":"m 41 -9 q 44 38 43 11 q 48 69 44 65 q 68 75 56 74 q 90 74 80 76 q 106 68 100 72 q 111 59 113 63 q 91 29 104 46 q 67 -2 78 11 q 47 -19 56 -15 q 41 -9 39 -24 m 187 -9 q 190 38 189 11 q 194 69 191 65 q 214 75 202 74 q 236 74 226 76 q 253 68 246 72 q 257 59 259 63 q 237 29 250 46 q 213 -2 224 11 q 194 -19 202 -15 q 187 -9 185 -24 m 333 -9 q 336 38 335 11 q 341 69 337 65 q 360 75 348 74 q 382 74 372 76 q 399 68 393 72 q 404 59 406 63 q 383 29 396 46 q 359 -2 370 11 q 340 -19 348 -15 q 333 -9 331 -24 z "},"":{"ha":244,"x_min":48,"x_max":215,"o":"m 69 65 q 78 67 69 67 q 98 64 87 67 q 119 56 109 61 q 130 44 130 52 q 118 6 128 26 q 95 -30 107 -13 q 69 -57 83 -46 q 48 -70 56 -69 l 50 -69 q 55 -47 50 -63 q 64 -11 59 -31 q 71 30 69 9 q 69 65 74 50 m 154 65 q 163 67 154 67 q 183 64 172 67 q 205 56 194 61 q 215 44 215 52 q 203 6 213 26 q 181 -30 193 -13 q 155 -57 169 -46 q 133 -70 141 -69 l 135 -69 q 140 -47 135 -63 q 149 -11 144 -31 q 156 30 154 9 q 154 65 159 50 z "},"":{"ha":183,"x_min":48,"x_max":130,"o":"m 69 65 q 78 67 69 67 q 98 64 87 67 q 119 56 109 61 q 130 44 130 52 q 118 6 128 26 q 95 -30 107 -13 q 69 -57 83 -46 q 48 -70 56 -69 l 50 -69 q 55 -47 50 -63 q 64 -11 59 -31 q 71 30 69 9 q 69 65 74 50 z "},"":{"ha":272,"x_min":28,"x_max":309,"o":"m 237 726 q 252 735 241 735 q 275 731 263 735 q 297 719 287 726 q 309 706 307 711 q 276 596 294 657 q 238 469 257 535 q 197 331 219 402 q 157 194 176 261 l 211 196 q 215 178 217 196 q 209 159 213 159 q 181 160 196 159 q 148 163 165 161 q 91 -35 115 48 q 63 -137 67 -119 q 37 -198 43 -198 q 28 -182 28 -198 q 33 -130 28 -167 q 42 -92 35 -119 q 58 -25 48 -65 q 80 64 69 15 q 104 167 91 113 q 81 170 91 169 q 61 174 70 172 q 59 177 65 174 q 63 193 54 180 l 111 193 l 237 726 z "},"":{"ha":272,"x_min":28,"x_max":309,"o":"m 237 726 q 252 735 241 735 q 275 731 263 735 q 297 719 287 726 q 309 706 307 711 l 270 580 l 304 581 q 307 563 309 581 q 302 544 306 544 q 282 544 293 544 q 261 546 272 544 l 157 194 l 211 196 q 215 178 217 196 q 209 159 213 159 q 181 160 196 159 q 148 163 165 161 q 91 -35 115 48 q 63 -137 67 -119 q 37 -198 43 -198 q 28 -182 28 -198 q 33 -130 28 -167 q 42 -92 35 -119 q 58 -25 48 -65 q 80 64 69 15 q 104 167 91 113 q 81 170 91 169 q 61 174 70 172 q 59 177 65 174 q 63 193 54 180 l 111 193 l 196 552 q 173 556 183 554 q 154 559 163 557 q 152 562 157 559 q 156 578 146 565 l 202 578 q 225 671 217 631 q 237 726 233 711 z "},"&":{"ha":596,"x_min":46,"x_max":565,"o":"m 278 404 q 279 328 270 367 q 302 257 287 289 q 447 358 393 302 q 520 465 502 415 q 520 549 539 515 q 446 583 502 583 q 397 569 424 583 q 345 531 370 556 q 302 474 320 507 q 278 404 283 441 m 198 -100 q 297 -73 248 -100 q 391 -2 346 -46 q 323 100 357 59 q 257 183 289 141 q 206 147 233 172 q 155 91 178 122 q 117 26 131 59 q 104 -36 102 -7 q 127 -82 106 -65 q 198 -100 148 -100 m 456 -109 q 439 -73 448 -91 q 409 -20 430 -56 q 300 -98 357 -69 q 183 -128 243 -128 q 88 -98 130 -128 q 46 -20 46 -69 q 97 105 46 44 q 237 213 148 165 q 214 280 222 244 q 207 350 206 315 q 227 444 209 396 q 276 531 244 493 q 352 595 307 570 q 454 620 396 620 q 533 590 502 620 q 565 502 565 559 q 543 419 565 457 q 485 348 520 381 q 406 283 450 315 q 319 222 363 252 q 380 122 346 170 q 433 37 413 74 q 449 53 439 43 q 469 75 459 63 q 488 99 480 87 q 502 117 496 111 q 484 70 502 104 q 450 19 467 37 q 478 -42 469 -24 q 485 -69 487 -59 q 470 -99 481 -89 q 456 -109 459 -109 z "},"":{"ha":520,"x_min":19,"x_max":454,"o":"m 276 -152 q 177 -158 224 -165 q 94 -127 130 -152 q 38 -61 57 -102 q 22 32 19 -20 q 49 144 26 91 q 106 247 72 198 q 178 344 139 296 q 250 437 217 391 q 305 531 291 493 q 319 591 319 570 q 324 622 319 615 q 342 607 333 622 q 350 572 350 593 q 339 514 350 546 q 302 448 328 481 q 135 198 196 309 q 91 -4 74 87 q 119 -61 98 -39 q 165 -95 139 -83 q 219 -109 191 -107 q 270 -106 248 -111 q 368 -42 328 -91 q 417 63 407 7 q 397 169 426 119 q 289 235 369 219 q 257 243 270 239 q 243 248 244 246 q 251 251 241 250 q 289 252 261 252 q 395 220 346 252 q 450 115 444 189 q 442 31 454 74 q 406 -50 430 -13 q 350 -115 383 -87 q 276 -152 317 -143 m 324 672 q 323 719 324 693 q 326 750 322 746 q 344 757 333 756 q 367 758 356 759 q 384 754 378 757 q 389 744 391 750 q 372 713 383 731 q 350 681 361 694 q 331 663 339 667 q 324 672 324 659 z "},"A":{"ha":731,"x_min":-13,"x_max":769,"o":"m 652 565 q 678 579 661 581 q 710 564 694 576 q 735 536 726 552 q 739 509 744 520 q 688 401 713 467 q 639 276 663 335 q 716 266 689 270 q 754 257 743 261 q 767 251 765 254 q 769 246 769 248 q 768 227 769 235 q 767 213 767 219 q 688 232 731 226 q 628 243 644 239 q 583 93 596 165 q 576 -23 570 20 q 608 -69 581 -67 q 685 -6 635 -70 q 690 -6 689 0 q 686 -24 691 -13 q 671 -49 681 -35 q 641 -74 661 -63 q 574 -81 602 -94 q 533 -26 546 -69 q 527 86 520 17 q 565 250 533 156 q 561 251 563 250 q 553 254 559 252 q 532 256 546 256 q 494 257 519 257 q 383 119 441 187 q 269 9 326 52 q 172 -27 219 -24 q 88 -12 126 -30 q 25 37 50 6 q -6 105 0 69 q 2 174 -13 141 q 61 228 17 207 q 231 273 124 259 q 457 283 339 287 q 567 431 522 363 q 652 565 611 500 m 243 43 q 333 133 281 74 q 435 259 385 193 q 344 261 393 263 q 247 253 294 259 q 158 232 200 246 q 91 200 117 219 q 41 121 46 170 q 59 37 35 72 q 131 -5 83 2 q 243 43 178 -11 m 520 283 q 560 282 552 283 q 574 281 569 281 q 602 353 589 317 q 635 443 615 389 q 520 283 594 381 z "}}}
